0
SECTION
2
HEADER
9
$ANGDIR
70
0
9
$CHAMFERA
40
10
9
$CHAMFERB
40
10
9
$CLAYER
8
Layer_1
9
$EXTMAX
10
220
20
209
9
$EXTMIN
10
55.977192610277115
20
165.7700865637573
9
$LIMMAX
10
600
20
400
9
$LIMMIN
10
0
20
0
9
$LTSCALE
40
10
9
$PLINEGEN
70
0
9
$TEXTSIZE
40
20
9
$GRIDUNIT
10
1
20
1
9
$SNAPUNIT
10
1
20
1
0
ENDSEC
0
SECTION
2
TABLES
0
TABLE
2
STYLE
70
1
0
STYLE
2
STANDARD
70
0
40
0
41
1
50
0
71
0
42
0.20000000000000001
3
txt
4

0
ENDTAB
0
TABLE
2
LTYPE
70
14
0
LTYPE
2
CONTINUOUS
70
0
3
Solid line
72
65
73
0
40
0
0
LTYPE
2
DOT
70
0
3
............................................
72
65
73
2
40
0.25
49
0
49
-0.25
0
LTYPE
2
HIDDEN
70
0
3
_ _ _ _ _ _ _ _ _ _ _ _ _ _ _ _ _ _ _ _ _ _ 
72
65
73
2
40
0.375
49
0.25
49
-0.125
0
LTYPE
2
TSLONGDASH
70
0
3
__ __ __ __ __ __ __ __ __ __ __ __ __ __ _ 
72
65
73
2
40
1.28
49
1
49
-0.28000000000000003
0
LTYPE
2
TSDASHDOT
70
0
3
______ . ______ . ______ . ______ . ______ .
72
65
73
4
40
1.28
49
1
49
-0.14000000000000001
49
0
49
-0.14000000000000001
0
LTYPE
2
TSCENTER
70
0
3
______ _ ______ _ ______ _ ______ _ ______ _
72
65
73
4
40
2
49
1.5
49
-0.17999999999999999
49
0.14000000000000001
49
-0.17999999999999999
0
LTYPE
2
TSPHANTOM
70
0
3
_____ _ _ _____ _ _ _____ _ _ _____ _ _ ____
72
65
73
6
40
2.5
49
1.6299999999999999
49
-0.19
49
0.14999999999999999
49
-0.19
49
0.14999999999999999
49
-0.19
0
LTYPE
2
DASHED
70
0
3
__ __ __ __ __ __ __ __ __ __ __ __ __ __ __
72
65
73
2
40
0.75
49
0.5
49
-0.25
0
LTYPE
2
CENTER
70
0
3
____ _ ____ _ ____ _ ____ _ ____ _ ____ _ __
72
65
73
4
40
2
49
1.25
49
-0.25
49
0.25
49
-0.25
0
LTYPE
2
PHANTOM
70
0
3
_____ _ _ _____ _ _ _____ _ _ _____ _ _ ____
72
65
73
6
40
2.5
49
1.25
49
-0.25
49
0.25
49
-0.25
49
0.25
49
-0.25
0
LTYPE
2
DASHDOT
70
0
3
__ . __ . __ . __ . __ . __ . __ . __ . __ .
72
65
73
4
40
1
49
0.5
49
-0.25
49
0
49
-0.25
0
LTYPE
2
BORDER
70
0
3
__ __ . __ __ . __ __ . __ __ . __ __ . __ _
72
65
73
6
40
1.75
49
0.5
49
-0.25
49
0.5
49
-0.25
49
0
49
-0.25
0
LTYPE
2
DIVIDE
70
0
3
__ . . __ . . __ . . __ . . __ . . __ . . __
72
65
73
6
40
1.25
49
0.5
49
-0.25
49
0
49
-0.25
49
0
49
-0.25
0
ENDTAB
0
TABLE
2
LAYER
70
3
0
LAYER
2
Layer_1
70
0
62
7
6
CONTINUOUS
0
LAYER
2
Layer_2
70
0
62
7
6
CONTINUOUS
0
LAYER
2
Layer_3
70
0
62
7
6
CONTINUOUS
0
ENDTAB
0
ENDSEC
0
SECTION
2
ENTITIES
0
POLYLINE
8
Layer_1
6
CONTINUOUS
62
7
66
1
10
0
20
0
70
129
40
0
41
0
0
VERTEX
8
Layer_1
6
CONTINUOUS
62
7
10
101.00000000053876
20
174.99999999851843
0
VERTEX
8
Layer_1
6
CONTINUOUS
62
7
10
101.00000000013472
20
171.99999999851843
0
VERTEX
8
Layer_1
6
CONTINUOUS
62
7
10
98.000000000134719
20
171.9999999989225
0
VERTEX
8
Layer_1
6
CONTINUOUS
62
7
10
98.000000000538762
20
174.9999999989225
0
VERTEX
8
Layer_1
6
CONTINUOUS
62
7
10
101.00000000053876
20
174.99999999851843
0
SEQEND
0
CIRCLE
8
Layer_1
6
CONTINUOUS
62
7
10
100.00000000161629
20
182.9999999986531
40
2.1200000000000045
0
CIRCLE
8
Layer_1
6
CONTINUOUS
62
7
10
100.00000000094286
20
177.9999999986531
40
1.5
0
POLYLINE
8
Layer_1
6
CONTINUOUS
62
7
66
1
10
0
20
0
70
128
40
0
41
0
0
VERTEX
8
Layer_1
6
CONTINUOUS
62
7
10
103.00000000161629
20
182.999999998249
0
VERTEX
8
Layer_1
6
CONTINUOUS
62
7
10
103
20
170.999999998249
0
VERTEX
8
Layer_1
6
CONTINUOUS
62
7
10
97
20
170.99999999905714
0
VERTEX
8
Layer_1
6
CONTINUOUS
62
7
10
97.000000002020329
20
185.99999999905714
0
SEQEND
0
ARC
8
Layer_1
6
CONTINUOUS
62
7
10
100.000000001751
20
183.9999999986531
40
3
50
0
51
90
0
LINE
8
Layer_1
6
CONTINUOUS
62
7
10
97.000000002020329
20
185.99999999905714
11
97.000000002155048
21
186.99999999905714
0
LINE
8
Layer_1
6
CONTINUOUS
62
7
10
97.000000002155048
20
186.99999999905714
11
100.00000000215505
21
186.9999999986531
0
LINE
8
Layer_1
6
CONTINUOUS
62
7
10
103.000000001751
20
183.999999998249
11
103.00000000161629
21
182.999999998249
0
POLYLINE
8
Layer_1
6
CONTINUOUS
62
7
66
1
10
0
20
0
70
129
40
0
41
0
0
VERTEX
8
Layer_1
6
CONTINUOUS
62
7
10
115.00000000053876
20
174.99999999851835
0
VERTEX
8
Layer_1
6
CONTINUOUS
62
7
10
115.00000000013472
20
171.99999999851835
0
VERTEX
8
Layer_1
6
CONTINUOUS
62
7
10
112.00000000013472
20
171.99999999892242
0
VERTEX
8
Layer_1
6
CONTINUOUS
62
7
10
112.00000000053876
20
174.99999999892242
0
VERTEX
8
Layer_1
6
CONTINUOUS
62
7
10
115.00000000053876
20
174.99999999851835
0
SEQEND
0
CIRCLE
8
Layer_1
6
CONTINUOUS
62
7
10
114.00000000161629
20
182.99999999865307
40
2.1200000000000045
0
CIRCLE
8
Layer_1
6
CONTINUOUS
62
7
10
114.00000000094286
20
177.99999999865307
40
1.5
0
POLYLINE
8
Layer_1
6
CONTINUOUS
62
7
66
1
10
0
20
0
70
128
40
0
41
0
0
VERTEX
8
Layer_1
6
CONTINUOUS
62
7
10
117.00000000161629
20
182.999999998249
0
VERTEX
8
Layer_1
6
CONTINUOUS
62
7
10
117
20
170.999999998249
0
VERTEX
8
Layer_1
6
CONTINUOUS
62
7
10
111
20
170.99999999905714
0
VERTEX
8
Layer_1
6
CONTINUOUS
62
7
10
111.00000000202033
20
185.99999999905714
0
SEQEND
0
ARC
8
Layer_1
6
CONTINUOUS
62
7
10
114.000000001751
20
183.99999999865307
40
3
50
0
51
90
0
LINE
8
Layer_1
6
CONTINUOUS
62
7
10
111.00000000202033
20
185.99999999905714
11
111.00000000215505
21
186.99999999905714
0
LINE
8
Layer_1
6
CONTINUOUS
62
7
10
111.00000000215505
20
186.99999999905714
11
114.00000000215505
21
186.99999999865307
0
LINE
8
Layer_1
6
CONTINUOUS
62
7
10
117.000000001751
20
183.999999998249
11
117.00000000161629
21
182.999999998249
0
POLYLINE
8
Layer_1
6
CONTINUOUS
62
7
66
1
10
0
20
0
70
129
40
0
41
0
0
VERTEX
8
Layer_1
6
CONTINUOUS
62
7
10
121.99999999878776
20
174.99999999946129
0
VERTEX
8
Layer_1
6
CONTINUOUS
62
7
10
121.99999999838371
20
171.99999999946129
0
VERTEX
8
Layer_1
6
CONTINUOUS
62
7
10
118.99999999838371
20
171.99999999986534
0
VERTEX
8
Layer_1
6
CONTINUOUS
62
7
10
118.99999999878776
20
174.99999999986534
0
VERTEX
8
Layer_1
6
CONTINUOUS
62
7
10
121.99999999878776
20
174.99999999946129
0
SEQEND
0
CIRCLE
8
Layer_1
6
CONTINUOUS
62
7
10
120.99999999986528
20
182.99999999959593
40
2.1200000000000045
0
CIRCLE
8
Layer_1
6
CONTINUOUS
62
7
10
120.99999999919191
20
177.99999999959593
40
1.5
0
POLYLINE
8
Layer_1
6
CONTINUOUS
62
7
66
1
10
0
20
0
70
128
40
0
41
0
0
VERTEX
8
Layer_1
6
CONTINUOUS
62
7
10
123.99999999986528
20
182.99999999919186
0
VERTEX
8
Layer_1
6
CONTINUOUS
62
7
10
123.999999998249
20
170.99999999919186
0
VERTEX
8
Layer_1
6
CONTINUOUS
62
7
10
117.999999998249
20
171
0
VERTEX
8
Layer_1
6
CONTINUOUS
62
7
10
118.00000000026932
20
186
0
SEQEND
0
ARC
8
Layer_1
6
CONTINUOUS
62
7
10
121
20
183.99999999959593
40
3
50
0
51
90
0
LINE
8
Layer_1
6
CONTINUOUS
62
7
10
118.00000000026932
20
186
11
118.00000000040404
21
187
0
LINE
8
Layer_1
6
CONTINUOUS
62
7
10
118.00000000040404
20
187
11
121.00000000040404
21
186.99999999959593
0
LINE
8
Layer_1
6
CONTINUOUS
62
7
10
124
20
183.99999999919186
11
123.99999999986528
21
182.99999999919186
0
POLYLINE
8
Layer_1
6
CONTINUOUS
62
7
66
1
10
0
20
0
70
129
40
0
41
0
0
VERTEX
8
Layer_1
6
CONTINUOUS
62
7
10
107.99999999878776
20
174.99999999946121
0
VERTEX
8
Layer_1
6
CONTINUOUS
62
7
10
107.99999999838371
20
171.99999999946121
0
VERTEX
8
Layer_1
6
CONTINUOUS
62
7
10
104.99999999838371
20
171.99999999986528
0
VERTEX
8
Layer_1
6
CONTINUOUS
62
7
10
104.99999999878776
20
174.99999999986528
0
VERTEX
8
Layer_1
6
CONTINUOUS
62
7
10
107.99999999878776
20
174.99999999946121
0
SEQEND
0
CIRCLE
8
Layer_1
6
CONTINUOUS
62
7
10
106.99999999986528
20
182.99999999959593
40
2.1200000000000045
0
CIRCLE
8
Layer_1
6
CONTINUOUS
62
7
10
106.99999999919191
20
177.99999999959593
40
1.5
0
POLYLINE
8
Layer_1
6
CONTINUOUS
62
7
66
1
10
0
20
0
70
128
40
0
41
0
0
VERTEX
8
Layer_1
6
CONTINUOUS
62
7
10
109.99999999986528
20
182.99999999919186
0
VERTEX
8
Layer_1
6
CONTINUOUS
62
7
10
109.999999998249
20
170.99999999919186
0
VERTEX
8
Layer_1
6
CONTINUOUS
62
7
10
103.999999998249
20
171
0
VERTEX
8
Layer_1
6
CONTINUOUS
62
7
10
104.00000000026932
20
186
0
SEQEND
0
ARC
8
Layer_1
6
CONTINUOUS
62
7
10
107
20
183.99999999959593
40
3
50
0
51
90
0
LINE
8
Layer_1
6
CONTINUOUS
62
7
10
104.00000000026932
20
186
11
104.00000000040404
21
187
0
LINE
8
Layer_1
6
CONTINUOUS
62
7
10
104.00000000040404
20
187
11
107.00000000040404
21
186.99999999959593
0
LINE
8
Layer_1
6
CONTINUOUS
62
7
10
110
20
183.99999999919186
11
109.99999999986528
21
182.99999999919186
0
LINE
8
Layer_1
6
CONTINUOUS
62
7
10
215
20
205
11
215
21
204
0
LINE
8
Layer_1
6
CONTINUOUS
62
7
10
215
20
204
11
217
21
204
0
LINE
8
Layer_1
6
CONTINUOUS
62
7
10
217
20
204
11
217
21
207
0
LINE
8
Layer_1
6
CONTINUOUS
62
7
10
217
20
207
11
220
21
207
0
LINE
8
Layer_1
6
CONTINUOUS
62
7
10
220
20
207
11
220
21
198
0
LINE
8
Layer_1
6
CONTINUOUS
62
7
10
220
20
198
11
217
21
198
0
LINE
8
Layer_1
6
CONTINUOUS
62
7
10
217
20
198
11
217
21
201
0
LINE
8
Layer_1
6
CONTINUOUS
62
7
10
217
20
201
11
215
21
201
0
LINE
8
Layer_1
6
CONTINUOUS
62
7
10
215
20
201
11
215
21
200
0
LINE
8
Layer_1
6
CONTINUOUS
62
7
10
141.17157287525382
20
205
11
136
21
205
0
LINE
8
Layer_1
6
CONTINUOUS
62
7
10
199.17157287525384
20
205.00000000000003
11
146.82842712474618
21
205
0
LINE
8
Layer_1
6
CONTINUOUS
62
7
10
215
20
205
11
204.82842712474618
21
205.00000000000003
0
LINE
8
Layer_1
6
CONTINUOUS
62
7
10
138
20
200
11
141
21
200
0
LINE
8
Layer_1
6
CONTINUOUS
62
7
10
205
20
200
11
215
21
200
0
POLYLINE
8
Layer_1
6
CONTINUOUS
62
7
66
1
10
0
20
0
70
128
40
0
41
0
0
VERTEX
8
Layer_1
6
CONTINUOUS
62
7
10
138
20
200
0
VERTEX
8
Layer_1
6
CONTINUOUS
62
7
10
135.81063781098487
20
200.02176924531528
0
VERTEX
8
Layer_1
6
CONTINUOUS
62
7
10
133.61804782767683
20
200.08127184917697
0
VERTEX
8
Layer_1
6
CONTINUOUS
62
7
10
131.42297492568196
20
200.16980011345902
0
VERTEX
8
Layer_1
6
CONTINUOUS
62
7
10
129.22616398060629
20
200.27864634003532
0
VERTEX
8
Layer_1
6
CONTINUOUS
62
7
10
124.83030746363679
20
200.52246188756624
0
VERTEX
8
Layer_1
6
CONTINUOUS
62
7
10
122.63275164295507
20
200.64001581226864
0
VERTEX
8
Layer_1
6
CONTINUOUS
62
7
10
120.43643728161678
20
200.7430569067609
0
VERTEX
8
Layer_1
6
CONTINUOUS
62
7
10
118.24210925522794
20
200.82287747291684
0
VERTEX
8
Layer_1
6
CONTINUOUS
62
7
10
116.05051243939465
20
200.8707698126104
0
VERTEX
8
Layer_1
6
CONTINUOUS
62
7
10
113.86239170972294
20
200.87802622771548
0
VERTEX
8
Layer_1
6
CONTINUOUS
62
7
10
111.67849194181886
20
200.835939020106
0
VERTEX
8
Layer_1
6
CONTINUOUS
62
7
10
110.58835769215659
20
200.79367040211886
0
VERTEX
8
Layer_1
6
CONTINUOUS
62
7
10
109.49955801128849
20
200.73580049165579
0
VERTEX
8
Layer_1
6
CONTINUOUS
62
7
10
108.41218600866532
20
200.66124082645103
0
VERTEX
8
Layer_1
6
CONTINUOUS
62
7
10
107.32633479373784
20
200.5689029442388
0
VERTEX
8
Layer_1
6
CONTINUOUS
62
7
10
106.24209747595683
20
200.45769838275334
0
VERTEX
8
Layer_1
6
CONTINUOUS
62
7
10
105.15956716477301
20
200.32653867972891
0
VERTEX
8
Layer_1
6
CONTINUOUS
62
7
10
104.07883696963714
20
200.17433537289969
0
VERTEX
8
Layer_1
6
CONTINUOUS
62
7
10
103
20
200
0
VERTEX
8
Layer_1
6
CONTINUOUS
62
7
10
101.30619005107395
20
199.692028113622
0
VERTEX
8
Layer_1
6
CONTINUOUS
62
7
10
99.614942099050509
20
199.35196816633396
0
VERTEX
8
Layer_1
6
CONTINUOUS
62
7
10
97.927673143134129
20
198.97942393937026
0
VERTEX
8
Layer_1
6
CONTINUOUS
62
7
10
96.245800182529265
20
198.57399921396529
0
VERTEX
8
Layer_1
6
CONTINUOUS
62
7
10
94.570740216440413
20
198.13529777135341
0
VERTEX
8
Layer_1
6
CONTINUOUS
62
7
10
92.90391024407208
20
197.66292339276902
0
VERTEX
8
Layer_1
6
CONTINUOUS
62
7
10
91.246727264628703
20
197.15647985944645
0
VERTEX
8
Layer_1
6
CONTINUOUS
62
7
10
89.600608277314748
20
196.61557095262015
0
VERTEX
8
Layer_1
6
CONTINUOUS
62
7
10
87.966970281334696
20
196.03980045352444
0
VERTEX
8
Layer_1
6
CONTINUOUS
62
7
10
86.347230275893068
20
195.42877214339376
0
VERTEX
8
Layer_1
6
CONTINUOUS
62
7
10
84.742805260194288
20
194.78208980346244
0
VERTEX
8
Layer_1
6
CONTINUOUS
62
7
10
83.15511223344285
20
194.09935721496493
0
VERTEX
8
Layer_1
6
CONTINUOUS
62
7
10
81.585568194843219
20
193.38017815913554
0
VERTEX
8
Layer_1
6
CONTINUOUS
62
7
10
80.03559014359989
20
192.62415641720867
0
VERTEX
8
Layer_1
6
CONTINUOUS
62
7
10
78.506595078917314
20
191.83089577041869
0
VERTEX
8
Layer_1
6
CONTINUOUS
62
7
10
77
20
191
0
VERTEX
8
Layer_1
6
CONTINUOUS
62
7
10
76.372310980782061
20
190.61132218606832
0
VERTEX
8
Layer_1
6
CONTINUOUS
62
7
10
75.761483951841484
20
190.17204995491068
0
VERTEX
8
Layer_1
6
CONTINUOUS
62
7
10
75.166253288468084
20
189.68672615350084
0
VERTEX
8
Layer_1
6
CONTINUOUS
62
7
10
74.585353365951661
20
189.15989362881254
0
VERTEX
8
Layer_1
6
CONTINUOUS
62
7
10
74.017518559581987
20
188.59609522781957
0
VERTEX
8
Layer_1
6
CONTINUOUS
62
7
10
73.461483244648889
20
187.99987379749572
0
VERTEX
8
Layer_1
6
CONTINUOUS
62
7
10
72.915981796442168
20
187.37577218481476
0
VERTEX
8
Layer_1
6
CONTINUOUS
62
7
10
72.37974859025158
20
186.72833323675047
0
VERTEX
8
Layer_1
6
CONTINUOUS
62
7
10
71.851518001366969
20
186.0620998002766
0
VERTEX
8
Layer_1
6
CONTINUOUS
62
7
10
71.330024405078092
20
185.38161472236686
0
VERTEX
8
Layer_1
6
CONTINUOUS
62
7
10
70.302185691446809
20
183.99606103013505
0
VERTEX
8
Layer_1
6
CONTINUOUS
62
7
10
69.286107451676116
20
182.6080149358452
0
VERTEX
8
Layer_1
6
CONTINUOUS
62
7
10
68.271664688084414
20
181.25381921528748
0
VERTEX
8
Layer_1
6
CONTINUOUS
62
7
10
67.761892548080169
20
180.60077236259258
0
VERTEX
8
Layer_1
6
CONTINUOUS
62
7
10
67.248732402990072
20
179.96981664425201
0
VERTEX
8
Layer_1
6
CONTINUOUS
62
7
10
66.730918628103893
20
179.36549490723954
0
VERTEX
8
Layer_1
6
CONTINUOUS
62
7
10
66.207185598711462
20
178.79234999852898
0
VERTEX
8
Layer_1
6
CONTINUOUS
62
7
10
65.676267690102563
20
178.25492476509405
0
VERTEX
8
Layer_1
6
CONTINUOUS
62
7
10
65.136899277566982
20
177.75776205390852
0
VERTEX
8
Layer_1
6
CONTINUOUS
62
7
10
64.587814736394535
20
177.30540471194618
0
VERTEX
8
Layer_1
6
CONTINUOUS
62
7
10
64.027748441875033
20
176.90239558618077
0
VERTEX
8
Layer_1
6
CONTINUOUS
62
7
10
63.455434769298243
20
176.55327752358608
0
VERTEX
8
Layer_1
6
CONTINUOUS
62
7
10
63.164289658516431
20
176.40034728065706
0
VERTEX
8
Layer_1
6
CONTINUOUS
62
7
10
62.869608093953971
20
176.26259337113589
0
VERTEX
8
Layer_1
6
CONTINUOUS
62
7
10
62.571231872522098
20
176.14058365089429
0
VERTEX
8
Layer_1
6
CONTINUOUS
62
7
10
62.269002791132024
20
176.03488597580395
0
VERTEX
8
Layer_1
6
CONTINUOUS
62
7
10
61.962762646694983
20
175.94606820173664
0
VERTEX
8
Layer_1
6
CONTINUOUS
62
7
10
61.652353236122195
20
175.87469818456404
0
VERTEX
8
Layer_1
6
CONTINUOUS
62
7
10
61.337616356324887
20
175.82134378015792
0
VERTEX
8
Layer_1
6
CONTINUOUS
62
7
10
61.018393804214284
20
175.78657284438992
0
VERTEX
8
Layer_1
6
CONTINUOUS
62
7
10
60.6945273767016
20
175.77095323313185
0
VERTEX
8
Layer_1
6
CONTINUOUS
62
7
10
60.365858870698077
20
175.77505280225535
0
VERTEX
8
Layer_1
6
CONTINUOUS
62
7
10
60.032230083114925
20
175.79943940763221
0
VERTEX
8
Layer_1
6
CONTINUOUS
62
7
10
59.693482810863379
20
175.84468090513411
0
VERTEX
8
Layer_1
6
CONTINUOUS
62
7
10
59.34945885085466
20
175.91134515063283
0
VERTEX
8
Layer_1
6
CONTINUOUS
62
7
10
59
20
176
0
VERTEX
8
Layer_1
6
CONTINUOUS
62
7
10
58.699471204043462
20
176.10169651047545
0
VERTEX
8
Layer_1
6
CONTINUOUS
62
7
10
58.401047732987351
20
176.23469712296082
0
VERTEX
8
Layer_1
6
CONTINUOUS
62
7
10
58.107507839951751
20
176.39653105815469
0
VERTEX
8
Layer_1
6
CONTINUOUS
62
7
10
57.82162977805676
20
176.58472753675568
0
VERTEX
8
Layer_1
6
CONTINUOUS
62
7
10
57.546191800422491
20
176.79681577946229
0
VERTEX
8
Layer_1
6
CONTINUOUS
62
7
10
57.283972160169029
20
177.03032500697316
0
VERTEX
8
Layer_1
6
CONTINUOUS
62
7
10
57.03774911041647
20
177.28278443998681
0
VERTEX
8
Layer_1
6
CONTINUOUS
62
7
10
56.810300904284901
20
177.5517232992018
0
VERTEX
8
Layer_1
6
CONTINUOUS
62
7
10
56.604405794894433
20
177.83467080531676
0
VERTEX
8
Layer_1
6
CONTINUOUS
62
7
10
56.422842035365164
20
178.12915617903025
0
VERTEX
8
Layer_1
6
CONTINUOUS
62
7
10
56.26838787881718
20
178.43270864104079
0
VERTEX
8
Layer_1
6
CONTINUOUS
62
7
10
56.143821578370591
20
178.74285741204699
0
VERTEX
8
Layer_1
6
CONTINUOUS
62
7
10
56.051921387145477
20
179.05713171274746
0
VERTEX
8
Layer_1
6
CONTINUOUS
62
7
10
55.995465558261941
20
179.37306076384073
0
VERTEX
8
Layer_1
6
CONTINUOUS
62
7
10
55.97723234484009
20
179.6881737860254
0
VERTEX
8
Layer_1
6
CONTINUOUS
62
7
10
56
20
180
0
VERTEX
8
Layer_1
6
CONTINUOUS
62
7
10
56.069369253115809
20
180.29427299133928
0
VERTEX
8
Layer_1
6
CONTINUOUS
62
7
10
56.185805407440071
20
180.5603655383207
0
VERTEX
8
Layer_1
6
CONTINUOUS
62
7
10
56.344383576910531
20
180.80126565069693
0
VERTEX
8
Layer_1
6
CONTINUOUS
62
7
10
56.540178875464903
20
181.01996133822072
0
VERTEX
8
Layer_1
6
CONTINUOUS
62
7
10
56.768266417040948
20
181.21944061064477
0
VERTEX
8
Layer_1
6
CONTINUOUS
62
7
10
57.023721315576388
20
181.40269147772173
0
VERTEX
8
Layer_1
6
CONTINUOUS
62
7
10
57.301618685008968
20
181.5727019492044
0
VERTEX
8
Layer_1
6
CONTINUOUS
62
7
10
57.597033639276418
20
181.73246003484542
0
VERTEX
8
Layer_1
6
CONTINUOUS
62
7
10
58.220716758066899
20
182.03317108761343
0
VERTEX
8
Layer_1
6
CONTINUOUS
62
7
10
58.855371583449724
20
182.32872871404743
0
VERTEX
8
Layer_1
6
CONTINUOUS
62
7
10
59.461599026926791
20
182.64303699216907
0
VERTEX
8
Layer_1
6
CONTINUOUS
62
7
10
59.741740265295007
20
182.81469264999453
0
VERTEX
8
Layer_1
6
CONTINUOUS
62
7
10
60
20
183
0
VERTEX
8
Layer_1
6
CONTINUOUS
62
7
10
60.760410067454366
20
183.61297042681264
0
VERTEX
8
Layer_1
6
CONTINUOUS
62
7
10
61.508203218693708
20
184.24296850681139
0
VERTEX
8
Layer_1
6
CONTINUOUS
62
7
10
62.975563550145424
20
185.54082730342918
0
VERTEX
8
Layer_1
6
CONTINUOUS
62
7
10
65.864753772267605
20
188.19545318257886
0
VERTEX
8
Layer_1
6
CONTINUOUS
62
7
10
67.325082773410429
20
189.49933897335831
0
VERTEX
8
Layer_1
6
CONTINUOUS
62
7
10
68.067602426918114
20
190.13385729897828
0
VERTEX
8
Layer_1
6
CONTINUOUS
62
7
10
68.821567108255991
20
190.75235247043912
0
VERTEX
8
Layer_1
6
CONTINUOUS
62
7
10
69.589383011828588
20
191.35151940700621
0
VERTEX
8
Layer_1
6
CONTINUOUS
62
7
10
70.373456332040448
20
191.92805302794508
0
VERTEX
8
Layer_1
6
CONTINUOUS
62
7
10
71.176193263296085
20
192.4786482525212
0
VERTEX
8
Layer_1
6
CONTINUOUS
62
7
10
72
20
193
0
VERTEX
8
Layer_1
6
CONTINUOUS
62
7
10
73.790509346700318
20
194.05814397352782
0
VERTEX
8
Layer_1
6
CONTINUOUS
62
7
10
75.606680168448705
20
195.07988100992577
0
VERTEX
8
Layer_1
6
CONTINUOUS
62
7
10
77.447213310686266
20
196.06420848219227
0
VERTEX
8
Layer_1
6
CONTINUOUS
62
7
10
79.310809618854123
20
197.01012376332582
0
VERTEX
8
Layer_1
6
CONTINUOUS
62
7
10
81.19616993839341
20
197.91662422632487
0
VERTEX
8
Layer_1
6
CONTINUOUS
62
7
10
83.101995114745222
20
198.78270724418792
0
VERTEX
8
Layer_1
6
CONTINUOUS
62
7
10
85.026985993350706
20
199.60737018991341
0
VERTEX
8
Layer_1
6
CONTINUOUS
62
7
10
86.969843419650985
20
200.38961043649982
0
VERTEX
8
Layer_1
6
CONTINUOUS
62
7
10
88.929268239087179
20
201.12842535694563
0
VERTEX
8
Layer_1
6
CONTINUOUS
62
7
10
90.903961297100381
20
201.82281232424924
0
VERTEX
8
Layer_1
6
CONTINUOUS
62
7
10
92.892623439131725
20
202.4717687114092
0
VERTEX
8
Layer_1
6
CONTINUOUS
62
7
10
94.893955510622362
20
203.07429189142391
0
VERTEX
8
Layer_1
6
CONTINUOUS
62
7
10
96.906658357013356
20
203.62937923729189
0
VERTEX
8
Layer_1
6
CONTINUOUS
62
7
10
98.929432823745913
20
204.13602812201157
0
VERTEX
8
Layer_1
6
CONTINUOUS
62
7
10
100.96097975626108
20
204.59323591858146
0
VERTEX
8
Layer_1
6
CONTINUOUS
62
7
10
103
20
205
0
VERTEX
8
Layer_1
6
CONTINUOUS
62
7
10
104.01481909490667
20
205.17757763155163
0
VERTEX
8
Layer_1
6
CONTINUOUS
62
7
10
105.03172411116753
20
205.33261158875433
0
VERTEX
8
Layer_1
6
CONTINUOUS
62
7
10
106.05061246248651
20
205.46621057690396
0
VERTEX
8
Layer_1
6
CONTINUOUS
62
7
10
107.07138156256747
20
205.57948330129645
0
VERTEX
8
Layer_1
6
CONTINUOUS
62
7
10
108.09392882511429
20
205.67353846722756
0
VERTEX
8
Layer_1
6
CONTINUOUS
62
7
10
109.11815166383087
20
205.74948477999311
0
VERTEX
8
Layer_1
6
CONTINUOUS
62
7
10
110.14394749242112
20
205.80843094488898
0
VERTEX
8
Layer_1
6
CONTINUOUS
62
7
10
111.17121372458891
20
205.85148566721108
0
VERTEX
8
Layer_1
6
CONTINUOUS
62
7
10
113.22974705447274
20
205.89435560531717
0
VERTEX
8
Layer_1
6
CONTINUOUS
62
7
10
115.29293096311346
20
205.88696423667818
0
VERTEX
8
Layer_1
6
CONTINUOUS
62
7
10
117.35994476014221
20
205.83818120366092
0
VERTEX
8
Layer_1
6
CONTINUOUS
62
7
10
119.42996775519015
20
205.75687614863207
0
VERTEX
8
Layer_1
6
CONTINUOUS
62
7
10
121.50217925788837
20
205.65191871395848
0
VERTEX
8
Layer_1
6
CONTINUOUS
62
7
10
123.57575857786807
20
205.53217854200693
0
VERTEX
8
Layer_1
6
CONTINUOUS
62
7
10
127.72373790819631
20
205.28382855573705
0
VERTEX
8
Layer_1
6
CONTINUOUS
62
7
10
129.79649653780717
20
205.17295802615226
0
VERTEX
8
Layer_1
6
CONTINUOUS
62
7
10
131.86734022322395
20
205.08278332875665
0
VERTEX
8
Layer_1
6
CONTINUOUS
62
7
10
133.93544827407786
20
205.02217410591697
0
VERTEX
8
Layer_1
6
CONTINUOUS
62
7
10
136
20
205
0
SEQEND
0
LINE
8
Layer_1
6
CONTINUOUS
62
7
10
204.97719261027714
20
200
11
140.97719261027714
21
200
0
CIRCLE
8
Layer_1
6
CONTINUOUS
62
7
10
202
20
206
40
1.3799999999999955
0
CIRCLE
8
Layer_1
6
CONTINUOUS
62
7
10
144
20
206
40
1.3799999999999955
0
ARC
8
Layer_1
6
CONTINUOUS
62
7
10
144
20
206
40
2.9999999999999947
50
340.5287793649527
51
199.47122062990252
0
ARC
8
Layer_1
6
CONTINUOUS
62
7
10
202
20
206
40
2.9999999999999853
50
340.52877936495321
51
199.47122062990218
0
LINE
8
Layer_1
6
CONTINUOUS
62
7
10
215
20
195
11
215
21
194
0
LINE
8
Layer_1
6
CONTINUOUS
62
7
10
215
20
194
11
217
21
194
0
LINE
8
Layer_1
6
CONTINUOUS
62
7
10
217
20
194
11
217
21
197
0
LINE
8
Layer_1
6
CONTINUOUS
62
7
10
217
20
197
11
220
21
197
0
LINE
8
Layer_1
6
CONTINUOUS
62
7
10
220
20
197
11
220
21
188
0
LINE
8
Layer_1
6
CONTINUOUS
62
7
10
220
20
188
11
217
21
188
0
LINE
8
Layer_1
6
CONTINUOUS
62
7
10
217
20
188
11
217
21
191
0
LINE
8
Layer_1
6
CONTINUOUS
62
7
10
217
20
191
11
215
21
191
0
LINE
8
Layer_1
6
CONTINUOUS
62
7
10
215
20
191
11
215
21
190
0
LINE
8
Layer_1
6
CONTINUOUS
62
7
10
215
20
195
11
136
21
195
0
LINE
8
Layer_1
6
CONTINUOUS
62
7
10
138
20
190
11
141
21
190
0
LINE
8
Layer_1
6
CONTINUOUS
62
7
10
205
20
190
11
215
21
190
0
POLYLINE
8
Layer_1
6
CONTINUOUS
62
7
66
1
10
0
20
0
70
128
40
0
41
0
0
VERTEX
8
Layer_1
6
CONTINUOUS
62
7
10
138
20
190
0
VERTEX
8
Layer_1
6
CONTINUOUS
62
7
10
135.81063781098487
20
190.02176924531528
0
VERTEX
8
Layer_1
6
CONTINUOUS
62
7
10
133.61804782767683
20
190.08127184917697
0
VERTEX
8
Layer_1
6
CONTINUOUS
62
7
10
131.42297492568196
20
190.16980011345902
0
VERTEX
8
Layer_1
6
CONTINUOUS
62
7
10
129.22616398060629
20
190.27864634003532
0
VERTEX
8
Layer_1
6
CONTINUOUS
62
7
10
124.83030746363679
20
190.52246188756624
0
VERTEX
8
Layer_1
6
CONTINUOUS
62
7
10
122.63275164295507
20
190.64001581226864
0
VERTEX
8
Layer_1
6
CONTINUOUS
62
7
10
120.43643728161678
20
190.7430569067609
0
VERTEX
8
Layer_1
6
CONTINUOUS
62
7
10
118.24210925522794
20
190.82287747291684
0
VERTEX
8
Layer_1
6
CONTINUOUS
62
7
10
116.05051243939465
20
190.8707698126104
0
VERTEX
8
Layer_1
6
CONTINUOUS
62
7
10
113.86239170972294
20
190.87802622771548
0
VERTEX
8
Layer_1
6
CONTINUOUS
62
7
10
111.67849194181886
20
190.835939020106
0
VERTEX
8
Layer_1
6
CONTINUOUS
62
7
10
110.58835769215659
20
190.79367040211886
0
VERTEX
8
Layer_1
6
CONTINUOUS
62
7
10
109.49955801128849
20
190.73580049165579
0
VERTEX
8
Layer_1
6
CONTINUOUS
62
7
10
108.41218600866532
20
190.66124082645103
0
VERTEX
8
Layer_1
6
CONTINUOUS
62
7
10
107.32633479373784
20
190.5689029442388
0
VERTEX
8
Layer_1
6
CONTINUOUS
62
7
10
106.24209747595683
20
190.45769838275334
0
VERTEX
8
Layer_1
6
CONTINUOUS
62
7
10
105.15956716477301
20
190.32653867972891
0
VERTEX
8
Layer_1
6
CONTINUOUS
62
7
10
104.07883696963714
20
190.17433537289969
0
VERTEX
8
Layer_1
6
CONTINUOUS
62
7
10
103
20
190
0
VERTEX
8
Layer_1
6
CONTINUOUS
62
7
10
101.30619005107395
20
189.692028113622
0
VERTEX
8
Layer_1
6
CONTINUOUS
62
7
10
99.614942099050509
20
189.35196816633396
0
VERTEX
8
Layer_1
6
CONTINUOUS
62
7
10
97.927673143134129
20
188.97942393937026
0
VERTEX
8
Layer_1
6
CONTINUOUS
62
7
10
96.245800182529265
20
188.57399921396529
0
VERTEX
8
Layer_1
6
CONTINUOUS
62
7
10
94.570740216440413
20
188.13529777135341
0
VERTEX
8
Layer_1
6
CONTINUOUS
62
7
10
92.90391024407208
20
187.66292339276902
0
VERTEX
8
Layer_1
6
CONTINUOUS
62
7
10
91.246727264628703
20
187.15647985944645
0
VERTEX
8
Layer_1
6
CONTINUOUS
62
7
10
89.600608277314748
20
186.61557095262015
0
VERTEX
8
Layer_1
6
CONTINUOUS
62
7
10
87.966970281334696
20
186.03980045352444
0
VERTEX
8
Layer_1
6
CONTINUOUS
62
7
10
86.347230275893068
20
185.42877214339376
0
VERTEX
8
Layer_1
6
CONTINUOUS
62
7
10
84.742805260194288
20
184.78208980346244
0
VERTEX
8
Layer_1
6
CONTINUOUS
62
7
10
83.15511223344285
20
184.09935721496493
0
VERTEX
8
Layer_1
6
CONTINUOUS
62
7
10
81.585568194843219
20
183.38017815913554
0
VERTEX
8
Layer_1
6
CONTINUOUS
62
7
10
80.03559014359989
20
182.62415641720867
0
VERTEX
8
Layer_1
6
CONTINUOUS
62
7
10
78.506595078917314
20
181.83089577041869
0
VERTEX
8
Layer_1
6
CONTINUOUS
62
7
10
77
20
181
0
VERTEX
8
Layer_1
6
CONTINUOUS
62
7
10
76.372310980782061
20
180.61132218606832
0
VERTEX
8
Layer_1
6
CONTINUOUS
62
7
10
75.761483951841484
20
180.17204995491068
0
VERTEX
8
Layer_1
6
CONTINUOUS
62
7
10
75.166253288468084
20
179.68672615350084
0
VERTEX
8
Layer_1
6
CONTINUOUS
62
7
10
74.585353365951661
20
179.15989362881254
0
VERTEX
8
Layer_1
6
CONTINUOUS
62
7
10
74.017518559581987
20
178.59609522781957
0
VERTEX
8
Layer_1
6
CONTINUOUS
62
7
10
73.461483244648889
20
177.99987379749572
0
VERTEX
8
Layer_1
6
CONTINUOUS
62
7
10
72.915981796442168
20
177.37577218481476
0
VERTEX
8
Layer_1
6
CONTINUOUS
62
7
10
72.37974859025158
20
176.72833323675047
0
VERTEX
8
Layer_1
6
CONTINUOUS
62
7
10
71.851518001366969
20
176.0620998002766
0
VERTEX
8
Layer_1
6
CONTINUOUS
62
7
10
71.330024405078092
20
175.38161472236686
0
VERTEX
8
Layer_1
6
CONTINUOUS
62
7
10
70.302185691446809
20
173.99606103013505
0
VERTEX
8
Layer_1
6
CONTINUOUS
62
7
10
69.286107451676116
20
172.6080149358452
0
VERTEX
8
Layer_1
6
CONTINUOUS
62
7
10
68.271664688084414
20
171.25381921528748
0
VERTEX
8
Layer_1
6
CONTINUOUS
62
7
10
67.761892548080169
20
170.60077236259258
0
VERTEX
8
Layer_1
6
CONTINUOUS
62
7
10
67.248732402990072
20
169.96981664425201
0
VERTEX
8
Layer_1
6
CONTINUOUS
62
7
10
66.730918628103893
20
169.36549490723954
0
VERTEX
8
Layer_1
6
CONTINUOUS
62
7
10
66.207185598711462
20
168.79234999852898
0
VERTEX
8
Layer_1
6
CONTINUOUS
62
7
10
65.676267690102563
20
168.25492476509405
0
VERTEX
8
Layer_1
6
CONTINUOUS
62
7
10
65.136899277566982
20
167.75776205390852
0
VERTEX
8
Layer_1
6
CONTINUOUS
62
7
10
64.587814736394535
20
167.30540471194618
0
VERTEX
8
Layer_1
6
CONTINUOUS
62
7
10
64.027748441875033
20
166.90239558618077
0
VERTEX
8
Layer_1
6
CONTINUOUS
62
7
10
63.455434769298243
20
166.55327752358608
0
VERTEX
8
Layer_1
6
CONTINUOUS
62
7
10
63.164289658516431
20
166.40034728065706
0
VERTEX
8
Layer_1
6
CONTINUOUS
62
7
10
62.869608093953971
20
166.26259337113589
0
VERTEX
8
Layer_1
6
CONTINUOUS
62
7
10
62.571231872522098
20
166.14058365089429
0
VERTEX
8
Layer_1
6
CONTINUOUS
62
7
10
62.269002791132024
20
166.03488597580395
0
VERTEX
8
Layer_1
6
CONTINUOUS
62
7
10
61.962762646694983
20
165.94606820173664
0
VERTEX
8
Layer_1
6
CONTINUOUS
62
7
10
61.652353236122195
20
165.87469818456404
0
VERTEX
8
Layer_1
6
CONTINUOUS
62
7
10
61.337616356324887
20
165.82134378015792
0
VERTEX
8
Layer_1
6
CONTINUOUS
62
7
10
61.018393804214284
20
165.78657284438992
0
VERTEX
8
Layer_1
6
CONTINUOUS
62
7
10
60.6945273767016
20
165.77095323313185
0
VERTEX
8
Layer_1
6
CONTINUOUS
62
7
10
60.365858870698077
20
165.77505280225535
0
VERTEX
8
Layer_1
6
CONTINUOUS
62
7
10
60.032230083114925
20
165.79943940763221
0
VERTEX
8
Layer_1
6
CONTINUOUS
62
7
10
59.693482810863379
20
165.84468090513411
0
VERTEX
8
Layer_1
6
CONTINUOUS
62
7
10
59.34945885085466
20
165.91134515063283
0
VERTEX
8
Layer_1
6
CONTINUOUS
62
7
10
59
20
166
0
VERTEX
8
Layer_1
6
CONTINUOUS
62
7
10
58.699471204043462
20
166.10169651047545
0
VERTEX
8
Layer_1
6
CONTINUOUS
62
7
10
58.401047732987351
20
166.23469712296082
0
VERTEX
8
Layer_1
6
CONTINUOUS
62
7
10
58.107507839951751
20
166.39653105815469
0
VERTEX
8
Layer_1
6
CONTINUOUS
62
7
10
57.82162977805676
20
166.58472753675568
0
VERTEX
8
Layer_1
6
CONTINUOUS
62
7
10
57.546191800422491
20
166.79681577946229
0
VERTEX
8
Layer_1
6
CONTINUOUS
62
7
10
57.283972160169029
20
167.03032500697316
0
VERTEX
8
Layer_1
6
CONTINUOUS
62
7
10
57.03774911041647
20
167.28278443998681
0
VERTEX
8
Layer_1
6
CONTINUOUS
62
7
10
56.810300904284901
20
167.5517232992018
0
VERTEX
8
Layer_1
6
CONTINUOUS
62
7
10
56.604405794894433
20
167.83467080531676
0
VERTEX
8
Layer_1
6
CONTINUOUS
62
7
10
56.422842035365164
20
168.12915617903025
0
VERTEX
8
Layer_1
6
CONTINUOUS
62
7
10
56.26838787881718
20
168.43270864104079
0
VERTEX
8
Layer_1
6
CONTINUOUS
62
7
10
56.143821578370591
20
168.74285741204699
0
VERTEX
8
Layer_1
6
CONTINUOUS
62
7
10
56.051921387145477
20
169.05713171274746
0
VERTEX
8
Layer_1
6
CONTINUOUS
62
7
10
55.995465558261941
20
169.37306076384073
0
VERTEX
8
Layer_1
6
CONTINUOUS
62
7
10
55.97723234484009
20
169.6881737860254
0
VERTEX
8
Layer_1
6
CONTINUOUS
62
7
10
56
20
170
0
VERTEX
8
Layer_1
6
CONTINUOUS
62
7
10
56.069369253115809
20
170.29427299133928
0
VERTEX
8
Layer_1
6
CONTINUOUS
62
7
10
56.185805407440071
20
170.5603655383207
0
VERTEX
8
Layer_1
6
CONTINUOUS
62
7
10
56.344383576910531
20
170.80126565069693
0
VERTEX
8
Layer_1
6
CONTINUOUS
62
7
10
56.540178875464903
20
171.01996133822072
0
VERTEX
8
Layer_1
6
CONTINUOUS
62
7
10
56.768266417040948
20
171.21944061064477
0
VERTEX
8
Layer_1
6
CONTINUOUS
62
7
10
57.023721315576388
20
171.40269147772173
0
VERTEX
8
Layer_1
6
CONTINUOUS
62
7
10
57.301618685008968
20
171.5727019492044
0
VERTEX
8
Layer_1
6
CONTINUOUS
62
7
10
57.597033639276418
20
171.73246003484542
0
VERTEX
8
Layer_1
6
CONTINUOUS
62
7
10
58.220716758066899
20
172.03317108761343
0
VERTEX
8
Layer_1
6
CONTINUOUS
62
7
10
58.855371583449724
20
172.32872871404743
0
VERTEX
8
Layer_1
6
CONTINUOUS
62
7
10
59.461599026926791
20
172.64303699216907
0
VERTEX
8
Layer_1
6
CONTINUOUS
62
7
10
59.741740265295007
20
172.81469264999453
0
VERTEX
8
Layer_1
6
CONTINUOUS
62
7
10
60
20
173
0
VERTEX
8
Layer_1
6
CONTINUOUS
62
7
10
60.760410067454366
20
173.61297042681264
0
VERTEX
8
Layer_1
6
CONTINUOUS
62
7
10
61.508203218693708
20
174.24296850681139
0
VERTEX
8
Layer_1
6
CONTINUOUS
62
7
10
62.975563550145424
20
175.54082730342918
0
VERTEX
8
Layer_1
6
CONTINUOUS
62
7
10
65.864753772267605
20
178.19545318257886
0
VERTEX
8
Layer_1
6
CONTINUOUS
62
7
10
67.325082773410429
20
179.49933897335831
0
VERTEX
8
Layer_1
6
CONTINUOUS
62
7
10
68.067602426918114
20
180.13385729897828
0
VERTEX
8
Layer_1
6
CONTINUOUS
62
7
10
68.821567108255991
20
180.75235247043912
0
VERTEX
8
Layer_1
6
CONTINUOUS
62
7
10
69.589383011828588
20
181.35151940700621
0
VERTEX
8
Layer_1
6
CONTINUOUS
62
7
10
70.373456332040448
20
181.92805302794508
0
VERTEX
8
Layer_1
6
CONTINUOUS
62
7
10
71.176193263296085
20
182.4786482525212
0
VERTEX
8
Layer_1
6
CONTINUOUS
62
7
10
72
20
183
0
VERTEX
8
Layer_1
6
CONTINUOUS
62
7
10
73.790509346700318
20
184.05814397352782
0
VERTEX
8
Layer_1
6
CONTINUOUS
62
7
10
75.606680168448705
20
185.07988100992577
0
VERTEX
8
Layer_1
6
CONTINUOUS
62
7
10
77.447213310686266
20
186.06420848219227
0
VERTEX
8
Layer_1
6
CONTINUOUS
62
7
10
79.310809618854123
20
187.01012376332582
0
VERTEX
8
Layer_1
6
CONTINUOUS
62
7
10
81.19616993839341
20
187.91662422632487
0
VERTEX
8
Layer_1
6
CONTINUOUS
62
7
10
83.101995114745222
20
188.78270724418792
0
VERTEX
8
Layer_1
6
CONTINUOUS
62
7
10
85.026985993350706
20
189.60737018991341
0
VERTEX
8
Layer_1
6
CONTINUOUS
62
7
10
86.969843419650985
20
190.38961043649982
0
VERTEX
8
Layer_1
6
CONTINUOUS
62
7
10
88.929268239087179
20
191.12842535694563
0
VERTEX
8
Layer_1
6
CONTINUOUS
62
7
10
90.903961297100381
20
191.82281232424924
0
VERTEX
8
Layer_1
6
CONTINUOUS
62
7
10
92.892623439131725
20
192.4717687114092
0
VERTEX
8
Layer_1
6
CONTINUOUS
62
7
10
94.893955510622362
20
193.07429189142391
0
VERTEX
8
Layer_1
6
CONTINUOUS
62
7
10
96.906658357013356
20
193.62937923729189
0
VERTEX
8
Layer_1
6
CONTINUOUS
62
7
10
98.929432823745913
20
194.13602812201157
0
VERTEX
8
Layer_1
6
CONTINUOUS
62
7
10
100.96097975626108
20
194.59323591858146
0
VERTEX
8
Layer_1
6
CONTINUOUS
62
7
10
103
20
195
0
VERTEX
8
Layer_1
6
CONTINUOUS
62
7
10
104.01481909490667
20
195.17757763155163
0
VERTEX
8
Layer_1
6
CONTINUOUS
62
7
10
105.03172411116753
20
195.33261158875433
0
VERTEX
8
Layer_1
6
CONTINUOUS
62
7
10
106.05061246248651
20
195.46621057690396
0
VERTEX
8
Layer_1
6
CONTINUOUS
62
7
10
107.07138156256747
20
195.57948330129645
0
VERTEX
8
Layer_1
6
CONTINUOUS
62
7
10
108.09392882511429
20
195.67353846722756
0
VERTEX
8
Layer_1
6
CONTINUOUS
62
7
10
109.11815166383087
20
195.74948477999311
0
VERTEX
8
Layer_1
6
CONTINUOUS
62
7
10
110.14394749242112
20
195.80843094488898
0
VERTEX
8
Layer_1
6
CONTINUOUS
62
7
10
111.17121372458891
20
195.85148566721108
0
VERTEX
8
Layer_1
6
CONTINUOUS
62
7
10
113.22974705447274
20
195.89435560531717
0
VERTEX
8
Layer_1
6
CONTINUOUS
62
7
10
115.29293096311346
20
195.88696423667818
0
VERTEX
8
Layer_1
6
CONTINUOUS
62
7
10
117.35994476014221
20
195.83818120366092
0
VERTEX
8
Layer_1
6
CONTINUOUS
62
7
10
119.42996775519015
20
195.75687614863207
0
VERTEX
8
Layer_1
6
CONTINUOUS
62
7
10
121.50217925788837
20
195.65191871395848
0
VERTEX
8
Layer_1
6
CONTINUOUS
62
7
10
123.57575857786807
20
195.53217854200693
0
VERTEX
8
Layer_1
6
CONTINUOUS
62
7
10
127.72373790819631
20
195.28382855573705
0
VERTEX
8
Layer_1
6
CONTINUOUS
62
7
10
129.79649653780717
20
195.17295802615226
0
VERTEX
8
Layer_1
6
CONTINUOUS
62
7
10
131.86734022322395
20
195.08278332875665
0
VERTEX
8
Layer_1
6
CONTINUOUS
62
7
10
133.93544827407786
20
195.02217410591697
0
VERTEX
8
Layer_1
6
CONTINUOUS
62
7
10
136
20
195
0
SEQEND
0
LINE
8
Layer_1
6
CONTINUOUS
62
7
10
204.97719261027714
20
190
11
140.97719261027714
21
190
0
CIRCLE
8
Layer_1
6
CONTINUOUS
62
7
10
185.0986336629087
20
192.54443684210526
40
1.2700000000000955
0
CIRCLE
8
Layer_1
6
CONTINUOUS
62
7
10
164.77863366290876
20
192.54443684210526
40
1.2700000000000955
0
ENDSEC
0
EOF
