0
SECTION
2
HEADER
9
$ANGDIR
70
0
9
$CHAMFERA
40
10
9
$CHAMFERB
40
10
9
$CLAYER
8
Layer_1
9
$EXTMAX
10
166
20
97
9
$EXTMIN
10
13
20
56.804878048780495
9
$LIMMAX
10
300
20
100
9
$LIMMIN
10
0
20
0
9
$LTSCALE
40
10
9
$PLINEGEN
70
0
9
$TEXTSIZE
40
20
9
$GRIDUNIT
10
1
20
1
9
$SNAPUNIT
10
1
20
1
0
ENDSEC
0
SECTION
2
TABLES
0
TABLE
2
STYLE
70
1
0
STYLE
2
STANDARD
70
0
40
0
41
1
50
0
71
0
42
0.20000000000000001
3
txt
4

0
ENDTAB
0
TABLE
2
LTYPE
70
14
0
LTYPE
2
CONTINUOUS
70
0
3
Solid line
72
65
73
0
40
0
0
LTYPE
2
DOT
70
0
3
............................................
72
65
73
2
40
0.25
49
0
49
-0.25
0
LTYPE
2
HIDDEN
70
0
3
_ _ _ _ _ _ _ _ _ _ _ _ _ _ _ _ _ _ _ _ _ _ 
72
65
73
2
40
0.375
49
0.25
49
-0.125
0
LTYPE
2
TSLONGDASH
70
0
3
__ __ __ __ __ __ __ __ __ __ __ __ __ __ _ 
72
65
73
2
40
1.28
49
1
49
-0.28000000000000003
0
LTYPE
2
TSDASHDOT
70
0
3
______ . ______ . ______ . ______ . ______ .
72
65
73
4
40
1.28
49
1
49
-0.14000000000000001
49
0
49
-0.14000000000000001
0
LTYPE
2
TSCENTER
70
0
3
______ _ ______ _ ______ _ ______ _ ______ _
72
65
73
4
40
2
49
1.5
49
-0.17999999999999999
49
0.14000000000000001
49
-0.17999999999999999
0
LTYPE
2
TSPHANTOM
70
0
3
_____ _ _ _____ _ _ _____ _ _ _____ _ _ ____
72
65
73
6
40
2.5
49
1.6299999999999999
49
-0.19
49
0.14999999999999999
49
-0.19
49
0.14999999999999999
49
-0.19
0
LTYPE
2
DASHED
70
0
3
__ __ __ __ __ __ __ __ __ __ __ __ __ __ __
72
65
73
2
40
0.75
49
0.5
49
-0.25
0
LTYPE
2
CENTER
70
0
3
____ _ ____ _ ____ _ ____ _ ____ _ ____ _ __
72
65
73
4
40
2
49
1.25
49
-0.25
49
0.25
49
-0.25
0
LTYPE
2
PHANTOM
70
0
3
_____ _ _ _____ _ _ _____ _ _ _____ _ _ ____
72
65
73
6
40
2.5
49
1.25
49
-0.25
49
0.25
49
-0.25
49
0.25
49
-0.25
0
LTYPE
2
DASHDOT
70
0
3
__ . __ . __ . __ . __ . __ . __ . __ . __ .
72
65
73
4
40
1
49
0.5
49
-0.25
49
0
49
-0.25
0
LTYPE
2
BORDER
70
0
3
__ __ . __ __ . __ __ . __ __ . __ __ . __ _
72
65
73
6
40
1.75
49
0.5
49
-0.25
49
0.5
49
-0.25
49
0
49
-0.25
0
LTYPE
2
DIVIDE
70
0
3
__ . . __ . . __ . . __ . . __ . . __ . . __
72
65
73
6
40
1.25
49
0.5
49
-0.25
49
0
49
-0.25
49
0
49
-0.25
0
ENDTAB
0
TABLE
2
LAYER
70
3
0
LAYER
2
Layer_1
70
0
62
7
6
CONTINUOUS
0
LAYER
2
Layer_2
70
0
62
7
6
CONTINUOUS
0
LAYER
2
Layer_3
70
0
62
7
6
CONTINUOUS
0
ENDTAB
0
ENDSEC
0
SECTION
2
ENTITIES
0
POLYLINE
8
Layer_1
6
CONTINUOUS
62
7
66
1
10
0
20
0
70
128
40
0
41
0
0
VERTEX
8
Layer_1
6
CONTINUOUS
62
7
10
34.999999999999972
20
92
0
VERTEX
8
Layer_1
6
CONTINUOUS
62
7
10
74
20
92
0
VERTEX
8
Layer_1
6
CONTINUOUS
62
7
10
74
20
69
0
SEQEND
0
POLYLINE
8
Layer_1
6
CONTINUOUS
62
7
66
1
10
0
20
0
70
128
40
0
41
0
0
VERTEX
8
Layer_1
6
CONTINUOUS
62
7
10
74
20
69
0
VERTEX
8
Layer_1
6
CONTINUOUS
62
7
10
74.488630572661748
20
69.740509033203111
0
VERTEX
8
Layer_1
6
CONTINUOUS
62
7
10
74.955989313529372
20
70.521728515624986
0
VERTEX
8
Layer_1
6
CONTINUOUS
62
7
10
75.404276756926407
20
71.339447021484361
0
VERTEX
8
Layer_1
6
CONTINUOUS
62
7
10
75.83569343717636
20
72.189453124999986
0
VERTEX
8
Layer_1
6
CONTINUOUS
62
7
10
76.252439888602765
20
73.067535400390611
0
VERTEX
8
Layer_1
6
CONTINUOUS
62
7
10
76.656716645529173
20
73.969482421874986
0
VERTEX
8
Layer_1
6
CONTINUOUS
62
7
10
77.436663213176075
20
75.828124999999986
0
VERTEX
8
Layer_1
6
CONTINUOUS
62
7
10
78.193137414705319
20
77.731689453124986
0
VERTEX
8
Layer_1
6
CONTINUOUS
62
7
10
78.943743524705127
20
79.646484374999986
0
VERTEX
8
Layer_1
6
CONTINUOUS
62
7
10
79.706085817763778
20
81.538818359374986
0
VERTEX
8
Layer_1
6
CONTINUOUS
62
7
10
80.097159368749004
20
82.466033935546861
0
VERTEX
8
Layer_1
6
CONTINUOUS
62
7
10
80.497768568469525
20
83.374999999999986
0
VERTEX
8
Layer_1
6
CONTINUOUS
62
7
10
80.91011395124886
20
84.261505126953111
0
VERTEX
8
Layer_1
6
CONTINUOUS
62
7
10
81.336396051410574
20
85.121337890624986
0
VERTEX
8
Layer_1
6
CONTINUOUS
62
7
10
81.778815403278188
20
85.950286865234361
0
VERTEX
8
Layer_1
6
CONTINUOUS
62
7
10
82.239572541175221
20
86.744140624999986
0
VERTEX
8
Layer_1
6
CONTINUOUS
62
7
10
82.720867999425224
20
87.498687744140611
0
VERTEX
8
Layer_1
6
CONTINUOUS
62
7
10
83.224902312351702
20
88.209716796874986
0
VERTEX
8
Layer_1
6
CONTINUOUS
62
7
10
83.753876014278177
20
88.873016357421861
0
VERTEX
8
Layer_1
6
CONTINUOUS
62
7
10
84.309989639528226
20
89.484374999999986
0
VERTEX
8
Layer_1
6
CONTINUOUS
62
7
10
84.598911590375678
20
89.769260406494126
0
VERTEX
8
Layer_1
6
CONTINUOUS
62
7
10
84.895443722425341
20
90.039581298828111
0
VERTEX
8
Layer_1
6
CONTINUOUS
62
7
10
85.199861102467665
20
90.294811248779283
0
VERTEX
8
Layer_1
6
CONTINUOUS
62
7
10
85.512438797293072
20
90.534423828124986
0
VERTEX
8
Layer_1
6
CONTINUOUS
62
7
10
85.833451873692013
20
90.757892608642564
0
VERTEX
8
Layer_1
6
CONTINUOUS
62
7
10
86.163175398454939
20
90.964691162109361
0
VERTEX
8
Layer_1
6
CONTINUOUS
62
7
10
86.501884438372286
20
91.15429306030272
0
VERTEX
8
Layer_1
6
CONTINUOUS
62
7
10
86.849854060234492
20
91.326171874999986
0
VERTEX
8
Layer_1
6
CONTINUOUS
62
7
10
87.207359330831991
20
91.479801177978501
0
VERTEX
8
Layer_1
6
CONTINUOUS
62
7
10
87.574675316955251
20
91.614654541015611
0
VERTEX
8
Layer_1
6
CONTINUOUS
62
7
10
87.952077085394663
20
91.730205535888658
0
VERTEX
8
Layer_1
6
CONTINUOUS
62
7
10
88.339839702940708
20
91.825927734374986
0
VERTEX
8
Layer_1
6
CONTINUOUS
62
7
10
88.738238236383836
20
91.901294708251939
0
VERTEX
8
Layer_1
6
CONTINUOUS
62
7
10
89.147547752514456
20
91.955780029296861
0
VERTEX
8
Layer_1
6
CONTINUOUS
62
7
10
89.568043318123031
20
91.988857269287095
0
VERTEX
8
Layer_1
6
CONTINUOUS
62
7
10
90
20
92
0
VERTEX
8
Layer_1
6
CONTINUOUS
62
7
10
90.431956681876969
20
91.988857269287095
0
VERTEX
8
Layer_1
6
CONTINUOUS
62
7
10
90.852452247485544
20
91.955780029296861
0
VERTEX
8
Layer_1
6
CONTINUOUS
62
7
10
91.261761763616164
20
91.901294708251939
0
VERTEX
8
Layer_1
6
CONTINUOUS
62
7
10
91.660160297059292
20
91.825927734374986
0
VERTEX
8
Layer_1
6
CONTINUOUS
62
7
10
92.047922914605337
20
91.730205535888658
0
VERTEX
8
Layer_1
6
CONTINUOUS
62
7
10
92.425324683044749
20
91.614654541015611
0
VERTEX
8
Layer_1
6
CONTINUOUS
62
7
10
92.792640669168009
20
91.479801177978501
0
VERTEX
8
Layer_1
6
CONTINUOUS
62
7
10
93.150145939765508
20
91.326171874999986
0
VERTEX
8
Layer_1
6
CONTINUOUS
62
7
10
93.498115561627714
20
91.15429306030272
0
VERTEX
8
Layer_1
6
CONTINUOUS
62
7
10
93.836824601545061
20
90.964691162109361
0
VERTEX
8
Layer_1
6
CONTINUOUS
62
7
10
94.166548126307987
20
90.757892608642564
0
VERTEX
8
Layer_1
6
CONTINUOUS
62
7
10
94.487561202706928
20
90.534423828124986
0
VERTEX
8
Layer_1
6
CONTINUOUS
62
7
10
94.800138897532335
20
90.294811248779283
0
VERTEX
8
Layer_1
6
CONTINUOUS
62
7
10
95.104556277574659
20
90.039581298828111
0
VERTEX
8
Layer_1
6
CONTINUOUS
62
7
10
95.401088409624322
20
89.769260406494126
0
VERTEX
8
Layer_1
6
CONTINUOUS
62
7
10
95.690010360471774
20
89.484374999999986
0
VERTEX
8
Layer_1
6
CONTINUOUS
62
7
10
96.246123985721823
20
88.873016357421861
0
VERTEX
8
Layer_1
6
CONTINUOUS
62
7
10
96.775097687648298
20
88.209716796874986
0
VERTEX
8
Layer_1
6
CONTINUOUS
62
7
10
97.279132000574776
20
87.498687744140611
0
VERTEX
8
Layer_1
6
CONTINUOUS
62
7
10
97.760427458824779
20
86.744140624999986
0
VERTEX
8
Layer_1
6
CONTINUOUS
62
7
10
98.221184596721812
20
85.950286865234361
0
VERTEX
8
Layer_1
6
CONTINUOUS
62
7
10
98.663603948589426
20
85.121337890624986
0
VERTEX
8
Layer_1
6
CONTINUOUS
62
7
10
99.08988604875114
20
84.261505126953111
0
VERTEX
8
Layer_1
6
CONTINUOUS
62
7
10
99.502231431530475
20
83.374999999999986
0
VERTEX
8
Layer_1
6
CONTINUOUS
62
7
10
99.902840631250996
20
82.466033935546861
0
VERTEX
8
Layer_1
6
CONTINUOUS
62
7
10
100.29391418223622
20
81.538818359374986
0
VERTEX
8
Layer_1
6
CONTINUOUS
62
7
10
101.05625647529487
20
79.646484374999986
0
VERTEX
8
Layer_1
6
CONTINUOUS
62
7
10
101.80686258529468
20
77.731689453124986
0
VERTEX
8
Layer_1
6
CONTINUOUS
62
7
10
102.56333678682392
20
75.828124999999986
0
VERTEX
8
Layer_1
6
CONTINUOUS
62
7
10
103.34328335447083
20
73.969482421874986
0
VERTEX
8
Layer_1
6
CONTINUOUS
62
7
10
103.74756011139723
20
73.067535400390611
0
VERTEX
8
Layer_1
6
CONTINUOUS
62
7
10
104.16430656282364
20
72.189453124999986
0
VERTEX
8
Layer_1
6
CONTINUOUS
62
7
10
104.59572324307359
20
71.339447021484361
0
VERTEX
8
Layer_1
6
CONTINUOUS
62
7
10
105.04401068647063
20
70.521728515624986
0
VERTEX
8
Layer_1
6
CONTINUOUS
62
7
10
105.51136942733825
20
69.740509033203111
0
VERTEX
8
Layer_1
6
CONTINUOUS
62
7
10
106
20
69
0
SEQEND
0
LINE
8
Layer_1
6
CONTINUOUS
62
7
10
90
20
97
11
15
21
97
0
POLYLINE
8
Layer_1
6
CONTINUOUS
62
7
66
1
10
0
20
0
70
129
40
0
41
0
0
VERTEX
8
Layer_1
6
CONTINUOUS
62
7
10
17
20
96
0
VERTEX
8
Layer_1
6
CONTINUOUS
62
7
10
20
20
96
0
VERTEX
8
Layer_1
6
CONTINUOUS
62
7
10
20
20
93
0
VERTEX
8
Layer_1
6
CONTINUOUS
62
7
10
17
20
93
0
VERTEX
8
Layer_1
6
CONTINUOUS
62
7
10
17
20
96
0
SEQEND
0
LINE
8
Layer_1
6
CONTINUOUS
62
7
10
90
20
97
11
165
21
97
0
POLYLINE
8
Layer_1
6
CONTINUOUS
62
7
66
1
10
0
20
0
70
129
40
0
41
0
0
VERTEX
8
Layer_1
6
CONTINUOUS
62
7
10
163
20
96
0
VERTEX
8
Layer_1
6
CONTINUOUS
62
7
10
160
20
96
0
VERTEX
8
Layer_1
6
CONTINUOUS
62
7
10
160
20
93
0
VERTEX
8
Layer_1
6
CONTINUOUS
62
7
10
163
20
93
0
VERTEX
8
Layer_1
6
CONTINUOUS
62
7
10
163
20
96
0
SEQEND
0
POLYLINE
8
Layer_1
6
CONTINUOUS
62
7
66
1
10
0
20
0
70
128
40
0
41
0
0
VERTEX
8
Layer_1
6
CONTINUOUS
62
7
10
34.999999999999972
20
92
0
VERTEX
8
Layer_1
6
CONTINUOUS
62
7
10
15
20
92
0
VERTEX
8
Layer_1
6
CONTINUOUS
62
7
10
15
20
97
0
VERTEX
8
Layer_1
6
CONTINUOUS
62
7
10
165
20
97
0
VERTEX
8
Layer_1
6
CONTINUOUS
62
7
10
165
20
92
0
VERTEX
8
Layer_1
6
CONTINUOUS
62
7
10
145
20
92
0
SEQEND
0
CIRCLE
8
Layer_1
6
CONTINUOUS
62
7
10
79
20
60.804878048780495
40
1.3799999999999955
0
ARC
8
Layer_1
6
CONTINUOUS
62
7
10
79
20
60.804878048780495
40
2.999999999999968
50
340.52877936495258
51
199.47122062990229
0
CIRCLE
8
Layer_1
6
CONTINUOUS
62
7
10
21
20
60.804878048780495
40
1.3799999999999955
0
ARC
8
Layer_1
6
CONTINUOUS
62
7
10
21
20
60.804878048780495
40
2.999999999999968
50
340.52877936495258
51
199.47122062990229
0
POLYLINE
8
Layer_1
6
CONTINUOUS
62
7
66
1
10
0
20
0
70
128
40
0
41
0
0
VERTEX
8
Layer_1
6
CONTINUOUS
62
7
10
135.23124999999999
20
59.804878048780495
0
VERTEX
8
Layer_1
6
CONTINUOUS
62
7
10
81.828427124746156
20
59.804878048780495
0
SEQEND
0
POLYLINE
8
Layer_1
6
CONTINUOUS
62
7
66
1
10
0
20
0
70
128
40
0
41
0
0
VERTEX
8
Layer_1
6
CONTINUOUS
62
7
10
79.950999474237506
20
59.804878048780495
0
VERTEX
8
Layer_1
6
CONTINUOUS
62
7
10
78.049000525762494
20
59.804878048780438
0
SEQEND
0
POLYLINE
8
Layer_1
6
CONTINUOUS
62
7
66
1
10
0
20
0
70
128
40
0
41
0
0
VERTEX
8
Layer_1
6
CONTINUOUS
62
7
10
76.171572875253787
20
59.804878048780495
0
VERTEX
8
Layer_1
6
CONTINUOUS
62
7
10
23.828427124746156
20
59.804878048780495
0
SEQEND
0
POLYLINE
8
Layer_1
6
CONTINUOUS
62
7
66
1
10
0
20
0
70
128
40
0
41
0
0
VERTEX
8
Layer_1
6
CONTINUOUS
62
7
10
21.950999474237506
20
59.804878048780495
0
VERTEX
8
Layer_1
6
CONTINUOUS
62
7
10
20.049000525762494
20
59.804878048780438
0
SEQEND
0
POLYLINE
8
Layer_1
6
CONTINUOUS
62
7
66
1
10
0
20
0
70
128
40
0
41
0
0
VERTEX
8
Layer_1
6
CONTINUOUS
62
7
10
18.171572875253787
20
59.804878048780495
0
VERTEX
8
Layer_1
6
CONTINUOUS
62
7
10
13
20
59.804878048780495
0
VERTEX
8
Layer_1
6
CONTINUOUS
62
7
10
13
20
56.804878048780495
0
VERTEX
8
Layer_1
6
CONTINUOUS
62
7
10
136
20
56.804878048780495
0
SEQEND
0
POLYLINE
8
Layer_1
6
CONTINUOUS
62
7
66
1
10
0
20
0
70
128
40
0
41
0
0
VERTEX
8
Layer_1
6
CONTINUOUS
62
7
10
136
20
56.804878048780495
0
VERTEX
8
Layer_1
6
CONTINUOUS
62
7
10
166
20
80.804878048780495
0
VERTEX
8
Layer_1
6
CONTINUOUS
62
7
10
164.2439024390244
20
83
0
VERTEX
8
Layer_1
6
CONTINUOUS
62
7
10
135.25
20
59.804878048780495
0
SEQEND
0
POLYLINE
8
Layer_1
6
CONTINUOUS
62
7
66
1
10
0
20
0
70
128
40
0
41
0
0
VERTEX
8
Layer_1
6
CONTINUOUS
62
7
10
82
20
59.804878048780495
0
VERTEX
8
Layer_1
6
CONTINUOUS
62
7
10
135
20
59.804878048780495
0
SEQEND
0
CIRCLE
8
Layer_1
6
CONTINUOUS
62
7
10
79
20
68.804878048780495
40
1.3799999999999955
0
ARC
8
Layer_1
6
CONTINUOUS
62
7
10
79
20
68.804878048780495
40
2.999999999999968
50
340.52877936495258
51
199.47122062990229
0
CIRCLE
8
Layer_1
6
CONTINUOUS
62
7
10
21
20
68.804878048780495
40
1.3799999999999955
0
ARC
8
Layer_1
6
CONTINUOUS
62
7
10
21
20
68.804878048780495
40
3.0000000000000218
50
340.52877936495292
51
199.47122062990229
0
POLYLINE
8
Layer_1
6
CONTINUOUS
62
7
66
1
10
0
20
0
70
128
40
0
41
0
0
VERTEX
8
Layer_1
6
CONTINUOUS
62
7
10
135.23124999999999
20
67.804878048780495
0
VERTEX
8
Layer_1
6
CONTINUOUS
62
7
10
81.828427124746156
20
67.804878048780495
0
SEQEND
0
POLYLINE
8
Layer_1
6
CONTINUOUS
62
7
66
1
10
0
20
0
70
128
40
0
41
0
0
VERTEX
8
Layer_1
6
CONTINUOUS
62
7
10
79.950999474237506
20
67.804878048780495
0
VERTEX
8
Layer_1
6
CONTINUOUS
62
7
10
78.049000525762494
20
67.804878048780438
0
SEQEND
0
POLYLINE
8
Layer_1
6
CONTINUOUS
62
7
66
1
10
0
20
0
70
128
40
0
41
0
0
VERTEX
8
Layer_1
6
CONTINUOUS
62
7
10
76.171572875253787
20
67.804878048780495
0
VERTEX
8
Layer_1
6
CONTINUOUS
62
7
10
23.828427124746213
20
67.804878048780495
0
SEQEND
0
POLYLINE
8
Layer_1
6
CONTINUOUS
62
7
66
1
10
0
20
0
70
128
40
0
41
0
0
VERTEX
8
Layer_1
6
CONTINUOUS
62
7
10
21.950999474237506
20
67.804878048780495
0
VERTEX
8
Layer_1
6
CONTINUOUS
62
7
10
20.049000525762494
20
67.804878048780438
0
SEQEND
0
POLYLINE
8
Layer_1
6
CONTINUOUS
62
7
66
1
10
0
20
0
70
128
40
0
41
0
0
VERTEX
8
Layer_1
6
CONTINUOUS
62
7
10
18.171572875253787
20
67.804878048780495
0
VERTEX
8
Layer_1
6
CONTINUOUS
62
7
10
13
20
67.804878048780495
0
VERTEX
8
Layer_1
6
CONTINUOUS
62
7
10
13
20
64.804878048780495
0
VERTEX
8
Layer_1
6
CONTINUOUS
62
7
10
136
20
64.804878048780495
0
SEQEND
0
POLYLINE
8
Layer_1
6
CONTINUOUS
62
7
66
1
10
0
20
0
70
128
40
0
41
0
0
VERTEX
8
Layer_1
6
CONTINUOUS
62
7
10
136
20
64.804878048780495
0
VERTEX
8
Layer_1
6
CONTINUOUS
62
7
10
166
20
88.804878048780495
0
VERTEX
8
Layer_1
6
CONTINUOUS
62
7
10
164.2439024390244
20
91
0
VERTEX
8
Layer_1
6
CONTINUOUS
62
7
10
135.25
20
67.804878048780495
0
SEQEND
0
POLYLINE
8
Layer_1
6
CONTINUOUS
62
7
66
1
10
0
20
0
70
128
40
0
41
0
0
VERTEX
8
Layer_1
6
CONTINUOUS
62
7
10
82
20
67.804878048780495
0
VERTEX
8
Layer_1
6
CONTINUOUS
62
7
10
135
20
67.804878048780495
0
SEQEND
0
POLYLINE
8
Layer_1
6
CONTINUOUS
62
7
66
1
10
0
20
0
70
128
40
0
41
0
0
VERTEX
8
Layer_1
6
CONTINUOUS
62
7
10
106
20
69
0
VERTEX
8
Layer_1
6
CONTINUOUS
62
7
10
106
20
92
0
VERTEX
8
Layer_1
6
CONTINUOUS
62
7
10
145
20
92
0
SEQEND
0
ENDSEC
0
EOF
