0
SECTION
2
HEADER
9
$ANGDIR
70
0
9
$CHAMFERA
40
10
9
$CHAMFERB
40
10
9
$CLAYER
8
Layer_1
9
$EXTMAX
10
184
20
96
9
$EXTMIN
10
19.977192610277143
20
26.770086563757289
9
$LIMMAX
10
300
20
100
9
$LIMMIN
10
0
20
0
9
$LTSCALE
40
10
9
$PLINEGEN
70
0
9
$TEXTSIZE
40
20
9
$GRIDUNIT
10
1
20
1
9
$SNAPUNIT
10
1
20
1
0
ENDSEC
0
SECTION
2
TABLES
0
TABLE
2
STYLE
70
1
0
STYLE
2
STANDARD
70
0
40
0
41
1
50
0
71
0
42
0.20000000000000001
3
txt
4

0
ENDTAB
0
TABLE
2
LTYPE
70
14
0
LTYPE
2
CONTINUOUS
70
0
3
Solid line
72
65
73
0
40
0
0
LTYPE
2
DOT
70
0
3
............................................
72
65
73
2
40
0.25
49
0
49
-0.25
0
LTYPE
2
HIDDEN
70
0
3
_ _ _ _ _ _ _ _ _ _ _ _ _ _ _ _ _ _ _ _ _ _ 
72
65
73
2
40
0.375
49
0.25
49
-0.125
0
LTYPE
2
TSLONGDASH
70
0
3
__ __ __ __ __ __ __ __ __ __ __ __ __ __ _ 
72
65
73
2
40
1.28
49
1
49
-0.28000000000000003
0
LTYPE
2
TSDASHDOT
70
0
3
______ . ______ . ______ . ______ . ______ .
72
65
73
4
40
1.28
49
1
49
-0.14000000000000001
49
0
49
-0.14000000000000001
0
LTYPE
2
TSCENTER
70
0
3
______ _ ______ _ ______ _ ______ _ ______ _
72
65
73
4
40
2
49
1.5
49
-0.17999999999999999
49
0.14000000000000001
49
-0.17999999999999999
0
LTYPE
2
TSPHANTOM
70
0
3
_____ _ _ _____ _ _ _____ _ _ _____ _ _ ____
72
65
73
6
40
2.5
49
1.6299999999999999
49
-0.19
49
0.14999999999999999
49
-0.19
49
0.14999999999999999
49
-0.19
0
LTYPE
2
DASHED
70
0
3
__ __ __ __ __ __ __ __ __ __ __ __ __ __ __
72
65
73
2
40
0.75
49
0.5
49
-0.25
0
LTYPE
2
CENTER
70
0
3
____ _ ____ _ ____ _ ____ _ ____ _ ____ _ __
72
65
73
4
40
2
49
1.25
49
-0.25
49
0.25
49
-0.25
0
LTYPE
2
PHANTOM
70
0
3
_____ _ _ _____ _ _ _____ _ _ _____ _ _ ____
72
65
73
6
40
2.5
49
1.25
49
-0.25
49
0.25
49
-0.25
49
0.25
49
-0.25
0
LTYPE
2
DASHDOT
70
0
3
__ . __ . __ . __ . __ . __ . __ . __ . __ .
72
65
73
4
40
1
49
0.5
49
-0.25
49
0
49
-0.25
0
LTYPE
2
BORDER
70
0
3
__ __ . __ __ . __ __ . __ __ . __ __ . __ _
72
65
73
6
40
1.75
49
0.5
49
-0.25
49
0.5
49
-0.25
49
0
49
-0.25
0
LTYPE
2
DIVIDE
70
0
3
__ . . __ . . __ . . __ . . __ . . __ . . __
72
65
73
6
40
1.25
49
0.5
49
-0.25
49
0
49
-0.25
49
0
49
-0.25
0
ENDTAB
0
TABLE
2
LAYER
70
3
0
LAYER
2
Layer_1
70
0
62
7
6
CONTINUOUS
0
LAYER
2
Layer_2
70
0
62
7
6
CONTINUOUS
0
LAYER
2
Layer_3
70
0
62
7
6
CONTINUOUS
0
ENDTAB
0
ENDSEC
0
SECTION
2
ENTITIES
0
LINE
8
Layer_1
6
CONTINUOUS
62
7
10
24.977192610277143
20
28.770086563757289
11
24.977192610277143
21
29.770086563757289
0
LINE
8
Layer_1
6
CONTINUOUS
62
7
10
24.977192610277143
20
29.770086563757289
11
22.977192610277143
21
29.770086563757289
0
LINE
8
Layer_1
6
CONTINUOUS
62
7
10
22.977192610277143
20
29.770086563757289
11
22.977192610277143
21
26.770086563757289
0
LINE
8
Layer_1
6
CONTINUOUS
62
7
10
22.977192610277143
20
26.770086563757289
11
19.977192610277143
21
26.770086563757289
0
LINE
8
Layer_1
6
CONTINUOUS
62
7
10
19.977192610277143
20
26.770086563757289
11
19.977192610277143
21
35.770086563757289
0
LINE
8
Layer_1
6
CONTINUOUS
62
7
10
19.977192610277143
20
35.770086563757289
11
22.977192610277143
21
35.770086563757289
0
LINE
8
Layer_1
6
CONTINUOUS
62
7
10
22.977192610277143
20
35.770086563757289
11
22.977192610277143
21
32.770086563757289
0
LINE
8
Layer_1
6
CONTINUOUS
62
7
10
22.977192610277143
20
32.770086563757289
11
24.977192610277143
21
32.770086563757289
0
LINE
8
Layer_1
6
CONTINUOUS
62
7
10
24.977192610277143
20
32.770086563757289
11
24.977192610277143
21
33.770086563757289
0
ARC
8
Layer_1
6
CONTINUOUS
62
7
10
95.977192610277143
20
33.770086563757289
40
3.0000000000000284
50
0
51
180
0
ARC
8
Layer_1
6
CONTINUOUS
62
7
10
37.977192610277143
20
33.770086563757289
40
3.0000000000000284
50
0
51
180
0
LINE
8
Layer_1
6
CONTINUOUS
62
7
10
24.977192610277143
20
28.770086563757289
11
103.97719261027714
21
28.770086563757289
0
LINE
8
Layer_1
6
CONTINUOUS
62
7
10
101.97719261027714
20
33.770086563757289
11
98.977192610277172
21
33.770086563757289
0
LINE
8
Layer_1
6
CONTINUOUS
62
7
10
92.977192610277115
20
33.770086563757289
11
40.977192610277172
21
33.770086563757289
0
LINE
8
Layer_1
6
CONTINUOUS
62
7
10
34.977192610277143
20
33.770086563757289
11
24.977192610277143
21
33.770086563757289
0
POLYLINE
8
Layer_1
6
CONTINUOUS
62
7
66
1
10
0
20
0
70
128
40
0
41
0
0
VERTEX
8
Layer_1
6
CONTINUOUS
62
7
10
101.97719261027714
20
33.770086563757289
0
VERTEX
8
Layer_1
6
CONTINUOUS
62
7
10
104.1665547992923
20
33.748317318442027
0
VERTEX
8
Layer_1
6
CONTINUOUS
62
7
10
106.35914478260032
20
33.688814714580317
0
VERTEX
8
Layer_1
6
CONTINUOUS
62
7
10
108.55421768459519
20
33.60028645029827
0
VERTEX
8
Layer_1
6
CONTINUOUS
62
7
10
110.75102862967086
20
33.491440223721966
0
VERTEX
8
Layer_1
6
CONTINUOUS
62
7
10
115.14688514664036
20
33.247624676191052
0
VERTEX
8
Layer_1
6
CONTINUOUS
62
7
10
117.34444096732207
20
33.130070751488645
0
VERTEX
8
Layer_1
6
CONTINUOUS
62
7
10
119.54075532866037
20
33.027029656996419
0
VERTEX
8
Layer_1
6
CONTINUOUS
62
7
10
121.7350833550492
20
32.947209090840474
0
VERTEX
8
Layer_1
6
CONTINUOUS
62
7
10
123.92668017088249
20
32.899316751146898
0
VERTEX
8
Layer_1
6
CONTINUOUS
62
7
10
126.11480090055419
20
32.892060336041808
0
VERTEX
8
Layer_1
6
CONTINUOUS
62
7
10
128.29870066845825
20
32.934147543651314
0
VERTEX
8
Layer_1
6
CONTINUOUS
62
7
10
129.38883491812055
20
32.97641616163844
0
VERTEX
8
Layer_1
6
CONTINUOUS
62
7
10
130.47763459898863
20
33.034286072101509
0
VERTEX
8
Layer_1
6
CONTINUOUS
62
7
10
131.56500660161183
20
33.108845737306282
0
VERTEX
8
Layer_1
6
CONTINUOUS
62
7
10
132.65085781653931
20
33.201183619518503
0
VERTEX
8
Layer_1
6
CONTINUOUS
62
7
10
133.73509513432035
20
33.312388181003953
0
VERTEX
8
Layer_1
6
CONTINUOUS
62
7
10
134.81762544550418
20
33.443547884028391
0
VERTEX
8
Layer_1
6
CONTINUOUS
62
7
10
135.89835564064003
20
33.595751190857584
0
VERTEX
8
Layer_1
6
CONTINUOUS
62
7
10
136.97719261027714
20
33.770086563757289
0
VERTEX
8
Layer_1
6
CONTINUOUS
62
7
10
138.6710025592032
20
34.078058450135281
0
VERTEX
8
Layer_1
6
CONTINUOUS
62
7
10
140.36225051122665
20
34.418118397423314
0
VERTEX
8
Layer_1
6
CONTINUOUS
62
7
10
142.04951946714306
20
34.790662624387011
0
VERTEX
8
Layer_1
6
CONTINUOUS
62
7
10
143.73139242774789
20
35.196087349791995
0
VERTEX
8
Layer_1
6
CONTINUOUS
62
7
10
145.40645239383673
20
35.634788792403882
0
VERTEX
8
Layer_1
6
CONTINUOUS
62
7
10
147.07328236620506
20
36.107163170988294
0
VERTEX
8
Layer_1
6
CONTINUOUS
62
7
10
148.73046534564847
20
36.613606704310847
0
VERTEX
8
Layer_1
6
CONTINUOUS
62
7
10
150.37658433296241
20
37.154515611137157
0
VERTEX
8
Layer_1
6
CONTINUOUS
62
7
10
152.01022232894246
20
37.730286110232846
0
VERTEX
8
Layer_1
6
CONTINUOUS
62
7
10
153.62996233438406
20
38.341314420363531
0
VERTEX
8
Layer_1
6
CONTINUOUS
62
7
10
155.23438735008284
20
38.987996760294834
0
VERTEX
8
Layer_1
6
CONTINUOUS
62
7
10
156.82208037683426
20
39.670729348792385
0
VERTEX
8
Layer_1
6
CONTINUOUS
62
7
10
158.39162441543391
20
40.389908404621785
0
VERTEX
8
Layer_1
6
CONTINUOUS
62
7
10
159.94160246667724
20
41.145930146548658
0
VERTEX
8
Layer_1
6
CONTINUOUS
62
7
10
161.4705975313598
20
41.939190793338611
0
VERTEX
8
Layer_1
6
CONTINUOUS
62
7
10
162.97719261027714
20
42.770086563757289
0
VERTEX
8
Layer_1
6
CONTINUOUS
62
7
10
163.60488162949505
20
43.158764377688982
0
VERTEX
8
Layer_1
6
CONTINUOUS
62
7
10
164.21570865843563
20
43.598036608846634
0
VERTEX
8
Layer_1
6
CONTINUOUS
62
7
10
164.81093932180903
20
44.083360410256489
0
VERTEX
8
Layer_1
6
CONTINUOUS
62
7
10
165.39183924432547
20
44.610192934944777
0
VERTEX
8
Layer_1
6
CONTINUOUS
62
7
10
165.95967405069513
20
45.173991335937721
0
VERTEX
8
Layer_1
6
CONTINUOUS
62
7
10
166.51570936562825
20
45.770212766261565
0
VERTEX
8
Layer_1
6
CONTINUOUS
62
7
10
167.06121081383498
20
46.394314378942525
0
VERTEX
8
Layer_1
6
CONTINUOUS
62
7
10
167.59744402002556
20
47.04175332700683
0
VERTEX
8
Layer_1
6
CONTINUOUS
62
7
10
168.12567460891017
20
47.707986763480733
0
VERTEX
8
Layer_1
6
CONTINUOUS
62
7
10
168.64716820519905
20
48.388471841390448
0
VERTEX
8
Layer_1
6
CONTINUOUS
62
7
10
169.67500691883032
20
49.774025533622243
0
VERTEX
8
Layer_1
6
CONTINUOUS
62
7
10
170.69108515860103
20
51.162071627912084
0
VERTEX
8
Layer_1
6
CONTINUOUS
62
7
10
171.70552792219274
20
52.516267348469803
0
VERTEX
8
Layer_1
6
CONTINUOUS
62
7
10
172.215300062197
20
53.169314201164696
0
VERTEX
8
Layer_1
6
CONTINUOUS
62
7
10
172.72846020728707
20
53.800269919505254
0
VERTEX
8
Layer_1
6
CONTINUOUS
62
7
10
173.24627398217325
20
54.404591656517709
0
VERTEX
8
Layer_1
6
CONTINUOUS
62
7
10
173.77000701156567
20
54.977736565228298
0
VERTEX
8
Layer_1
6
CONTINUOUS
62
7
10
174.30092492017457
20
55.515161798663243
0
VERTEX
8
Layer_1
6
CONTINUOUS
62
7
10
174.84029333271013
20
56.012324509848767
0
VERTEX
8
Layer_1
6
CONTINUOUS
62
7
10
175.38937787388258
20
56.464681851811115
0
VERTEX
8
Layer_1
6
CONTINUOUS
62
7
10
175.94944416840212
20
56.867690977576515
0
VERTEX
8
Layer_1
6
CONTINUOUS
62
7
10
176.52175784097892
20
57.216809040171199
0
VERTEX
8
Layer_1
6
CONTINUOUS
62
7
10
176.81290295176072
20
57.369739283100216
0
VERTEX
8
Layer_1
6
CONTINUOUS
62
7
10
177.10758451632319
20
57.507493192621396
0
VERTEX
8
Layer_1
6
CONTINUOUS
62
7
10
177.40596073775507
20
57.629502912863003
0
VERTEX
8
Layer_1
6
CONTINUOUS
62
7
10
177.70818981914513
20
57.735200587953337
0
VERTEX
8
Layer_1
6
CONTINUOUS
62
7
10
178.01442996358219
20
57.824018362020652
0
VERTEX
8
Layer_1
6
CONTINUOUS
62
7
10
178.32483937415498
20
57.89538837919325
0
VERTEX
8
Layer_1
6
CONTINUOUS
62
7
10
178.63957625395227
20
57.9487427835994
0
VERTEX
8
Layer_1
6
CONTINUOUS
62
7
10
178.9587988060629
20
57.98351371936738
0
VERTEX
8
Layer_1
6
CONTINUOUS
62
7
10
179.28266523357559
20
57.999133330625455
0
VERTEX
8
Layer_1
6
CONTINUOUS
62
7
10
179.61133373957909
20
57.995033761501929
0
VERTEX
8
Layer_1
6
CONTINUOUS
62
7
10
179.94496252716226
20
57.970647156125068
0
VERTEX
8
Layer_1
6
CONTINUOUS
62
7
10
180.28370979941377
20
57.925405658623163
0
VERTEX
8
Layer_1
6
CONTINUOUS
62
7
10
180.62773375942248
20
57.858741413124477
0
VERTEX
8
Layer_1
6
CONTINUOUS
62
7
10
180.97719261027714
20
57.770086563757289
0
VERTEX
8
Layer_1
6
CONTINUOUS
62
7
10
181.27772140623367
20
57.668390053281854
0
VERTEX
8
Layer_1
6
CONTINUOUS
62
7
10
181.57614487728978
20
57.535389440796486
0
VERTEX
8
Layer_1
6
CONTINUOUS
62
7
10
181.86968477032536
20
57.37355550560261
0
VERTEX
8
Layer_1
6
CONTINUOUS
62
7
10
182.15556283222034
20
57.185359027001645
0
VERTEX
8
Layer_1
6
CONTINUOUS
62
7
10
182.43100080985459
20
56.973270784295032
0
VERTEX
8
Layer_1
6
CONTINUOUS
62
7
10
182.69322045010807
20
56.739761556784188
0
VERTEX
8
Layer_1
6
CONTINUOUS
62
7
10
182.93944349986063
20
56.487302123770547
0
VERTEX
8
Layer_1
6
CONTINUOUS
62
7
10
183.16689170599219
20
56.218363264555535
0
VERTEX
8
Layer_1
6
CONTINUOUS
62
7
10
183.37278681538265
20
55.935415758440577
0
VERTEX
8
Layer_1
6
CONTINUOUS
62
7
10
183.55435057491192
20
55.640930384727099
0
VERTEX
8
Layer_1
6
CONTINUOUS
62
7
10
183.70880473145991
20
55.337377922716527
0
VERTEX
8
Layer_1
6
CONTINUOUS
62
7
10
183.83337103190652
20
55.027229151710301
0
VERTEX
8
Layer_1
6
CONTINUOUS
62
7
10
183.92527122313163
20
54.712954851009833
0
VERTEX
8
Layer_1
6
CONTINUOUS
62
7
10
183.98172705201517
20
54.397025799916563
0
VERTEX
8
Layer_1
6
CONTINUOUS
62
7
10
183.99996026543704
20
54.081912777731901
0
VERTEX
8
Layer_1
6
CONTINUOUS
62
7
10
183.97719261027714
20
53.770086563757289
0
VERTEX
8
Layer_1
6
CONTINUOUS
62
7
10
183.90782335716133
20
53.475813572418012
0
VERTEX
8
Layer_1
6
CONTINUOUS
62
7
10
183.79138720283709
20
53.209721025436608
0
VERTEX
8
Layer_1
6
CONTINUOUS
62
7
10
183.63280903336664
20
52.96882091306037
0
VERTEX
8
Layer_1
6
CONTINUOUS
62
7
10
183.43701373481224
20
52.7501252255366
0
VERTEX
8
Layer_1
6
CONTINUOUS
62
7
10
183.20892619323621
20
52.550645953112578
0
VERTEX
8
Layer_1
6
CONTINUOUS
62
7
10
182.95347129470076
20
52.367395086035586
0
VERTEX
8
Layer_1
6
CONTINUOUS
62
7
10
182.6755739252682
20
52.197384614552931
0
VERTEX
8
Layer_1
6
CONTINUOUS
62
7
10
182.38015897100075
20
52.0376265289119
0
VERTEX
8
Layer_1
6
CONTINUOUS
62
7
10
181.75647585221026
20
51.736915476143885
0
VERTEX
8
Layer_1
6
CONTINUOUS
62
7
10
181.12182102682743
20
51.441357849709888
0
VERTEX
8
Layer_1
6
CONTINUOUS
62
7
10
180.51559358335038
20
51.127049571588252
0
VERTEX
8
Layer_1
6
CONTINUOUS
62
7
10
180.23545234498215
20
50.955393913762791
0
VERTEX
8
Layer_1
6
CONTINUOUS
62
7
10
179.97719261027714
20
50.770086563757289
0
VERTEX
8
Layer_1
6
CONTINUOUS
62
7
10
179.21678254282276
20
50.157116136944666
0
VERTEX
8
Layer_1
6
CONTINUOUS
62
7
10
178.46898939158342
20
49.527118056945909
0
VERTEX
8
Layer_1
6
CONTINUOUS
62
7
10
177.00162906013171
20
48.229259260328142
0
VERTEX
8
Layer_1
6
CONTINUOUS
62
7
10
174.11243883800955
20
45.574633381178458
0
VERTEX
8
Layer_1
6
CONTINUOUS
62
7
10
172.65210983686674
20
44.270747590399026
0
VERTEX
8
Layer_1
6
CONTINUOUS
62
7
10
171.90959018335906
20
43.636229264779018
0
VERTEX
8
Layer_1
6
CONTINUOUS
62
7
10
171.15562550202117
20
43.01773409331819
0
VERTEX
8
Layer_1
6
CONTINUOUS
62
7
10
170.38780959844854
20
42.418567156751067
0
VERTEX
8
Layer_1
6
CONTINUOUS
62
7
10
169.60373627823668
20
41.842033535812192
0
VERTEX
8
Layer_1
6
CONTINUOUS
62
7
10
168.80099934698109
20
41.291438311236092
0
VERTEX
8
Layer_1
6
CONTINUOUS
62
7
10
167.97719261027714
20
40.770086563757289
0
VERTEX
8
Layer_1
6
CONTINUOUS
62
7
10
166.18668326357681
20
39.711942590229469
0
VERTEX
8
Layer_1
6
CONTINUOUS
62
7
10
164.37051244182845
20
38.690205553831547
0
VERTEX
8
Layer_1
6
CONTINUOUS
62
7
10
162.52997929959088
20
37.705878081565047
0
VERTEX
8
Layer_1
6
CONTINUOUS
62
7
10
160.66638299142301
20
36.759962800431495
0
VERTEX
8
Layer_1
6
CONTINUOUS
62
7
10
158.78102267188373
20
35.85346233743244
0
VERTEX
8
Layer_1
6
CONTINUOUS
62
7
10
156.87519749553189
20
34.987379319569399
0
VERTEX
8
Layer_1
6
CONTINUOUS
62
7
10
154.95020661692644
20
34.162716373843907
0
VERTEX
8
Layer_1
6
CONTINUOUS
62
7
10
153.00734919062614
20
33.380476127257509
0
VERTEX
8
Layer_1
6
CONTINUOUS
62
7
10
151.04792437118999
20
32.641661206811719
0
VERTEX
8
Layer_1
6
CONTINUOUS
62
7
10
149.07323131317676
20
31.947274239508097
0
VERTEX
8
Layer_1
6
CONTINUOUS
62
7
10
147.0845691711454
20
31.298317852348148
0
VERTEX
8
Layer_1
6
CONTINUOUS
62
7
10
145.08323709965478
20
30.69579467233342
0
VERTEX
8
Layer_1
6
CONTINUOUS
62
7
10
143.07053425326376
20
30.140707326465431
0
VERTEX
8
Layer_1
6
CONTINUOUS
62
7
10
141.04775978653123
20
29.634058441745726
0
VERTEX
8
Layer_1
6
CONTINUOUS
62
7
10
139.01621285401609
20
29.176850645175833
0
VERTEX
8
Layer_1
6
CONTINUOUS
62
7
10
136.97719261027714
20
28.770086563757289
0
VERTEX
8
Layer_1
6
CONTINUOUS
62
7
10
135.96237351537047
20
28.592508932205675
0
VERTEX
8
Layer_1
6
CONTINUOUS
62
7
10
134.94546849910961
20
28.437474975002971
0
VERTEX
8
Layer_1
6
CONTINUOUS
62
7
10
133.92658014779065
20
28.303875986853317
0
VERTEX
8
Layer_1
6
CONTINUOUS
62
7
10
132.9058110477097
20
28.190603262460876
0
VERTEX
8
Layer_1
6
CONTINUOUS
62
7
10
131.88326378516291
20
28.096548096529794
0
VERTEX
8
Layer_1
6
CONTINUOUS
62
7
10
130.8590409464463
20
28.020601783764228
0
VERTEX
8
Layer_1
6
CONTINUOUS
62
7
10
129.83324511785605
20
27.961655618868321
0
VERTEX
8
Layer_1
6
CONTINUOUS
62
7
10
128.80597888568823
20
27.918600896546238
0
VERTEX
8
Layer_1
6
CONTINUOUS
62
7
10
126.7474455558044
20
27.875730958440126
0
VERTEX
8
Layer_1
6
CONTINUOUS
62
7
10
124.68426164716368
20
27.883122327079107
0
VERTEX
8
Layer_1
6
CONTINUOUS
62
7
10
122.61724785013493
20
27.931905360096408
0
VERTEX
8
Layer_1
6
CONTINUOUS
62
7
10
120.54722485508699
20
28.013210415125243
0
VERTEX
8
Layer_1
6
CONTINUOUS
62
7
10
118.47501335238877
20
28.118167849798827
0
VERTEX
8
Layer_1
6
CONTINUOUS
62
7
10
116.40143403240907
20
28.237908021750382
0
VERTEX
8
Layer_1
6
CONTINUOUS
62
7
10
112.25345470208083
20
28.486258008020272
0
VERTEX
8
Layer_1
6
CONTINUOUS
62
7
10
110.18069607247001
20
28.597128537605041
0
VERTEX
8
Layer_1
6
CONTINUOUS
62
7
10
108.10985238705322
20
28.687303235000655
0
VERTEX
8
Layer_1
6
CONTINUOUS
62
7
10
106.04174433619932
20
28.747912457840332
0
VERTEX
8
Layer_1
6
CONTINUOUS
62
7
10
103.97719261027714
20
28.770086563757289
0
SEQEND
0
CIRCLE
8
Layer_1
6
CONTINUOUS
62
7
10
37.977192610277143
20
33.770086563757289
40
2
0
CIRCLE
8
Layer_1
6
CONTINUOUS
62
7
10
95.977192610277143
20
33.770086563757289
40
2
0
ARC
8
Layer_1
6
CONTINUOUS
62
7
10
66
20
75
40
3
50
0
51
90
0
ARC
8
Layer_1
6
CONTINUOUS
62
7
10
59
20
75
40
3
50
180
51
270
0
LINE
8
Layer_1
6
CONTINUOUS
62
7
10
59
20
72
11
66
21
72
0
LINE
8
Layer_1
6
CONTINUOUS
62
7
10
66
20
78
11
59
21
78
0
LINE
8
Layer_1
6
CONTINUOUS
62
7
10
69
20
75
11
69
21
72
0
LINE
8
Layer_1
6
CONTINUOUS
62
7
10
66
20
72
11
69
21
72
0
LINE
8
Layer_1
6
CONTINUOUS
62
7
10
59
20
78
11
56
21
78
0
LINE
8
Layer_1
6
CONTINUOUS
62
7
10
56
20
75
11
56
21
78
0
CIRCLE
8
Layer_1
6
CONTINUOUS
62
7
10
59
20
75
40
2.1499999999999773
0
CIRCLE
8
Layer_1
6
CONTINUOUS
62
7
10
66
20
75
40
2.1499999999999773
0
ARC
8
Layer_1
6
CONTINUOUS
62
7
10
66
20
68
40
3
50
0
51
90
0
ARC
8
Layer_1
6
CONTINUOUS
62
7
10
59
20
68
40
3
50
180
51
270
0
LINE
8
Layer_1
6
CONTINUOUS
62
7
10
59
20
65
11
66
21
65
0
LINE
8
Layer_1
6
CONTINUOUS
62
7
10
66
20
71
11
59
21
71
0
LINE
8
Layer_1
6
CONTINUOUS
62
7
10
69
20
68
11
69
21
65
0
LINE
8
Layer_1
6
CONTINUOUS
62
7
10
66
20
65
11
69
21
65
0
LINE
8
Layer_1
6
CONTINUOUS
62
7
10
59
20
71
11
56
21
71
0
LINE
8
Layer_1
6
CONTINUOUS
62
7
10
56
20
68
11
56
21
71
0
CIRCLE
8
Layer_1
6
CONTINUOUS
62
7
10
59
20
68
40
2.1499999999999773
0
CIRCLE
8
Layer_1
6
CONTINUOUS
62
7
10
66
20
68
40
2.1499999999999773
0
ARC
8
Layer_1
6
CONTINUOUS
62
7
10
80
20
75
40
3
50
0
51
90
0
ARC
8
Layer_1
6
CONTINUOUS
62
7
10
73
20
75
40
3
50
180
51
270
0
LINE
8
Layer_1
6
CONTINUOUS
62
7
10
73
20
72
11
80
21
72
0
LINE
8
Layer_1
6
CONTINUOUS
62
7
10
80
20
78
11
73
21
78
0
LINE
8
Layer_1
6
CONTINUOUS
62
7
10
83
20
75
11
83
21
72
0
LINE
8
Layer_1
6
CONTINUOUS
62
7
10
80
20
72
11
83
21
72
0
LINE
8
Layer_1
6
CONTINUOUS
62
7
10
73
20
78
11
70
21
78
0
LINE
8
Layer_1
6
CONTINUOUS
62
7
10
70
20
75
11
70
21
78
0
CIRCLE
8
Layer_1
6
CONTINUOUS
62
7
10
73
20
75
40
2.1499999999999773
0
CIRCLE
8
Layer_1
6
CONTINUOUS
62
7
10
80
20
75
40
2.1499999999999773
0
ARC
8
Layer_1
6
CONTINUOUS
62
7
10
80
20
68
40
3
50
0
51
90
0
ARC
8
Layer_1
6
CONTINUOUS
62
7
10
73
20
68
40
3
50
180
51
270
0
LINE
8
Layer_1
6
CONTINUOUS
62
7
10
73
20
65
11
80
21
65
0
LINE
8
Layer_1
6
CONTINUOUS
62
7
10
80
20
71
11
73
21
71
0
LINE
8
Layer_1
6
CONTINUOUS
62
7
10
83
20
68
11
83
21
65
0
LINE
8
Layer_1
6
CONTINUOUS
62
7
10
80
20
65
11
83
21
65
0
LINE
8
Layer_1
6
CONTINUOUS
62
7
10
73
20
71
11
70
21
71
0
LINE
8
Layer_1
6
CONTINUOUS
62
7
10
70
20
68
11
70
21
71
0
CIRCLE
8
Layer_1
6
CONTINUOUS
62
7
10
73
20
68
40
2.1499999999999773
0
CIRCLE
8
Layer_1
6
CONTINUOUS
62
7
10
80
20
68
40
2.1499999999999773
0
LINE
8
Layer_1
6
CONTINUOUS
62
7
10
24.977192610277143
20
40.770086563757289
11
24.977192610277143
21
41.770086563757289
0
LINE
8
Layer_1
6
CONTINUOUS
62
7
10
24.977192610277143
20
41.770086563757289
11
22.977192610277143
21
41.770086563757289
0
LINE
8
Layer_1
6
CONTINUOUS
62
7
10
22.977192610277143
20
41.770086563757289
11
22.977192610277143
21
38.770086563757289
0
LINE
8
Layer_1
6
CONTINUOUS
62
7
10
22.977192610277143
20
38.770086563757289
11
19.977192610277143
21
38.770086563757289
0
LINE
8
Layer_1
6
CONTINUOUS
62
7
10
19.977192610277143
20
38.770086563757289
11
19.977192610277143
21
47.770086563757289
0
LINE
8
Layer_1
6
CONTINUOUS
62
7
10
19.977192610277143
20
47.770086563757289
11
22.977192610277143
21
47.770086563757289
0
LINE
8
Layer_1
6
CONTINUOUS
62
7
10
22.977192610277143
20
47.770086563757289
11
22.977192610277143
21
44.770086563757289
0
LINE
8
Layer_1
6
CONTINUOUS
62
7
10
22.977192610277143
20
44.770086563757289
11
24.977192610277143
21
44.770086563757289
0
LINE
8
Layer_1
6
CONTINUOUS
62
7
10
24.977192610277143
20
44.770086563757289
11
24.977192610277143
21
45.770086563757289
0
ARC
8
Layer_1
6
CONTINUOUS
62
7
10
95.977192610277143
20
45.770086563757289
40
3
50
0
51
180
0
ARC
8
Layer_1
6
CONTINUOUS
62
7
10
37.977192610277143
20
45.770086563757289
40
3
50
0
51
180
0
LINE
8
Layer_1
6
CONTINUOUS
62
7
10
24.977192610277143
20
40.770086563757289
11
103.97719261027714
21
40.770086563757289
0
LINE
8
Layer_1
6
CONTINUOUS
62
7
10
101.97719261027714
20
45.770086563757289
11
98.977192610277143
21
45.770086563757289
0
LINE
8
Layer_1
6
CONTINUOUS
62
7
10
92.977192610277143
20
45.770086563757289
11
40.977192610277143
21
45.770086563757289
0
LINE
8
Layer_1
6
CONTINUOUS
62
7
10
34.977192610277143
20
45.770086563757289
11
24.977192610277143
21
45.770086563757289
0
POLYLINE
8
Layer_1
6
CONTINUOUS
62
7
66
1
10
0
20
0
70
128
40
0
41
0
0
VERTEX
8
Layer_1
6
CONTINUOUS
62
7
10
101.97719261027714
20
45.770086563757289
0
VERTEX
8
Layer_1
6
CONTINUOUS
62
7
10
104.1665547992923
20
45.748317318442027
0
VERTEX
8
Layer_1
6
CONTINUOUS
62
7
10
106.35914478260032
20
45.688814714580317
0
VERTEX
8
Layer_1
6
CONTINUOUS
62
7
10
108.55421768459519
20
45.60028645029827
0
VERTEX
8
Layer_1
6
CONTINUOUS
62
7
10
110.75102862967086
20
45.491440223721966
0
VERTEX
8
Layer_1
6
CONTINUOUS
62
7
10
115.14688514664036
20
45.247624676191052
0
VERTEX
8
Layer_1
6
CONTINUOUS
62
7
10
117.34444096732207
20
45.130070751488645
0
VERTEX
8
Layer_1
6
CONTINUOUS
62
7
10
119.54075532866037
20
45.027029656996419
0
VERTEX
8
Layer_1
6
CONTINUOUS
62
7
10
121.7350833550492
20
44.947209090840474
0
VERTEX
8
Layer_1
6
CONTINUOUS
62
7
10
123.92668017088249
20
44.899316751146898
0
VERTEX
8
Layer_1
6
CONTINUOUS
62
7
10
126.11480090055419
20
44.892060336041808
0
VERTEX
8
Layer_1
6
CONTINUOUS
62
7
10
128.29870066845825
20
44.934147543651314
0
VERTEX
8
Layer_1
6
CONTINUOUS
62
7
10
129.38883491812055
20
44.97641616163844
0
VERTEX
8
Layer_1
6
CONTINUOUS
62
7
10
130.47763459898863
20
45.034286072101509
0
VERTEX
8
Layer_1
6
CONTINUOUS
62
7
10
131.56500660161183
20
45.108845737306282
0
VERTEX
8
Layer_1
6
CONTINUOUS
62
7
10
132.65085781653931
20
45.201183619518503
0
VERTEX
8
Layer_1
6
CONTINUOUS
62
7
10
133.73509513432035
20
45.312388181003953
0
VERTEX
8
Layer_1
6
CONTINUOUS
62
7
10
134.81762544550418
20
45.443547884028391
0
VERTEX
8
Layer_1
6
CONTINUOUS
62
7
10
135.89835564064003
20
45.595751190857584
0
VERTEX
8
Layer_1
6
CONTINUOUS
62
7
10
136.97719261027714
20
45.770086563757289
0
VERTEX
8
Layer_1
6
CONTINUOUS
62
7
10
138.6710025592032
20
46.078058450135281
0
VERTEX
8
Layer_1
6
CONTINUOUS
62
7
10
140.36225051122665
20
46.418118397423314
0
VERTEX
8
Layer_1
6
CONTINUOUS
62
7
10
142.04951946714306
20
46.790662624387011
0
VERTEX
8
Layer_1
6
CONTINUOUS
62
7
10
143.73139242774789
20
47.196087349791995
0
VERTEX
8
Layer_1
6
CONTINUOUS
62
7
10
145.40645239383673
20
47.634788792403882
0
VERTEX
8
Layer_1
6
CONTINUOUS
62
7
10
147.07328236620506
20
48.107163170988294
0
VERTEX
8
Layer_1
6
CONTINUOUS
62
7
10
148.73046534564847
20
48.613606704310847
0
VERTEX
8
Layer_1
6
CONTINUOUS
62
7
10
150.37658433296241
20
49.154515611137157
0
VERTEX
8
Layer_1
6
CONTINUOUS
62
7
10
152.01022232894246
20
49.730286110232846
0
VERTEX
8
Layer_1
6
CONTINUOUS
62
7
10
153.62996233438406
20
50.341314420363531
0
VERTEX
8
Layer_1
6
CONTINUOUS
62
7
10
155.23438735008284
20
50.987996760294834
0
VERTEX
8
Layer_1
6
CONTINUOUS
62
7
10
156.82208037683426
20
51.670729348792385
0
VERTEX
8
Layer_1
6
CONTINUOUS
62
7
10
158.39162441543391
20
52.389908404621785
0
VERTEX
8
Layer_1
6
CONTINUOUS
62
7
10
159.94160246667724
20
53.145930146548658
0
VERTEX
8
Layer_1
6
CONTINUOUS
62
7
10
161.4705975313598
20
53.939190793338611
0
VERTEX
8
Layer_1
6
CONTINUOUS
62
7
10
162.97719261027714
20
54.770086563757289
0
VERTEX
8
Layer_1
6
CONTINUOUS
62
7
10
163.60488162949505
20
55.158764377688982
0
VERTEX
8
Layer_1
6
CONTINUOUS
62
7
10
164.21570865843563
20
55.598036608846634
0
VERTEX
8
Layer_1
6
CONTINUOUS
62
7
10
164.81093932180903
20
56.083360410256489
0
VERTEX
8
Layer_1
6
CONTINUOUS
62
7
10
165.39183924432547
20
56.610192934944777
0
VERTEX
8
Layer_1
6
CONTINUOUS
62
7
10
165.95967405069513
20
57.173991335937721
0
VERTEX
8
Layer_1
6
CONTINUOUS
62
7
10
166.51570936562825
20
57.770212766261565
0
VERTEX
8
Layer_1
6
CONTINUOUS
62
7
10
167.06121081383498
20
58.394314378942525
0
VERTEX
8
Layer_1
6
CONTINUOUS
62
7
10
167.59744402002556
20
59.04175332700683
0
VERTEX
8
Layer_1
6
CONTINUOUS
62
7
10
168.12567460891017
20
59.707986763480733
0
VERTEX
8
Layer_1
6
CONTINUOUS
62
7
10
168.64716820519905
20
60.388471841390448
0
VERTEX
8
Layer_1
6
CONTINUOUS
62
7
10
169.67500691883032
20
61.774025533622236
0
VERTEX
8
Layer_1
6
CONTINUOUS
62
7
10
170.69108515860103
20
63.16207162791207
0
VERTEX
8
Layer_1
6
CONTINUOUS
62
7
10
171.70552792219274
20
64.516267348469796
0
VERTEX
8
Layer_1
6
CONTINUOUS
62
7
10
172.215300062197
20
65.169314201164696
0
VERTEX
8
Layer_1
6
CONTINUOUS
62
7
10
172.72846020728707
20
65.800269919505254
0
VERTEX
8
Layer_1
6
CONTINUOUS
62
7
10
173.24627398217325
20
66.404591656517709
0
VERTEX
8
Layer_1
6
CONTINUOUS
62
7
10
173.77000701156567
20
66.977736565228298
0
VERTEX
8
Layer_1
6
CONTINUOUS
62
7
10
174.30092492017457
20
67.515161798663229
0
VERTEX
8
Layer_1
6
CONTINUOUS
62
7
10
174.84029333271013
20
68.012324509848767
0
VERTEX
8
Layer_1
6
CONTINUOUS
62
7
10
175.38937787388258
20
68.464681851811122
0
VERTEX
8
Layer_1
6
CONTINUOUS
62
7
10
175.94944416840212
20
68.867690977576515
0
VERTEX
8
Layer_1
6
CONTINUOUS
62
7
10
176.52175784097892
20
69.216809040171199
0
VERTEX
8
Layer_1
6
CONTINUOUS
62
7
10
176.81290295176072
20
69.369739283100216
0
VERTEX
8
Layer_1
6
CONTINUOUS
62
7
10
177.10758451632319
20
69.507493192621382
0
VERTEX
8
Layer_1
6
CONTINUOUS
62
7
10
177.40596073775507
20
69.629502912862975
0
VERTEX
8
Layer_1
6
CONTINUOUS
62
7
10
177.70818981914513
20
69.735200587953301
0
VERTEX
8
Layer_1
6
CONTINUOUS
62
7
10
178.01442996358219
20
69.824018362020638
0
VERTEX
8
Layer_1
6
CONTINUOUS
62
7
10
178.32483937415498
20
69.895388379193236
0
VERTEX
8
Layer_1
6
CONTINUOUS
62
7
10
178.63957625395227
20
69.948742783599386
0
VERTEX
8
Layer_1
6
CONTINUOUS
62
7
10
178.9587988060629
20
69.983513719367352
0
VERTEX
8
Layer_1
6
CONTINUOUS
62
7
10
179.28266523357559
20
69.999133330625426
0
VERTEX
8
Layer_1
6
CONTINUOUS
62
7
10
179.61133373957909
20
69.995033761501915
0
VERTEX
8
Layer_1
6
CONTINUOUS
62
7
10
179.94496252716226
20
69.970647156125068
0
VERTEX
8
Layer_1
6
CONTINUOUS
62
7
10
180.28370979941377
20
69.925405658623148
0
VERTEX
8
Layer_1
6
CONTINUOUS
62
7
10
180.62773375942248
20
69.858741413124463
0
VERTEX
8
Layer_1
6
CONTINUOUS
62
7
10
180.97719261027714
20
69.770086563757289
0
VERTEX
8
Layer_1
6
CONTINUOUS
62
7
10
181.27772140623367
20
69.668390053281854
0
VERTEX
8
Layer_1
6
CONTINUOUS
62
7
10
181.57614487728978
20
69.535389440796479
0
VERTEX
8
Layer_1
6
CONTINUOUS
62
7
10
181.86968477032539
20
69.373555505602582
0
VERTEX
8
Layer_1
6
CONTINUOUS
62
7
10
182.15556283222037
20
69.185359027001638
0
VERTEX
8
Layer_1
6
CONTINUOUS
62
7
10
182.43100080985465
20
68.973270784295039
0
VERTEX
8
Layer_1
6
CONTINUOUS
62
7
10
182.69322045010813
20
68.739761556784174
0
VERTEX
8
Layer_1
6
CONTINUOUS
62
7
10
182.93944349986069
20
68.487302123770533
0
VERTEX
8
Layer_1
6
CONTINUOUS
62
7
10
183.16689170599224
20
68.218363264555535
0
VERTEX
8
Layer_1
6
CONTINUOUS
62
7
10
183.37278681538271
20
67.935415758440584
0
VERTEX
8
Layer_1
6
CONTINUOUS
62
7
10
183.55435057491195
20
67.640930384727113
0
VERTEX
8
Layer_1
6
CONTINUOUS
62
7
10
183.70880473145996
20
67.337377922716541
0
VERTEX
8
Layer_1
6
CONTINUOUS
62
7
10
183.83337103190655
20
67.027229151710316
0
VERTEX
8
Layer_1
6
CONTINUOUS
62
7
10
183.92527122313169
20
66.71295485100984
0
VERTEX
8
Layer_1
6
CONTINUOUS
62
7
10
183.9817270520152
20
66.397025799916563
0
VERTEX
8
Layer_1
6
CONTINUOUS
62
7
10
183.99996026543704
20
66.081912777731901
0
VERTEX
8
Layer_1
6
CONTINUOUS
62
7
10
183.97719261027714
20
65.770086563757289
0
VERTEX
8
Layer_1
6
CONTINUOUS
62
7
10
183.90782335716133
20
65.475813572418019
0
VERTEX
8
Layer_1
6
CONTINUOUS
62
7
10
183.79138720283709
20
65.209721025436608
0
VERTEX
8
Layer_1
6
CONTINUOUS
62
7
10
183.63280903336664
20
64.96882091306037
0
VERTEX
8
Layer_1
6
CONTINUOUS
62
7
10
183.43701373481224
20
64.750125225536578
0
VERTEX
8
Layer_1
6
CONTINUOUS
62
7
10
183.20892619323621
20
64.55064595311255
0
VERTEX
8
Layer_1
6
CONTINUOUS
62
7
10
182.95347129470076
20
64.367395086035572
0
VERTEX
8
Layer_1
6
CONTINUOUS
62
7
10
182.67557392526817
20
64.197384614552902
0
VERTEX
8
Layer_1
6
CONTINUOUS
62
7
10
182.38015897100072
20
64.037626528911886
0
VERTEX
8
Layer_1
6
CONTINUOUS
62
7
10
181.75647585221023
20
63.736915476143892
0
VERTEX
8
Layer_1
6
CONTINUOUS
62
7
10
181.12182102682743
20
63.441357849709895
0
VERTEX
8
Layer_1
6
CONTINUOUS
62
7
10
180.51559358335038
20
63.127049571588252
0
VERTEX
8
Layer_1
6
CONTINUOUS
62
7
10
180.23545234498215
20
62.955393913762791
0
VERTEX
8
Layer_1
6
CONTINUOUS
62
7
10
179.97719261027714
20
62.770086563757289
0
VERTEX
8
Layer_1
6
CONTINUOUS
62
7
10
179.21678254282276
20
62.157116136944666
0
VERTEX
8
Layer_1
6
CONTINUOUS
62
7
10
178.46898939158342
20
61.527118056945909
0
VERTEX
8
Layer_1
6
CONTINUOUS
62
7
10
177.00162906013171
20
60.229259260328142
0
VERTEX
8
Layer_1
6
CONTINUOUS
62
7
10
174.11243883800955
20
57.574633381178458
0
VERTEX
8
Layer_1
6
CONTINUOUS
62
7
10
172.65210983686671
20
56.270747590399026
0
VERTEX
8
Layer_1
6
CONTINUOUS
62
7
10
171.90959018335903
20
55.636229264779018
0
VERTEX
8
Layer_1
6
CONTINUOUS
62
7
10
171.15562550202117
20
55.01773409331819
0
VERTEX
8
Layer_1
6
CONTINUOUS
62
7
10
170.38780959844854
20
54.418567156751067
0
VERTEX
8
Layer_1
6
CONTINUOUS
62
7
10
169.60373627823668
20
53.842033535812192
0
VERTEX
8
Layer_1
6
CONTINUOUS
62
7
10
168.80099934698109
20
53.291438311236092
0
VERTEX
8
Layer_1
6
CONTINUOUS
62
7
10
167.97719261027714
20
52.770086563757289
0
VERTEX
8
Layer_1
6
CONTINUOUS
62
7
10
166.18668326357681
20
51.711942590229469
0
VERTEX
8
Layer_1
6
CONTINUOUS
62
7
10
164.37051244182845
20
50.690205553831547
0
VERTEX
8
Layer_1
6
CONTINUOUS
62
7
10
162.52997929959088
20
49.705878081565047
0
VERTEX
8
Layer_1
6
CONTINUOUS
62
7
10
160.66638299142301
20
48.759962800431495
0
VERTEX
8
Layer_1
6
CONTINUOUS
62
7
10
158.78102267188373
20
47.85346233743244
0
VERTEX
8
Layer_1
6
CONTINUOUS
62
7
10
156.87519749553189
20
46.987379319569399
0
VERTEX
8
Layer_1
6
CONTINUOUS
62
7
10
154.95020661692644
20
46.162716373843907
0
VERTEX
8
Layer_1
6
CONTINUOUS
62
7
10
153.00734919062614
20
45.380476127257509
0
VERTEX
8
Layer_1
6
CONTINUOUS
62
7
10
151.04792437118999
20
44.641661206811719
0
VERTEX
8
Layer_1
6
CONTINUOUS
62
7
10
149.07323131317676
20
43.94727423950809
0
VERTEX
8
Layer_1
6
CONTINUOUS
62
7
10
147.0845691711454
20
43.298317852348148
0
VERTEX
8
Layer_1
6
CONTINUOUS
62
7
10
145.08323709965478
20
42.695794672333413
0
VERTEX
8
Layer_1
6
CONTINUOUS
62
7
10
143.07053425326376
20
42.140707326465424
0
VERTEX
8
Layer_1
6
CONTINUOUS
62
7
10
141.04775978653123
20
41.634058441745722
0
VERTEX
8
Layer_1
6
CONTINUOUS
62
7
10
139.01621285401609
20
41.176850645175833
0
VERTEX
8
Layer_1
6
CONTINUOUS
62
7
10
136.97719261027714
20
40.770086563757289
0
VERTEX
8
Layer_1
6
CONTINUOUS
62
7
10
135.96237351537047
20
40.592508932205675
0
VERTEX
8
Layer_1
6
CONTINUOUS
62
7
10
134.94546849910961
20
40.437474975002971
0
VERTEX
8
Layer_1
6
CONTINUOUS
62
7
10
133.92658014779065
20
40.303875986853321
0
VERTEX
8
Layer_1
6
CONTINUOUS
62
7
10
132.9058110477097
20
40.190603262460883
0
VERTEX
8
Layer_1
6
CONTINUOUS
62
7
10
131.88326378516291
20
40.096548096529801
0
VERTEX
8
Layer_1
6
CONTINUOUS
62
7
10
130.8590409464463
20
40.020601783764235
0
VERTEX
8
Layer_1
6
CONTINUOUS
62
7
10
129.83324511785605
20
39.961655618868321
0
VERTEX
8
Layer_1
6
CONTINUOUS
62
7
10
128.80597888568823
20
39.918600896546238
0
VERTEX
8
Layer_1
6
CONTINUOUS
62
7
10
126.7474455558044
20
39.87573095844013
0
VERTEX
8
Layer_1
6
CONTINUOUS
62
7
10
124.68426164716368
20
39.883122327079107
0
VERTEX
8
Layer_1
6
CONTINUOUS
62
7
10
122.61724785013493
20
39.931905360096408
0
VERTEX
8
Layer_1
6
CONTINUOUS
62
7
10
120.54722485508699
20
40.013210415125243
0
VERTEX
8
Layer_1
6
CONTINUOUS
62
7
10
118.47501335238877
20
40.118167849798823
0
VERTEX
8
Layer_1
6
CONTINUOUS
62
7
10
116.40143403240907
20
40.237908021750378
0
VERTEX
8
Layer_1
6
CONTINUOUS
62
7
10
112.25345470208083
20
40.486258008020272
0
VERTEX
8
Layer_1
6
CONTINUOUS
62
7
10
110.18069607247001
20
40.597128537605045
0
VERTEX
8
Layer_1
6
CONTINUOUS
62
7
10
108.10985238705322
20
40.687303235000655
0
VERTEX
8
Layer_1
6
CONTINUOUS
62
7
10
106.04174433619932
20
40.747912457840336
0
VERTEX
8
Layer_1
6
CONTINUOUS
62
7
10
103.97719261027714
20
40.770086563757289
0
SEQEND
0
CIRCLE
8
Layer_1
6
CONTINUOUS
62
7
10
37.977192610277143
20
45.770086563757289
40
2
0
CIRCLE
8
Layer_1
6
CONTINUOUS
62
7
10
95.977192610277143
20
45.770086563757289
40
2
0
POLYLINE
8
Layer_1
6
CONTINUOUS
62
7
66
1
10
0
20
0
70
128
40
0
41
0
0
VERTEX
8
Layer_1
6
CONTINUOUS
62
7
10
44.999999999999972
20
79
0
VERTEX
8
Layer_1
6
CONTINUOUS
62
7
10
84
20
79
0
VERTEX
8
Layer_1
6
CONTINUOUS
62
7
10
84
20
55.999999999999993
0
SEQEND
0
POLYLINE
8
Layer_1
6
CONTINUOUS
62
7
66
1
10
0
20
0
70
128
40
0
41
0
0
VERTEX
8
Layer_1
6
CONTINUOUS
62
7
10
88.229222581613158
20
49.825166703326197
0
VERTEX
8
Layer_1
6
CONTINUOUS
62
7
10
89.25932588524249
20
52.441482051731086
0
VERTEX
8
Layer_1
6
CONTINUOUS
62
7
10
89.784956915686479
20
53.729392703456874
0
VERTEX
8
Layer_1
6
CONTINUOUS
62
7
10
90.325168403820271
20
54.989398989065506
0
VERTEX
8
Layer_1
6
CONTINUOUS
62
7
10
90.885606003596507
20
56.21069614520745
0
VERTEX
8
Layer_1
6
CONTINUOUS
62
7
10
91.471915368967871
20
57.382479408533172
0
VERTEX
8
Layer_1
6
CONTINUOUS
62
7
10
91.776536230611924
20
57.94642684184322
0
VERTEX
8
Layer_1
6
CONTINUOUS
62
7
10
92.089742153887016
20
58.493944015693131
0
VERTEX
8
Layer_1
6
CONTINUOUS
62
7
10
92.412238845537217
20
59.02368033466422
0
VERTEX
8
Layer_1
6
CONTINUOUS
62
7
10
92.744732012306599
20
59.534285203337788
0
VERTEX
8
Layer_1
6
CONTINUOUS
62
7
10
93.08792736093929
20
60.024408026295148
0
VERTEX
8
Layer_1
6
CONTINUOUS
62
7
10
93.442530598179331
20
60.492698208117609
0
VERTEX
8
Layer_1
6
CONTINUOUS
62
7
10
93.80924743077081
20
60.937805153386478
0
VERTEX
8
Layer_1
6
CONTINUOUS
62
7
10
94.18878356545784
20
61.358378266683061
0
VERTEX
8
Layer_1
6
CONTINUOUS
62
7
10
94.581844708984477
20
61.753066952588675
0
VERTEX
8
Layer_1
6
CONTINUOUS
62
7
10
94.989136568094807
20
62.120520615684619
0
VERTEX
8
Layer_1
6
CONTINUOUS
62
7
10
95.41136484953293
20
62.459388660552193
0
VERTEX
8
Layer_1
6
CONTINUOUS
62
7
10
95.849235260042917
20
62.76832049177272
0
VERTEX
8
Layer_1
6
CONTINUOUS
62
7
10
96.303453506368839
20
63.045965513927499
0
VERTEX
8
Layer_1
6
CONTINUOUS
62
7
10
96.774725295254825
20
63.290973131597845
0
VERTEX
8
Layer_1
6
CONTINUOUS
62
7
10
97.263756333444903
20
63.501992749365058
0
VERTEX
8
Layer_1
6
CONTINUOUS
62
7
10
97.771252327683186
20
63.677673771810454
0
VERTEX
8
Layer_1
6
CONTINUOUS
62
7
10
98.29791898471376
20
63.816665603515339
0
VERTEX
8
Layer_1
6
CONTINUOUS
62
7
10
98.844462011280683
20
63.917617649061015
0
VERTEX
8
Layer_1
6
CONTINUOUS
62
7
10
99.411587114128082
20
63.979179313028801
0
VERTEX
8
Layer_1
6
CONTINUOUS
62
7
10
100
20
63.999999999999993
0
VERTEX
8
Layer_1
6
CONTINUOUS
62
7
10
100.58842686977522
20
63.979178302023449
0
VERTEX
8
Layer_1
6
CONTINUOUS
62
7
10
101.15556491729261
20
63.917613638145227
0
VERTEX
8
Layer_1
6
CONTINUOUS
62
7
10
101.70211987524351
20
63.816656653442422
0
VERTEX
8
Layer_1
6
CONTINUOUS
62
7
10
102.2287974763193
20
63.677657992992124
0
VERTEX
8
Layer_1
6
CONTINUOUS
62
7
10
102.73630345321132
20
63.501968301871422
0
VERTEX
8
Layer_1
6
CONTINUOUS
62
7
10
103.22534353861093
20
63.290938225157426
0
VERTEX
8
Layer_1
6
CONTINUOUS
62
7
10
103.69662346520948
20
63.045918407927225
0
VERTEX
8
Layer_1
6
CONTINUOUS
62
7
10
104.15084896569836
20
62.768259495257894
0
VERTEX
8
Layer_1
6
CONTINUOUS
62
7
10
104.5887257727689
20
62.459312132226543
0
VERTEX
8
Layer_1
6
CONTINUOUS
62
7
10
105.01095961911246
20
62.120426963910269
0
VERTEX
8
Layer_1
6
CONTINUOUS
62
7
10
105.41825623742041
20
61.75295463538616
0
VERTEX
8
Layer_1
6
CONTINUOUS
62
7
10
105.81132136038408
20
61.358245791731314
0
VERTEX
8
Layer_1
6
CONTINUOUS
62
7
10
106.19086072069487
20
60.937651078022824
0
VERTEX
8
Layer_1
6
CONTINUOUS
62
7
10
106.55758005104408
20
60.492521139337782
0
VERTEX
8
Layer_1
6
CONTINUOUS
62
7
10
106.91218508412314
20
60.02420662075329
0
VERTEX
8
Layer_1
6
CONTINUOUS
62
7
10
107.25538155262333
20
59.53405816734643
0
VERTEX
8
Layer_1
6
CONTINUOUS
62
7
10
107.58787518923606
20
59.023426424194298
0
VERTEX
8
Layer_1
6
CONTINUOUS
62
7
10
107.91037172665267
20
58.493662036373991
0
VERTEX
8
Layer_1
6
CONTINUOUS
62
7
10
108.22357689756454
20
57.946115648962611
0
VERTEX
8
Layer_1
6
CONTINUOUS
62
7
10
108.528196434663
20
57.382137907037247
0
VERTEX
8
Layer_1
6
CONTINUOUS
62
7
10
109.11450153818514
20
56.210290939952941
0
VERTEX
8
Layer_1
6
CONTINUOUS
62
7
10
109.67493289874997
20
54.988926295737826
0
VERTEX
8
Layer_1
6
CONTINUOUS
62
7
10
110.21513637788834
20
53.728849135008645
0
VERTEX
8
Layer_1
6
CONTINUOUS
62
7
10
110.74075783713113
20
52.440864618382165
0
VERTEX
8
Layer_1
6
CONTINUOUS
62
7
10
111.77083814205332
20
49.824394159904323
0
SEQEND
0
LINE
8
Layer_1
6
CONTINUOUS
62
7
10
100
20
84
11
72
21
84
0
LINE
8
Layer_1
6
CONTINUOUS
62
7
10
39
20
84
11
25
21
84
0
LINE
8
Layer_1
6
CONTINUOUS
62
7
10
100
20
84
11
175
21
84
0
POLYLINE
8
Layer_1
6
CONTINUOUS
62
7
66
1
10
0
20
0
70
128
40
0
41
0
0
VERTEX
8
Layer_1
6
CONTINUOUS
62
7
10
44.999999999999972
20
79
0
VERTEX
8
Layer_1
6
CONTINUOUS
62
7
10
25
20
79
0
VERTEX
8
Layer_1
6
CONTINUOUS
62
7
10
25
20
80
0
SEQEND
0
POLYLINE
8
Layer_1
6
CONTINUOUS
62
7
66
1
10
0
20
0
70
128
40
0
41
0
0
VERTEX
8
Layer_1
6
CONTINUOUS
62
7
10
25
20
83
0
VERTEX
8
Layer_1
6
CONTINUOUS
62
7
10
25
20
84
0
VERTEX
8
Layer_1
6
CONTINUOUS
62
7
10
39
20
84
0
SEQEND
0
POLYLINE
8
Layer_1
6
CONTINUOUS
62
7
66
1
10
0
20
0
70
128
40
0
41
0
0
VERTEX
8
Layer_1
6
CONTINUOUS
62
7
10
72
20
84
0
VERTEX
8
Layer_1
6
CONTINUOUS
62
7
10
175
20
84
0
VERTEX
8
Layer_1
6
CONTINUOUS
62
7
10
175
20
83
0
SEQEND
0
POLYLINE
8
Layer_1
6
CONTINUOUS
62
7
66
1
10
0
20
0
70
128
40
0
41
0
0
VERTEX
8
Layer_1
6
CONTINUOUS
62
7
10
175
20
80
0
VERTEX
8
Layer_1
6
CONTINUOUS
62
7
10
175
20
79
0
VERTEX
8
Layer_1
6
CONTINUOUS
62
7
10
155
20
79
0
SEQEND
0
POLYLINE
8
Layer_1
6
CONTINUOUS
62
7
66
1
10
0
20
0
70
128
40
0
41
0
0
VERTEX
8
Layer_1
6
CONTINUOUS
62
7
10
116
20
50.999999999999993
0
VERTEX
8
Layer_1
6
CONTINUOUS
62
7
10
116
20
79
0
VERTEX
8
Layer_1
6
CONTINUOUS
62
7
10
155
20
79
0
SEQEND
0
LINE
8
Layer_1
6
CONTINUOUS
62
7
10
84
20
55.999999999999993
11
84
21
50.999999999999993
0
ARC
8
Layer_1
6
CONTINUOUS
62
7
10
86
20
49.999999999999993
40
2.2360679774997898
50
153.43494882730749
51
355.51559043444428
0
ARC
8
Layer_1
6
CONTINUOUS
62
7
10
114
20
49.999999999999993
40
2.2360679774997885
50
184.50426584589829
51
26.56505117783729
0
LINE
8
Layer_1
6
CONTINUOUS
62
7
10
25
20
84
11
25
21
83
0
LINE
8
Layer_1
6
CONTINUOUS
62
7
10
25
20
83
11
23
21
83
0
LINE
8
Layer_1
6
CONTINUOUS
62
7
10
23
20
83
11
23
21
86
0
LINE
8
Layer_1
6
CONTINUOUS
62
7
10
23
20
86
11
20
21
86
0
LINE
8
Layer_1
6
CONTINUOUS
62
7
10
20
20
86
11
20
21
77
0
LINE
8
Layer_1
6
CONTINUOUS
62
7
10
20
20
77
11
23
21
77
0
LINE
8
Layer_1
6
CONTINUOUS
62
7
10
23
20
77
11
23
21
80
0
LINE
8
Layer_1
6
CONTINUOUS
62
7
10
23
20
80
11
25
21
80
0
LINE
8
Layer_1
6
CONTINUOUS
62
7
10
25
20
80
11
25
21
79
0
LINE
8
Layer_1
6
CONTINUOUS
62
7
10
175
20
84
11
175
21
83
0
LINE
8
Layer_1
6
CONTINUOUS
62
7
10
175
20
83
11
177
21
83
0
LINE
8
Layer_1
6
CONTINUOUS
62
7
10
177
20
83
11
177
21
86
0
LINE
8
Layer_1
6
CONTINUOUS
62
7
10
177
20
86
11
180
21
86
0
LINE
8
Layer_1
6
CONTINUOUS
62
7
10
180
20
86
11
180
21
77
0
LINE
8
Layer_1
6
CONTINUOUS
62
7
10
180
20
77
11
177
21
77
0
LINE
8
Layer_1
6
CONTINUOUS
62
7
10
177
20
77
11
177
21
80
0
LINE
8
Layer_1
6
CONTINUOUS
62
7
10
177
20
80
11
175
21
80
0
LINE
8
Layer_1
6
CONTINUOUS
62
7
10
175
20
80
11
175
21
79
0
POLYLINE
8
Layer_1
6
CONTINUOUS
62
7
66
1
10
0
20
0
70
128
40
0
41
0
0
VERTEX
8
Layer_1
6
CONTINUOUS
62
7
10
39
20
84
0
VERTEX
8
Layer_1
6
CONTINUOUS
62
7
10
39
20
96
0
VERTEX
8
Layer_1
6
CONTINUOUS
62
7
10
72
20
96
0
VERTEX
8
Layer_1
6
CONTINUOUS
62
7
10
72
20
84
0
SEQEND
0
ENDSEC
0
EOF
