0
SECTION
2
HEADER
9
$ANGDIR
70
0
9
$CHAMFERA
40
10
9
$CHAMFERB
40
10
9
$CLAYER
8
Layer_1
9
$EXTMAX
10
169
20
99
9
$EXTMIN
10
0.99999999994302735
20
38
9
$LIMMAX
10
300
20
100
9
$LIMMIN
10
0
20
0
9
$LTSCALE
40
10
9
$PLINEGEN
70
0
9
$TEXTSIZE
40
20
9
$GRIDUNIT
10
1
20
1
9
$SNAPUNIT
10
1
20
1
0
ENDSEC
0
SECTION
2
TABLES
0
TABLE
2
STYLE
70
1
0
STYLE
2
STANDARD
70
0
40
0
41
1
50
0
71
0
42
0.20000000000000001
3
txt
4

0
ENDTAB
0
TABLE
2
LTYPE
70
14
0
LTYPE
2
CONTINUOUS
70
0
3
Solid line
72
65
73
0
40
0
0
LTYPE
2
DOT
70
0
3
............................................
72
65
73
2
40
0.25
49
0
49
-0.25
0
LTYPE
2
HIDDEN
70
0
3
_ _ _ _ _ _ _ _ _ _ _ _ _ _ _ _ _ _ _ _ _ _ 
72
65
73
2
40
0.375
49
0.25
49
-0.125
0
LTYPE
2
TSLONGDASH
70
0
3
__ __ __ __ __ __ __ __ __ __ __ __ __ __ _ 
72
65
73
2
40
1.28
49
1
49
-0.28000000000000003
0
LTYPE
2
TSDASHDOT
70
0
3
______ . ______ . ______ . ______ . ______ .
72
65
73
4
40
1.28
49
1
49
-0.14000000000000001
49
0
49
-0.14000000000000001
0
LTYPE
2
TSCENTER
70
0
3
______ _ ______ _ ______ _ ______ _ ______ _
72
65
73
4
40
2
49
1.5
49
-0.17999999999999999
49
0.14000000000000001
49
-0.17999999999999999
0
LTYPE
2
TSPHANTOM
70
0
3
_____ _ _ _____ _ _ _____ _ _ _____ _ _ ____
72
65
73
6
40
2.5
49
1.6299999999999999
49
-0.19
49
0.14999999999999999
49
-0.19
49
0.14999999999999999
49
-0.19
0
LTYPE
2
DASHED
70
0
3
__ __ __ __ __ __ __ __ __ __ __ __ __ __ __
72
65
73
2
40
0.75
49
0.5
49
-0.25
0
LTYPE
2
CENTER
70
0
3
____ _ ____ _ ____ _ ____ _ ____ _ ____ _ __
72
65
73
4
40
2
49
1.25
49
-0.25
49
0.25
49
-0.25
0
LTYPE
2
PHANTOM
70
0
3
_____ _ _ _____ _ _ _____ _ _ _____ _ _ ____
72
65
73
6
40
2.5
49
1.25
49
-0.25
49
0.25
49
-0.25
49
0.25
49
-0.25
0
LTYPE
2
DASHDOT
70
0
3
__ . __ . __ . __ . __ . __ . __ . __ . __ .
72
65
73
4
40
1
49
0.5
49
-0.25
49
0
49
-0.25
0
LTYPE
2
BORDER
70
0
3
__ __ . __ __ . __ __ . __ __ . __ __ . __ _
72
65
73
6
40
1.75
49
0.5
49
-0.25
49
0.5
49
-0.25
49
0
49
-0.25
0
LTYPE
2
DIVIDE
70
0
3
__ . . __ . . __ . . __ . . __ . . __ . . __
72
65
73
6
40
1.25
49
0.5
49
-0.25
49
0
49
-0.25
49
0
49
-0.25
0
ENDTAB
0
TABLE
2
LAYER
70
3
0
LAYER
2
Layer_1
70
0
62
7
6
CONTINUOUS
0
LAYER
2
Layer_2
70
0
62
7
6
CONTINUOUS
0
LAYER
2
Layer_3
70
0
62
7
6
CONTINUOUS
0
ENDTAB
0
ENDSEC
0
SECTION
2
ENTITIES
0
POLYLINE
8
Layer_1
6
CONTINUOUS
62
7
66
1
10
0
20
0
70
128
40
0
41
0
0
VERTEX
8
Layer_1
6
CONTINUOUS
62
7
10
34.999999999999972
20
92
0
VERTEX
8
Layer_1
6
CONTINUOUS
62
7
10
74
20
92
0
VERTEX
8
Layer_1
6
CONTINUOUS
62
7
10
74
20
69
0
SEQEND
0
POLYLINE
8
Layer_1
6
CONTINUOUS
62
7
66
1
10
0
20
0
70
128
40
0
41
0
0
VERTEX
8
Layer_1
6
CONTINUOUS
62
7
10
74
20
69
0
VERTEX
8
Layer_1
6
CONTINUOUS
62
7
10
74.488630572661748
20
69.740509033203111
0
VERTEX
8
Layer_1
6
CONTINUOUS
62
7
10
74.955989313529372
20
70.521728515624986
0
VERTEX
8
Layer_1
6
CONTINUOUS
62
7
10
75.404276756926407
20
71.339447021484361
0
VERTEX
8
Layer_1
6
CONTINUOUS
62
7
10
75.83569343717636
20
72.189453124999986
0
VERTEX
8
Layer_1
6
CONTINUOUS
62
7
10
76.252439888602765
20
73.067535400390611
0
VERTEX
8
Layer_1
6
CONTINUOUS
62
7
10
76.656716645529173
20
73.969482421874986
0
VERTEX
8
Layer_1
6
CONTINUOUS
62
7
10
77.436663213176075
20
75.828124999999986
0
VERTEX
8
Layer_1
6
CONTINUOUS
62
7
10
78.193137414705319
20
77.731689453124986
0
VERTEX
8
Layer_1
6
CONTINUOUS
62
7
10
78.943743524705127
20
79.646484374999986
0
VERTEX
8
Layer_1
6
CONTINUOUS
62
7
10
79.706085817763778
20
81.538818359374986
0
VERTEX
8
Layer_1
6
CONTINUOUS
62
7
10
80.097159368749004
20
82.466033935546861
0
VERTEX
8
Layer_1
6
CONTINUOUS
62
7
10
80.497768568469525
20
83.374999999999986
0
VERTEX
8
Layer_1
6
CONTINUOUS
62
7
10
80.91011395124886
20
84.261505126953111
0
VERTEX
8
Layer_1
6
CONTINUOUS
62
7
10
81.336396051410574
20
85.121337890624986
0
VERTEX
8
Layer_1
6
CONTINUOUS
62
7
10
81.778815403278188
20
85.950286865234361
0
VERTEX
8
Layer_1
6
CONTINUOUS
62
7
10
82.239572541175221
20
86.744140624999986
0
VERTEX
8
Layer_1
6
CONTINUOUS
62
7
10
82.720867999425224
20
87.498687744140611
0
VERTEX
8
Layer_1
6
CONTINUOUS
62
7
10
83.224902312351702
20
88.209716796874986
0
VERTEX
8
Layer_1
6
CONTINUOUS
62
7
10
83.753876014278177
20
88.873016357421861
0
VERTEX
8
Layer_1
6
CONTINUOUS
62
7
10
84.309989639528226
20
89.484374999999986
0
VERTEX
8
Layer_1
6
CONTINUOUS
62
7
10
84.598911590375678
20
89.769260406494126
0
VERTEX
8
Layer_1
6
CONTINUOUS
62
7
10
84.895443722425341
20
90.039581298828111
0
VERTEX
8
Layer_1
6
CONTINUOUS
62
7
10
85.199861102467665
20
90.294811248779283
0
VERTEX
8
Layer_1
6
CONTINUOUS
62
7
10
85.512438797293072
20
90.534423828124986
0
VERTEX
8
Layer_1
6
CONTINUOUS
62
7
10
85.833451873692013
20
90.757892608642564
0
VERTEX
8
Layer_1
6
CONTINUOUS
62
7
10
86.163175398454939
20
90.964691162109361
0
VERTEX
8
Layer_1
6
CONTINUOUS
62
7
10
86.501884438372286
20
91.15429306030272
0
VERTEX
8
Layer_1
6
CONTINUOUS
62
7
10
86.849854060234492
20
91.326171874999986
0
VERTEX
8
Layer_1
6
CONTINUOUS
62
7
10
87.207359330831991
20
91.479801177978501
0
VERTEX
8
Layer_1
6
CONTINUOUS
62
7
10
87.574675316955251
20
91.614654541015611
0
VERTEX
8
Layer_1
6
CONTINUOUS
62
7
10
87.952077085394663
20
91.730205535888658
0
VERTEX
8
Layer_1
6
CONTINUOUS
62
7
10
88.339839702940708
20
91.825927734374986
0
VERTEX
8
Layer_1
6
CONTINUOUS
62
7
10
88.738238236383836
20
91.901294708251939
0
VERTEX
8
Layer_1
6
CONTINUOUS
62
7
10
89.147547752514456
20
91.955780029296861
0
VERTEX
8
Layer_1
6
CONTINUOUS
62
7
10
89.568043318123031
20
91.988857269287095
0
VERTEX
8
Layer_1
6
CONTINUOUS
62
7
10
90
20
92
0
VERTEX
8
Layer_1
6
CONTINUOUS
62
7
10
90.431956681876969
20
91.988857269287095
0
VERTEX
8
Layer_1
6
CONTINUOUS
62
7
10
90.852452247485544
20
91.955780029296861
0
VERTEX
8
Layer_1
6
CONTINUOUS
62
7
10
91.261761763616164
20
91.901294708251939
0
VERTEX
8
Layer_1
6
CONTINUOUS
62
7
10
91.660160297059292
20
91.825927734374986
0
VERTEX
8
Layer_1
6
CONTINUOUS
62
7
10
92.047922914605337
20
91.730205535888658
0
VERTEX
8
Layer_1
6
CONTINUOUS
62
7
10
92.425324683044749
20
91.614654541015611
0
VERTEX
8
Layer_1
6
CONTINUOUS
62
7
10
92.792640669168009
20
91.479801177978501
0
VERTEX
8
Layer_1
6
CONTINUOUS
62
7
10
93.150145939765508
20
91.326171874999986
0
VERTEX
8
Layer_1
6
CONTINUOUS
62
7
10
93.498115561627714
20
91.15429306030272
0
VERTEX
8
Layer_1
6
CONTINUOUS
62
7
10
93.836824601545061
20
90.964691162109361
0
VERTEX
8
Layer_1
6
CONTINUOUS
62
7
10
94.166548126307987
20
90.757892608642564
0
VERTEX
8
Layer_1
6
CONTINUOUS
62
7
10
94.487561202706928
20
90.534423828124986
0
VERTEX
8
Layer_1
6
CONTINUOUS
62
7
10
94.800138897532335
20
90.294811248779283
0
VERTEX
8
Layer_1
6
CONTINUOUS
62
7
10
95.104556277574659
20
90.039581298828111
0
VERTEX
8
Layer_1
6
CONTINUOUS
62
7
10
95.401088409624322
20
89.769260406494126
0
VERTEX
8
Layer_1
6
CONTINUOUS
62
7
10
95.690010360471774
20
89.484374999999986
0
VERTEX
8
Layer_1
6
CONTINUOUS
62
7
10
96.246123985721823
20
88.873016357421861
0
VERTEX
8
Layer_1
6
CONTINUOUS
62
7
10
96.775097687648298
20
88.209716796874986
0
VERTEX
8
Layer_1
6
CONTINUOUS
62
7
10
97.279132000574776
20
87.498687744140611
0
VERTEX
8
Layer_1
6
CONTINUOUS
62
7
10
97.760427458824779
20
86.744140624999986
0
VERTEX
8
Layer_1
6
CONTINUOUS
62
7
10
98.221184596721812
20
85.950286865234361
0
VERTEX
8
Layer_1
6
CONTINUOUS
62
7
10
98.663603948589426
20
85.121337890624986
0
VERTEX
8
Layer_1
6
CONTINUOUS
62
7
10
99.08988604875114
20
84.261505126953111
0
VERTEX
8
Layer_1
6
CONTINUOUS
62
7
10
99.502231431530475
20
83.374999999999986
0
VERTEX
8
Layer_1
6
CONTINUOUS
62
7
10
99.902840631250996
20
82.466033935546861
0
VERTEX
8
Layer_1
6
CONTINUOUS
62
7
10
100.29391418223622
20
81.538818359374986
0
VERTEX
8
Layer_1
6
CONTINUOUS
62
7
10
101.05625647529487
20
79.646484374999986
0
VERTEX
8
Layer_1
6
CONTINUOUS
62
7
10
101.80686258529468
20
77.731689453124986
0
VERTEX
8
Layer_1
6
CONTINUOUS
62
7
10
102.56333678682392
20
75.828124999999986
0
VERTEX
8
Layer_1
6
CONTINUOUS
62
7
10
103.34328335447083
20
73.969482421874986
0
VERTEX
8
Layer_1
6
CONTINUOUS
62
7
10
103.74756011139723
20
73.067535400390611
0
VERTEX
8
Layer_1
6
CONTINUOUS
62
7
10
104.16430656282364
20
72.189453124999986
0
VERTEX
8
Layer_1
6
CONTINUOUS
62
7
10
104.59572324307359
20
71.339447021484361
0
VERTEX
8
Layer_1
6
CONTINUOUS
62
7
10
105.04401068647063
20
70.521728515624986
0
VERTEX
8
Layer_1
6
CONTINUOUS
62
7
10
105.51136942733825
20
69.740509033203111
0
VERTEX
8
Layer_1
6
CONTINUOUS
62
7
10
106
20
69
0
SEQEND
0
POLYLINE
8
Layer_1
6
CONTINUOUS
62
7
66
1
10
0
20
0
70
129
40
0
41
0
0
VERTEX
8
Layer_1
6
CONTINUOUS
62
7
10
35
20
96
0
VERTEX
8
Layer_1
6
CONTINUOUS
62
7
10
145
20
96
0
VERTEX
8
Layer_1
6
CONTINUOUS
62
7
10
145
20
94
0
VERTEX
8
Layer_1
6
CONTINUOUS
62
7
10
35
20
94
0
VERTEX
8
Layer_1
6
CONTINUOUS
62
7
10
35
20
96
0
SEQEND
0
LINE
8
Layer_1
6
CONTINUOUS
62
7
10
90
20
97
11
15
21
97
0
POLYLINE
8
Layer_1
6
CONTINUOUS
62
7
66
1
10
0
20
0
70
129
40
0
41
0
0
VERTEX
8
Layer_1
6
CONTINUOUS
62
7
10
17
20
96
0
VERTEX
8
Layer_1
6
CONTINUOUS
62
7
10
20
20
96
0
VERTEX
8
Layer_1
6
CONTINUOUS
62
7
10
20
20
93
0
VERTEX
8
Layer_1
6
CONTINUOUS
62
7
10
17
20
93
0
VERTEX
8
Layer_1
6
CONTINUOUS
62
7
10
17
20
96
0
SEQEND
0
LINE
8
Layer_1
6
CONTINUOUS
62
7
10
90
20
97
11
165
21
97
0
POLYLINE
8
Layer_1
6
CONTINUOUS
62
7
66
1
10
0
20
0
70
129
40
0
41
0
0
VERTEX
8
Layer_1
6
CONTINUOUS
62
7
10
163
20
96
0
VERTEX
8
Layer_1
6
CONTINUOUS
62
7
10
160
20
96
0
VERTEX
8
Layer_1
6
CONTINUOUS
62
7
10
160
20
93
0
VERTEX
8
Layer_1
6
CONTINUOUS
62
7
10
163
20
93
0
VERTEX
8
Layer_1
6
CONTINUOUS
62
7
10
163
20
96
0
SEQEND
0
POLYLINE
8
Layer_1
6
CONTINUOUS
62
7
66
1
10
0
20
0
70
128
40
0
41
0
0
VERTEX
8
Layer_1
6
CONTINUOUS
62
7
10
34.999999999999972
20
92
0
VERTEX
8
Layer_1
6
CONTINUOUS
62
7
10
15
20
92
0
VERTEX
8
Layer_1
6
CONTINUOUS
62
7
10
15
20
97
0
VERTEX
8
Layer_1
6
CONTINUOUS
62
7
10
165
20
97
0
VERTEX
8
Layer_1
6
CONTINUOUS
62
7
10
165
20
92
0
VERTEX
8
Layer_1
6
CONTINUOUS
62
7
10
145
20
92
0
SEQEND
0
CIRCLE
8
Layer_1
6
CONTINUOUS
62
7
10
79
20
60.804878048780495
40
1.3799999999999955
0
ARC
8
Layer_1
6
CONTINUOUS
62
7
10
79
20
60.804878048780495
40
2.999999999999968
50
340.52877936495258
51
199.47122062990229
0
CIRCLE
8
Layer_1
6
CONTINUOUS
62
7
10
21
20
60.804878048780495
40
1.3799999999999955
0
ARC
8
Layer_1
6
CONTINUOUS
62
7
10
21
20
60.804878048780495
40
2.999999999999968
50
340.52877936495258
51
199.47122062990229
0
POLYLINE
8
Layer_1
6
CONTINUOUS
62
7
66
1
10
0
20
0
70
128
40
0
41
0
0
VERTEX
8
Layer_1
6
CONTINUOUS
62
7
10
135.23124999999999
20
59.804878048780495
0
VERTEX
8
Layer_1
6
CONTINUOUS
62
7
10
81.828427124746156
20
59.804878048780495
0
SEQEND
0
POLYLINE
8
Layer_1
6
CONTINUOUS
62
7
66
1
10
0
20
0
70
128
40
0
41
0
0
VERTEX
8
Layer_1
6
CONTINUOUS
62
7
10
79.950999474237506
20
59.804878048780495
0
VERTEX
8
Layer_1
6
CONTINUOUS
62
7
10
78.049000525762494
20
59.804878048780438
0
SEQEND
0
POLYLINE
8
Layer_1
6
CONTINUOUS
62
7
66
1
10
0
20
0
70
128
40
0
41
0
0
VERTEX
8
Layer_1
6
CONTINUOUS
62
7
10
76.171572875253787
20
59.804878048780495
0
VERTEX
8
Layer_1
6
CONTINUOUS
62
7
10
23.828427124746156
20
59.804878048780495
0
SEQEND
0
POLYLINE
8
Layer_1
6
CONTINUOUS
62
7
66
1
10
0
20
0
70
128
40
0
41
0
0
VERTEX
8
Layer_1
6
CONTINUOUS
62
7
10
21.950999474237506
20
59.804878048780495
0
VERTEX
8
Layer_1
6
CONTINUOUS
62
7
10
20.049000525762494
20
59.804878048780438
0
SEQEND
0
POLYLINE
8
Layer_1
6
CONTINUOUS
62
7
66
1
10
0
20
0
70
128
40
0
41
0
0
VERTEX
8
Layer_1
6
CONTINUOUS
62
7
10
18.171572875253787
20
59.804878048780495
0
VERTEX
8
Layer_1
6
CONTINUOUS
62
7
10
13
20
59.804878048780495
0
VERTEX
8
Layer_1
6
CONTINUOUS
62
7
10
13
20
56.804878048780495
0
VERTEX
8
Layer_1
6
CONTINUOUS
62
7
10
136
20
56.804878048780495
0
SEQEND
0
POLYLINE
8
Layer_1
6
CONTINUOUS
62
7
66
1
10
0
20
0
70
128
40
0
41
0
0
VERTEX
8
Layer_1
6
CONTINUOUS
62
7
10
136
20
56.804878048780495
0
VERTEX
8
Layer_1
6
CONTINUOUS
62
7
10
166
20
80.804878048780495
0
VERTEX
8
Layer_1
6
CONTINUOUS
62
7
10
164.2439024390244
20
83
0
VERTEX
8
Layer_1
6
CONTINUOUS
62
7
10
135.25
20
59.804878048780495
0
SEQEND
0
POLYLINE
8
Layer_1
6
CONTINUOUS
62
7
66
1
10
0
20
0
70
128
40
0
41
0
0
VERTEX
8
Layer_1
6
CONTINUOUS
62
7
10
82
20
59.804878048780495
0
VERTEX
8
Layer_1
6
CONTINUOUS
62
7
10
135
20
59.804878048780495
0
SEQEND
0
CIRCLE
8
Layer_1
6
CONTINUOUS
62
7
10
79
20
68.804878048780495
40
1.3799999999999955
0
ARC
8
Layer_1
6
CONTINUOUS
62
7
10
79
20
68.804878048780495
40
2.999999999999968
50
340.52877936495258
51
199.47122062990229
0
CIRCLE
8
Layer_1
6
CONTINUOUS
62
7
10
21
20
68.804878048780495
40
1.3799999999999955
0
ARC
8
Layer_1
6
CONTINUOUS
62
7
10
21
20
68.804878048780495
40
3.0000000000000218
50
340.52877936495292
51
199.47122062990229
0
POLYLINE
8
Layer_1
6
CONTINUOUS
62
7
66
1
10
0
20
0
70
128
40
0
41
0
0
VERTEX
8
Layer_1
6
CONTINUOUS
62
7
10
135.23124999999999
20
67.804878048780495
0
VERTEX
8
Layer_1
6
CONTINUOUS
62
7
10
81.828427124746156
20
67.804878048780495
0
SEQEND
0
POLYLINE
8
Layer_1
6
CONTINUOUS
62
7
66
1
10
0
20
0
70
128
40
0
41
0
0
VERTEX
8
Layer_1
6
CONTINUOUS
62
7
10
79.950999474237506
20
67.804878048780495
0
VERTEX
8
Layer_1
6
CONTINUOUS
62
7
10
78.049000525762494
20
67.804878048780438
0
SEQEND
0
POLYLINE
8
Layer_1
6
CONTINUOUS
62
7
66
1
10
0
20
0
70
128
40
0
41
0
0
VERTEX
8
Layer_1
6
CONTINUOUS
62
7
10
76.171572875253787
20
67.804878048780495
0
VERTEX
8
Layer_1
6
CONTINUOUS
62
7
10
23.828427124746213
20
67.804878048780495
0
SEQEND
0
POLYLINE
8
Layer_1
6
CONTINUOUS
62
7
66
1
10
0
20
0
70
128
40
0
41
0
0
VERTEX
8
Layer_1
6
CONTINUOUS
62
7
10
21.950999474237506
20
67.804878048780495
0
VERTEX
8
Layer_1
6
CONTINUOUS
62
7
10
20.049000525762494
20
67.804878048780438
0
SEQEND
0
POLYLINE
8
Layer_1
6
CONTINUOUS
62
7
66
1
10
0
20
0
70
128
40
0
41
0
0
VERTEX
8
Layer_1
6
CONTINUOUS
62
7
10
18.171572875253787
20
67.804878048780495
0
VERTEX
8
Layer_1
6
CONTINUOUS
62
7
10
13
20
67.804878048780495
0
VERTEX
8
Layer_1
6
CONTINUOUS
62
7
10
13
20
64.804878048780495
0
VERTEX
8
Layer_1
6
CONTINUOUS
62
7
10
136
20
64.804878048780495
0
SEQEND
0
POLYLINE
8
Layer_1
6
CONTINUOUS
62
7
66
1
10
0
20
0
70
128
40
0
41
0
0
VERTEX
8
Layer_1
6
CONTINUOUS
62
7
10
136
20
64.804878048780495
0
VERTEX
8
Layer_1
6
CONTINUOUS
62
7
10
166
20
88.804878048780495
0
VERTEX
8
Layer_1
6
CONTINUOUS
62
7
10
164.2439024390244
20
91
0
VERTEX
8
Layer_1
6
CONTINUOUS
62
7
10
135.25
20
67.804878048780495
0
SEQEND
0
POLYLINE
8
Layer_1
6
CONTINUOUS
62
7
66
1
10
0
20
0
70
128
40
0
41
0
0
VERTEX
8
Layer_1
6
CONTINUOUS
62
7
10
82
20
67.804878048780495
0
VERTEX
8
Layer_1
6
CONTINUOUS
62
7
10
135
20
67.804878048780495
0
SEQEND
0
POLYLINE
8
Layer_1
6
CONTINUOUS
62
7
66
1
10
0
20
0
70
128
40
0
41
0
0
VERTEX
8
Layer_1
6
CONTINUOUS
62
7
10
106
20
69
0
VERTEX
8
Layer_1
6
CONTINUOUS
62
7
10
106
20
92
0
VERTEX
8
Layer_1
6
CONTINUOUS
62
7
10
145
20
92
0
SEQEND
0
POLYLINE
8
Layer_1
6
CONTINUOUS
62
7
66
1
10
0
20
0
70
129
40
0
41
0
0
VERTEX
8
Layer_1
6
CONTINUOUS
62
7
10
12
20
99
0
VERTEX
8
Layer_1
6
CONTINUOUS
62
7
10
169
20
99
0
VERTEX
8
Layer_1
6
CONTINUOUS
62
7
10
169
20
52
0
VERTEX
8
Layer_1
6
CONTINUOUS
62
7
10
12
20
52
0
VERTEX
8
Layer_1
6
CONTINUOUS
62
7
10
12
20
99
0
SEQEND
0
LINE
8
Layer_1
6
CONTINUOUS
62
7
10
10
20
99
11
5
21
99
0
POLYLINE
8
Layer_1
6
CONTINUOUS
62
7
66
1
10
0
20
0
70
129
40
0
41
0
0
VERTEX
8
Layer_1
6
CONTINUOUS
62
7
10
7
20
99
0
VERTEX
8
Layer_1
6
CONTINUOUS
62
7
10
7.6945927101174973
20
95.060768987854146
0
VERTEX
8
Layer_1
6
CONTINUOUS
62
7
10
6.3054072888213542
20
95.060768988041261
0
VERTEX
8
Layer_1
6
CONTINUOUS
62
7
10
7
20
99
0
SEQEND
0
LINE
8
Layer_1
6
CONTINUOUS
62
7
10
7
20
99
11
7
21
52
0
POLYLINE
8
Layer_1
6
CONTINUOUS
62
7
66
1
10
0
20
0
70
129
40
0
41
0
0
VERTEX
8
Layer_1
6
CONTINUOUS
62
7
10
7
20
52
0
VERTEX
8
Layer_1
6
CONTINUOUS
62
7
10
6.3054072895287874
20
55.939231012083482
0
VERTEX
8
Layer_1
6
CONTINUOUS
62
7
10
7.6945927108249288
20
55.939231012021111
0
VERTEX
8
Layer_1
6
CONTINUOUS
62
7
10
7
20
52
0
SEQEND
0
LINE
8
Layer_1
6
CONTINUOUS
62
7
10
5
20
52
11
10
21
52
0
POLYLINE
8
Layer_1
6
CONTINUOUS
62
7
66
1
10
0
20
0
70
129
40
0
41
0
0
VERTEX
8
Layer_1
6
CONTINUOUS
62
7
10
4.0943931866243197
20
74.767565649616984
0
VERTEX
8
Layer_1
6
CONTINUOUS
62
7
10
4.9999999999671161
20
74.767565649576326
0
VERTEX
8
Layer_1
6
CONTINUOUS
62
7
10
4.999999999945449
20
74.284953868171073
0
VERTEX
8
Layer_1
6
CONTINUOUS
62
7
10
4.0943931866026526
20
74.28495386821173
0
VERTEX
8
Layer_1
6
CONTINUOUS
62
7
10
4.0943931865180216
20
72.399929027899447
0
VERTEX
8
Layer_1
6
CONTINUOUS
62
7
10
3.6969481900666374
20
72.399929027917295
0
VERTEX
8
Layer_1
6
CONTINUOUS
62
7
10
0.99999999994302735
20
74.231014904546541
0
VERTEX
8
Layer_1
6
CONTINUOUS
62
7
10
0.99999999996711653
20
74.767565649755909
0
VERTEX
8
Layer_1
6
CONTINUOUS
62
7
10
3.691270404509345
20
74.767565649635074
0
VERTEX
8
Layer_1
6
CONTINUOUS
62
7
10
3.6912704045345812
20
75.329666430330604
0
VERTEX
8
Layer_1
6
CONTINUOUS
62
7
10
4.0943931866495564
20
75.329666430312514
0
VERTEX
8
Layer_1
6
CONTINUOUS
62
7
10
4.0943931866243197
20
74.767565649616984
0
SEQEND
0
POLYLINE
8
Layer_1
6
CONTINUOUS
62
7
66
1
10
0
20
0
70
129
40
0
41
0
0
VERTEX
8
Layer_1
6
CONTINUOUS
62
7
10
1.5762952447999554
20
74.284953868324777
0
VERTEX
8
Layer_1
6
CONTINUOUS
62
7
10
1.6316536550186953
20
74.256564940004353
0
VERTEX
8
Layer_1
6
CONTINUOUS
62
7
10
1.7239176720497582
20
74.205464869027878
0
VERTEX
8
Layer_1
6
CONTINUOUS
62
7
10
1.8275372604076845
20
74.147267565971418
0
VERTEX
8
Layer_1
6
CONTINUOUS
62
7
10
1.9141234917750922
20
74.094748048579305
0
VERTEX
8
Layer_1
6
CONTINUOUS
62
7
10
3.4244144782443398
20
73.06990773623329
0
VERTEX
8
Layer_1
6
CONTINUOUS
62
7
10
3.484031227710199
20
73.028743790169585
0
VERTEX
8
Layer_1
6
CONTINUOUS
62
7
10
3.5592618877502971
20
72.973385379946194
0
VERTEX
8
Layer_1
6
CONTINUOUS
62
7
10
3.6344925477903312
20
72.916607523306894
0
VERTEX
8
Layer_1
6
CONTINUOUS
62
7
10
3.6912704044242037
20
72.871185237995618
0
VERTEX
8
Layer_1
6
CONTINUOUS
62
7
10
3.6912704044876774
20
74.28495386822982
0
VERTEX
8
Layer_1
6
CONTINUOUS
62
7
10
1.5762952447999554
20
74.284953868324777
0
SEQEND
0
POLYLINE
8
Layer_1
6
CONTINUOUS
62
7
66
1
10
0
20
0
70
129
40
0
41
0
0
VERTEX
8
Layer_1
6
CONTINUOUS
62
7
10
1.4144783535742023
20
78.441092974080803
0
VERTEX
8
Layer_1
6
CONTINUOUS
62
7
10
1.8655074522127595
20
78.152235628425345
0
VERTEX
8
Layer_1
6
CONTINUOUS
62
7
10
2.2987934706536777
20
77.88750887184095
0
VERTEX
8
Layer_1
6
CONTINUOUS
62
7
10
2.7246273954124707
20
77.652590489990757
0
VERTEX
8
Layer_1
6
CONTINUOUS
62
7
10
3.1533002130046524
20
77.453158268537862
0
VERTEX
8
Layer_1
6
CONTINUOUS
62
7
10
3.3697657914252153
20
77.367370475767331
0
VERTEX
8
Layer_1
6
CONTINUOUS
62
7
10
3.5890702626780278
20
77.291696238709932
0
VERTEX
8
Layer_1
6
CONTINUOUS
62
7
10
3.8112136267630898
20
77.226135557365666
0
VERTEX
8
Layer_1
6
CONTINUOUS
62
7
10
4.0361958836804019
20
77.170688431734561
0
VERTEX
8
Layer_1
6
CONTINUOUS
62
7
10
4.2662349184548596
20
77.126596877430416
0
VERTEX
8
Layer_1
6
CONTINUOUS
62
7
10
4.5035486161113596
20
77.095102910067027
0
VERTEX
8
Layer_1
6
CONTINUOUS
62
7
10
4.7481369766499002
20
77.076206529644409
0
VERTEX
8
Layer_1
6
CONTINUOUS
62
7
10
5.0000000000704832
20
77.069907736162548
0
VERTEX
8
Layer_1
6
CONTINUOUS
62
7
10
5.0000000000465219
20
76.53619588378497
0
VERTEX
8
Layer_1
6
CONTINUOUS
62
7
10
4.7612668559730302
20
76.543293115875173
0
VERTEX
8
Layer_1
6
CONTINUOUS
62
7
10
4.5248403123260079
20
76.564584812124252
0
VERTEX
8
Layer_1
6
CONTINUOUS
62
7
10
4.2907203691054585
20
76.600070972532222
0
VERTEX
8
Layer_1
6
CONTINUOUS
62
7
10
4.0589070263113793
20
76.649751597099055
0
VERTEX
8
Layer_1
6
CONTINUOUS
62
7
10
3.829311568542682
20
76.711497516200907
0
VERTEX
8
Layer_1
6
CONTINUOUS
62
7
10
3.6018452803982779
20
76.783179560213966
0
VERTEX
8
Layer_1
6
CONTINUOUS
62
7
10
3.3765081618781667
20
76.864797729138189
0
VERTEX
8
Layer_1
6
CONTINUOUS
62
7
10
3.153300212982348
20
76.956352022973633
0
VERTEX
8
Layer_1
6
CONTINUOUS
62
7
10
2.7129169624594232
20
77.165010646130384
0
VERTEX
8
Layer_1
6
CONTINUOUS
62
7
10
2.2803406672253388
20
77.404897090436535
0
VERTEX
8
Layer_1
6
CONTINUOUS
62
7
10
1.8545067424678203
20
77.668204400604708
0
VERTEX
8
Layer_1
6
CONTINUOUS
62
7
10
1.4343506033745941
20
77.947125621347482
0
VERTEX
8
Layer_1
6
CONTINUOUS
62
7
10
1.4343506032781095
20
75.798083747678206
0
VERTEX
8
Layer_1
6
CONTINUOUS
62
7
10
1.0000000000133831
20
75.798083747697703
0
VERTEX
8
Layer_1
6
CONTINUOUS
62
7
10
1.000000000132045
20
78.441092974099405
0
VERTEX
8
Layer_1
6
CONTINUOUS
62
7
10
1.4144783535742023
20
78.441092974080803
0
SEQEND
0
LINE
8
Layer_1
6
CONTINUOUS
62
7
10
11.999999999640828
20
50
11
11.999999999640828
21
38
0
POLYLINE
8
Layer_1
6
CONTINUOUS
62
7
66
1
10
0
20
0
70
129
40
0
41
0
0
VERTEX
8
Layer_1
6
CONTINUOUS
62
7
10
12
20
40
0
VERTEX
8
Layer_1
6
CONTINUOUS
62
7
10
15.939231012052296
20
40.694592710648074
0
VERTEX
8
Layer_1
6
CONTINUOUS
62
7
10
15.939231012052296
20
39.305407289351926
0
VERTEX
8
Layer_1
6
CONTINUOUS
62
7
10
12
20
40
0
SEQEND
0
LINE
8
Layer_1
6
CONTINUOUS
62
7
10
12
20
40
11
169
21
40
0
POLYLINE
8
Layer_1
6
CONTINUOUS
62
7
66
1
10
0
20
0
70
129
40
0
41
0
0
VERTEX
8
Layer_1
6
CONTINUOUS
62
7
10
169
20
40
0
VERTEX
8
Layer_1
6
CONTINUOUS
62
7
10
165.06076898788533
20
39.305407289705649
0
VERTEX
8
Layer_1
6
CONTINUOUS
62
7
10
165.06076898801007
20
40.694592711001789
0
VERTEX
8
Layer_1
6
CONTINUOUS
62
7
10
169
20
40
0
SEQEND
0
LINE
8
Layer_1
6
CONTINUOUS
62
7
10
168.99999999964083
20
38
11
168.99999999964083
21
50
0
POLYLINE
8
Layer_1
6
CONTINUOUS
62
7
66
1
10
0
20
0
70
129
40
0
41
0
0
VERTEX
8
Layer_1
6
CONTINUOUS
62
7
10
86.092618878727137
20
42
0
VERTEX
8
Layer_1
6
CONTINUOUS
62
7
10
86.092618878727137
20
42.434350603264726
0
VERTEX
8
Layer_1
6
CONTINUOUS
62
7
10
87.111781405341759
20
42.434350603264726
0
VERTEX
8
Layer_1
6
CONTINUOUS
62
7
10
87.111781405341759
20
45.51171043293116
0
VERTEX
8
Layer_1
6
CONTINUOUS
62
7
10
86.209013484830749
20
44.867281760113556
0
VERTEX
8
Layer_1
6
CONTINUOUS
62
7
10
86.209013484830749
20
45.34989354151881
0
VERTEX
8
Layer_1
6
CONTINUOUS
62
7
10
87.154364797818687
20
46
0
VERTEX
8
Layer_1
6
CONTINUOUS
62
7
10
87.625621007896754
20
46
0
VERTEX
8
Layer_1
6
CONTINUOUS
62
7
10
87.625621007896754
20
42.434350603264726
0
VERTEX
8
Layer_1
6
CONTINUOUS
62
7
10
88.599361249202644
20
42.434350603264726
0
VERTEX
8
Layer_1
6
CONTINUOUS
62
7
10
88.599361249202644
20
42
0
VERTEX
8
Layer_1
6
CONTINUOUS
62
7
10
86.092618878727137
20
42
0
SEQEND
0
POLYLINE
8
Layer_1
6
CONTINUOUS
62
7
66
1
10
0
20
0
70
129
40
0
41
0
0
VERTEX
8
Layer_1
6
CONTINUOUS
62
7
10
91.872604684262967
20
43.303051809794184
0
VERTEX
8
Layer_1
6
CONTINUOUS
62
7
10
91.866926898599374
20
43.155784244144783
0
VERTEX
8
Layer_1
6
CONTINUOUS
62
7
10
91.849893541608594
20
43.01490418736693
0
VERTEX
8
Layer_1
6
CONTINUOUS
62
7
10
91.821504613290642
20
42.880411639460618
0
VERTEX
8
Layer_1
6
CONTINUOUS
62
7
10
91.781760113645504
20
42.75230660042584
0
VERTEX
8
Layer_1
6
CONTINUOUS
62
7
10
91.730837473475191
20
42.631742370475521
0
VERTEX
8
Layer_1
6
CONTINUOUS
62
7
10
91.668914123581644
20
42.519872249822569
0
VERTEX
8
Layer_1
6
CONTINUOUS
62
7
10
91.595990063964891
20
42.416696238466997
0
VERTEX
8
Layer_1
6
CONTINUOUS
62
7
10
91.512065294624932
20
42.322214336408805
0
VERTEX
8
Layer_1
6
CONTINUOUS
62
7
10
91.41722853096276
20
42.237136266855927
0
VERTEX
8
Layer_1
6
CONTINUOUS
62
7
10
91.311568488379365
20
42.162171753016324
0
VERTEX
8
Layer_1
6
CONTINUOUS
62
7
10
91.195085166874748
20
42.097320794889995
0
VERTEX
8
Layer_1
6
CONTINUOUS
62
7
10
91.067778566448922
20
42.042583392476935
0
VERTEX
8
Layer_1
6
CONTINUOUS
62
7
10
90.929826117903858
20
41.999112845990069
0
VERTEX
8
Layer_1
6
CONTINUOUS
62
7
10
90.781405252041537
20
41.968062455642297
0
VERTEX
8
Layer_1
6
CONTINUOUS
62
7
10
90.622515968861975
20
41.949432221433639
0
VERTEX
8
Layer_1
6
CONTINUOUS
62
7
10
90.453158268365172
20
41.943222143364089
0
VERTEX
8
Layer_1
6
CONTINUOUS
62
7
10
90.158268275462405
20
41.961674946770756
0
VERTEX
8
Layer_1
6
CONTINUOUS
62
7
10
90.025993612580919
20
41.984740951029096
0
VERTEX
8
Layer_1
6
CONTINUOUS
62
7
10
89.903832505412723
20
42.017033356990773
0
VERTEX
8
Layer_1
6
CONTINUOUS
62
7
10
89.687721788592285
20
42.104684173172458
0
VERTEX
8
Layer_1
6
CONTINUOUS
62
7
10
89.593239886534093
20
42.158889283179555
0
VERTEX
8
Layer_1
6
CONTINUOUS
62
7
10
89.507806955377248
20
42.220014194464156
0
VERTEX
8
Layer_1
6
CONTINUOUS
62
7
10
89.36266855935169
20
42.360184528034068
0
VERTEX
8
Layer_1
6
CONTINUOUS
62
7
10
89.250887154099729
20
42.522356281050392
0
VERTEX
8
Layer_1
6
CONTINUOUS
62
7
10
89.169623846789591
20
42.701916252661462
0
VERTEX
8
Layer_1
6
CONTINUOUS
62
7
10
89.116039744589443
20
42.894251242015613
0
VERTEX
8
Layer_1
6
CONTINUOUS
62
7
10
89.632718239976242
20
42.953867991483321
0
VERTEX
8
Layer_1
6
CONTINUOUS
62
7
10
89.670333569997538
20
42.842086586231375
0
VERTEX
8
Layer_1
6
CONTINUOUS
62
7
10
89.720723917761916
20
42.733853797019165
0
VERTEX
8
Layer_1
6
CONTINUOUS
62
7
10
89.787792760913078
20
42.633073101490417
0
VERTEX
8
Layer_1
6
CONTINUOUS
62
7
10
89.875443577094771
20
42.543647977288856
0
VERTEX
8
Layer_1
6
CONTINUOUS
62
7
10
89.984740951118908
20
42.468417317246278
0
VERTEX
8
Layer_1
6
CONTINUOUS
62
7
10
90.116749467797405
20
42.410220014194465
0
VERTEX
8
Layer_1
6
CONTINUOUS
62
7
10
90.275372604773978
20
42.37295954577715
0
VERTEX
8
Layer_1
6
CONTINUOUS
62
7
10
90.464513839692358
20
42.360539389638042
0
VERTEX
8
Layer_1
6
CONTINUOUS
62
7
10
90.65400993621472
20
42.375798438608939
0
VERTEX
8
Layer_1
6
CONTINUOUS
62
7
10
90.825053229330393
20
42.421575585521651
0
VERTEX
8
Layer_1
6
CONTINUOUS
62
7
10
90.975159687811583
20
42.49716110716821
0
VERTEX
8
Layer_1
6
CONTINUOUS
62
7
10
91.101845280430467
20
42.601845280340669
0
VERTEX
8
Layer_1
6
CONTINUOUS
62
7
10
91.203690560771136
20
42.734563520227113
0
VERTEX
8
Layer_1
6
CONTINUOUS
62
7
10
91.279276082417681
20
42.894251242015613
0
VERTEX
8
Layer_1
6
CONTINUOUS
62
7
10
91.326117814142322
20
43.080198722498224
0
VERTEX
8
Layer_1
6
CONTINUOUS
62
7
10
91.341731724717192
20
43.291696238466997
0
VERTEX
8
Layer_1
6
CONTINUOUS
62
7
10
91.326827537350269
20
43.468772178850244
0
VERTEX
8
Layer_1
6
CONTINUOUS
62
7
10
91.282114975249485
20
43.630943931866568
0
VERTEX
8
Layer_1
6
CONTINUOUS
62
7
10
91.209723208038696
20
43.775017743080198
0
VERTEX
8
Layer_1
6
CONTINUOUS
62
7
10
91.111781405341759
20
43.897799858055357
0
VERTEX
8
Layer_1
6
CONTINUOUS
62
7
10
90.988644428762626
20
43.997515968772177
0
VERTEX
8
Layer_1
6
CONTINUOUS
62
7
10
90.840667139905264
20
44.072391767210789
0
VERTEX
8
Layer_1
6
CONTINUOUS
62
7
10
90.669268985185596
20
44.119233498935415
0
VERTEX
8
Layer_1
6
CONTINUOUS
62
7
10
90.475869411019531
20
44.134847409510293
0
VERTEX
8
Layer_1
6
CONTINUOUS
62
7
10
90.353087296044379
20
44.129169623846707
0
VERTEX
8
Layer_1
6
CONTINUOUS
62
7
10
90.240241305980504
20
44.112136266855927
0
VERTEX
8
Layer_1
6
CONTINUOUS
62
7
10
90.136266856015993
20
44.08516678495387
0
VERTEX
8
Layer_1
6
CONTINUOUS
62
7
10
90.040099361338918
20
44.049680624556423
0
VERTEX
8
Layer_1
6
CONTINUOUS
62
7
10
89.872604684262967
20
43.957416607523065
0
VERTEX
8
Layer_1
6
CONTINUOUS
62
7
10
89.732079489089088
20
43.848119233498934
0
VERTEX
8
Layer_1
6
CONTINUOUS
62
7
10
89.232434350693069
20
43.848119233498934
0
VERTEX
8
Layer_1
6
CONTINUOUS
62
7
10
89.36586231378746
20
46
0
VERTEX
8
Layer_1
6
CONTINUOUS
62
7
10
91.63981547205573
20
46
0
VERTEX
8
Layer_1
6
CONTINUOUS
62
7
10
91.63981547205573
20
45.565649396735274
0
VERTEX
8
Layer_1
6
CONTINUOUS
62
7
10
89.831440738201934
20
45.565649396735274
0
VERTEX
8
Layer_1
6
CONTINUOUS
62
7
10
89.754790631743461
20
44.296664300922643
0
VERTEX
8
Layer_1
6
CONTINUOUS
62
7
10
89.908090844660421
20
44.394251242015613
0
VERTEX
8
Layer_1
6
CONTINUOUS
62
7
10
90.095457771558927
20
44.476933995741661
0
VERTEX
8
Layer_1
6
CONTINUOUS
62
7
10
90.202448545157225
20
44.509847409510293
0
VERTEX
8
Layer_1
6
CONTINUOUS
62
7
10
90.319020582062834
20
44.533356990773598
0
VERTEX
8
Layer_1
6
CONTINUOUS
62
7
10
90.445173882275753
20
44.547462739531582
0
VERTEX
8
Layer_1
6
CONTINUOUS
62
7
10
90.58090844579597
20
44.552164655784246
0
VERTEX
8
Layer_1
6
CONTINUOUS
62
7
10
90.726224272623512
20
44.54648687012066
0
VERTEX
8
Layer_1
6
CONTINUOUS
62
7
10
90.864088005767584
20
44.52945351312988
0
VERTEX
8
Layer_1
6
CONTINUOUS
62
7
10
90.994499645228188
20
44.501064584811928
0
VERTEX
8
Layer_1
6
CONTINUOUS
62
7
10
91.117459191005338
20
44.46132008516679
0
VERTEX
8
Layer_1
6
CONTINUOUS
62
7
10
91.232256919891071
20
44.411195883605401
0
VERTEX
8
Layer_1
6
CONTINUOUS
62
7
10
91.338183108677441
20
44.351667849538686
0
VERTEX
8
Layer_1
6
CONTINUOUS
62
7
10
91.435237757364462
20
44.282735982966649
0
VERTEX
8
Layer_1
6
CONTINUOUS
62
7
10
91.523420865952119
20
44.204400283889285
0
VERTEX
8
Layer_1
6
CONTINUOUS
62
7
10
91.602377572836417
20
44.117370475514548
0
VERTEX
8
Layer_1
6
CONTINUOUS
62
7
10
91.671753016413433
20
44.022356281050392
0
VERTEX
8
Layer_1
6
CONTINUOUS
62
7
10
91.731547196683124
20
43.919357700496811
0
VERTEX
8
Layer_1
6
CONTINUOUS
62
7
10
91.781760113645504
20
43.808374733853796
0
VERTEX
8
Layer_1
6
CONTINUOUS
62
7
10
91.821504613290642
20
43.690560681334283
0
VERTEX
8
Layer_1
6
CONTINUOUS
62
7
10
91.849893541608594
20
43.567068843151176
0
VERTEX
8
Layer_1
6
CONTINUOUS
62
7
10
91.866926898599374
20
43.437899219304477
0
VERTEX
8
Layer_1
6
CONTINUOUS
62
7
10
91.872604684262967
20
43.303051809794184
0
SEQEND
0
POLYLINE
8
Layer_1
6
CONTINUOUS
62
7
66
1
10
0
20
0
70
129
40
0
41
0
0
VERTEX
8
Layer_1
6
CONTINUOUS
62
7
10
95.05784244153763
20
45.585521646557844
0
VERTEX
8
Layer_1
6
CONTINUOUS
62
7
10
94.768985095902423
20
45.134492547906319
0
VERTEX
8
Layer_1
6
CONTINUOUS
62
7
10
94.504258339337497
20
44.701206529453515
0
VERTEX
8
Layer_1
6
CONTINUOUS
62
7
10
94.269339957506403
20
44.275372604684179
0
VERTEX
8
Layer_1
6
CONTINUOUS
62
7
10
94.069907736072764
20
43.84669978708304
0
VERTEX
8
Layer_1
6
CONTINUOUS
62
7
10
93.984119943311939
20
43.630234208658621
0
VERTEX
8
Layer_1
6
CONTINUOUS
62
7
10
93.908445706264388
20
43.410929737402412
0
VERTEX
8
Layer_1
6
CONTINUOUS
62
7
10
93.842885024930098
20
43.188786373314407
0
VERTEX
8
Layer_1
6
CONTINUOUS
62
7
10
93.787437899309097
20
42.963804116394606
0
VERTEX
8
Layer_1
6
CONTINUOUS
62
7
10
93.743346345015269
20
42.733765081618166
0
VERTEX
8
Layer_1
6
CONTINUOUS
62
7
10
93.711852377662538
20
42.496451383960249
0
VERTEX
8
Layer_1
6
CONTINUOUS
62
7
10
93.692955997250905
20
42.25186302342086
0
VERTEX
8
Layer_1
6
CONTINUOUS
62
7
10
93.686657203780356
20
42
0
VERTEX
8
Layer_1
6
CONTINUOUS
62
7
10
93.152945351402778
20
42
0
VERTEX
8
Layer_1
6
CONTINUOUS
62
7
10
93.160042583482266
20
42.238733144073805
0
VERTEX
8
Layer_1
6
CONTINUOUS
62
7
10
93.181334279720744
20
42.475159687721785
0
VERTEX
8
Layer_1
6
CONTINUOUS
62
7
10
93.216820440118184
20
42.709279630943925
0
VERTEX
8
Layer_1
6
CONTINUOUS
62
7
10
93.2665010646746
20
42.94109297374024
0
VERTEX
8
Layer_1
6
CONTINUOUS
62
7
10
93.328246983766149
20
43.170688431511707
0
VERTEX
8
Layer_1
6
CONTINUOUS
62
7
10
93.399929027768991
20
43.398154719659331
0
VERTEX
8
Layer_1
6
CONTINUOUS
62
7
10
93.481547196683124
20
43.623491838183114
0
VERTEX
8
Layer_1
6
CONTINUOUS
62
7
10
93.573101490508535
20
43.84669978708304
0
VERTEX
8
Layer_1
6
CONTINUOUS
62
7
10
93.781760113645504
20
44.287083037615332
0
VERTEX
8
Layer_1
6
CONTINUOUS
62
7
10
94.021646557932229
20
44.719659332860189
0
VERTEX
8
Layer_1
6
CONTINUOUS
62
7
10
94.284953868081288
20
45.145493257629525
0
VERTEX
8
Layer_1
6
CONTINUOUS
62
7
10
94.563875088805204
20
45.565649396735274
0
VERTEX
8
Layer_1
6
CONTINUOUS
62
7
10
92.414833215135928
20
45.565649396735274
0
VERTEX
8
Layer_1
6
CONTINUOUS
62
7
10
92.414833215135928
20
46
0
VERTEX
8
Layer_1
6
CONTINUOUS
62
7
10
95.05784244153763
20
46
0
VERTEX
8
Layer_1
6
CONTINUOUS
62
7
10
95.05784244153763
20
45.585521646557844
0
SEQEND
0
ENDSEC
0
EOF
