0
SECTION
2
HEADER
9
$ANGDIR
70
0
9
$CHAMFERA
40
10
9
$CHAMFERB
40
10
9
$CLAYER
8
Layer_1
9
$EXTMAX
10
168
20
97
9
$EXTMIN
10
15
20
39.804878048780495
9
$LIMMAX
10
300
20
100
9
$LIMMIN
10
0
20
0
9
$LTSCALE
40
10
9
$PLINEGEN
70
0
9
$TEXTSIZE
40
20
9
$GRIDUNIT
10
1
20
1
9
$SNAPUNIT
10
1
20
1
0
ENDSEC
0
SECTION
2
TABLES
0
TABLE
2
STYLE
70
1
0
STYLE
2
STANDARD
70
0
40
0
41
1
50
0
71
0
42
0.20000000000000001
3
txt
4

0
ENDTAB
0
TABLE
2
LTYPE
70
14
0
LTYPE
2
CONTINUOUS
70
0
3
Solid line
72
65
73
0
40
0
0
LTYPE
2
DOT
70
0
3
............................................
72
65
73
2
40
0.25
49
0
49
-0.25
0
LTYPE
2
HIDDEN
70
0
3
_ _ _ _ _ _ _ _ _ _ _ _ _ _ _ _ _ _ _ _ _ _ 
72
65
73
2
40
0.375
49
0.25
49
-0.125
0
LTYPE
2
TSLONGDASH
70
0
3
__ __ __ __ __ __ __ __ __ __ __ __ __ __ _ 
72
65
73
2
40
1.28
49
1
49
-0.28000000000000003
0
LTYPE
2
TSDASHDOT
70
0
3
______ . ______ . ______ . ______ . ______ .
72
65
73
4
40
1.28
49
1
49
-0.14000000000000001
49
0
49
-0.14000000000000001
0
LTYPE
2
TSCENTER
70
0
3
______ _ ______ _ ______ _ ______ _ ______ _
72
65
73
4
40
2
49
1.5
49
-0.17999999999999999
49
0.14000000000000001
49
-0.17999999999999999
0
LTYPE
2
TSPHANTOM
70
0
3
_____ _ _ _____ _ _ _____ _ _ _____ _ _ ____
72
65
73
6
40
2.5
49
1.6299999999999999
49
-0.19
49
0.14999999999999999
49
-0.19
49
0.14999999999999999
49
-0.19
0
LTYPE
2
DASHED
70
0
3
__ __ __ __ __ __ __ __ __ __ __ __ __ __ __
72
65
73
2
40
0.75
49
0.5
49
-0.25
0
LTYPE
2
CENTER
70
0
3
____ _ ____ _ ____ _ ____ _ ____ _ ____ _ __
72
65
73
4
40
2
49
1.25
49
-0.25
49
0.25
49
-0.25
0
LTYPE
2
PHANTOM
70
0
3
_____ _ _ _____ _ _ _____ _ _ _____ _ _ ____
72
65
73
6
40
2.5
49
1.25
49
-0.25
49
0.25
49
-0.25
49
0.25
49
-0.25
0
LTYPE
2
DASHDOT
70
0
3
__ . __ . __ . __ . __ . __ . __ . __ . __ .
72
65
73
4
40
1
49
0.5
49
-0.25
49
0
49
-0.25
0
LTYPE
2
BORDER
70
0
3
__ __ . __ __ . __ __ . __ __ . __ __ . __ _
72
65
73
6
40
1.75
49
0.5
49
-0.25
49
0.5
49
-0.25
49
0
49
-0.25
0
LTYPE
2
DIVIDE
70
0
3
__ . . __ . . __ . . __ . . __ . . __ . . __
72
65
73
6
40
1.25
49
0.5
49
-0.25
49
0
49
-0.25
49
0
49
-0.25
0
ENDTAB
0
TABLE
2
LAYER
70
3
0
LAYER
2
Layer_1
70
0
62
7
6
CONTINUOUS
0
LAYER
2
Layer_2
70
0
62
7
6
CONTINUOUS
0
LAYER
2
Layer_3
70
0
62
7
6
CONTINUOUS
0
ENDTAB
0
ENDSEC
0
SECTION
2
ENTITIES
0
POLYLINE
8
Layer_1
6
CONTINUOUS
62
7
66
1
10
0
20
0
70
128
40
0
41
0
0
VERTEX
8
Layer_1
6
CONTINUOUS
62
7
10
34.999999999999972
20
92
0
VERTEX
8
Layer_1
6
CONTINUOUS
62
7
10
74
20
92
0
VERTEX
8
Layer_1
6
CONTINUOUS
62
7
10
74
20
69
0
SEQEND
0
POLYLINE
8
Layer_1
6
CONTINUOUS
62
7
66
1
10
0
20
0
70
128
40
0
41
0
0
VERTEX
8
Layer_1
6
CONTINUOUS
62
7
10
78.229222581613186
20
62.825166703326197
0
VERTEX
8
Layer_1
6
CONTINUOUS
62
7
10
79.259325885242504
20
65.4414820517311
0
VERTEX
8
Layer_1
6
CONTINUOUS
62
7
10
79.784956915686507
20
66.729392703456881
0
VERTEX
8
Layer_1
6
CONTINUOUS
62
7
10
80.325168403820271
20
67.989398989065506
0
VERTEX
8
Layer_1
6
CONTINUOUS
62
7
10
80.885606003596507
20
69.210696145207464
0
VERTEX
8
Layer_1
6
CONTINUOUS
62
7
10
81.471915368967871
20
70.382479408533186
0
VERTEX
8
Layer_1
6
CONTINUOUS
62
7
10
81.776536230611924
20
70.94642684184322
0
VERTEX
8
Layer_1
6
CONTINUOUS
62
7
10
82.089742153887016
20
71.493944015693131
0
VERTEX
8
Layer_1
6
CONTINUOUS
62
7
10
82.412238845537217
20
72.02368033466422
0
VERTEX
8
Layer_1
6
CONTINUOUS
62
7
10
82.744732012306599
20
72.534285203337788
0
VERTEX
8
Layer_1
6
CONTINUOUS
62
7
10
83.08792736093929
20
73.024408026295163
0
VERTEX
8
Layer_1
6
CONTINUOUS
62
7
10
83.442530598179331
20
73.492698208117616
0
VERTEX
8
Layer_1
6
CONTINUOUS
62
7
10
83.80924743077081
20
73.937805153386506
0
VERTEX
8
Layer_1
6
CONTINUOUS
62
7
10
84.18878356545784
20
74.358378266683076
0
VERTEX
8
Layer_1
6
CONTINUOUS
62
7
10
84.581844708984477
20
74.753066952588682
0
VERTEX
8
Layer_1
6
CONTINUOUS
62
7
10
84.989136568094807
20
75.120520615684626
0
VERTEX
8
Layer_1
6
CONTINUOUS
62
7
10
85.41136484953293
20
75.459388660552207
0
VERTEX
8
Layer_1
6
CONTINUOUS
62
7
10
85.849235260042917
20
75.768320491772727
0
VERTEX
8
Layer_1
6
CONTINUOUS
62
7
10
86.303453506368839
20
76.045965513927513
0
VERTEX
8
Layer_1
6
CONTINUOUS
62
7
10
86.774725295254825
20
76.290973131597852
0
VERTEX
8
Layer_1
6
CONTINUOUS
62
7
10
87.263756333444903
20
76.501992749365087
0
VERTEX
8
Layer_1
6
CONTINUOUS
62
7
10
87.771252327683186
20
76.677673771810476
0
VERTEX
8
Layer_1
6
CONTINUOUS
62
7
10
88.29791898471376
20
76.816665603515361
0
VERTEX
8
Layer_1
6
CONTINUOUS
62
7
10
88.844462011280683
20
76.917617649061029
0
VERTEX
8
Layer_1
6
CONTINUOUS
62
7
10
89.411587114128082
20
76.979179313028808
0
VERTEX
8
Layer_1
6
CONTINUOUS
62
7
10
90
20
77
0
VERTEX
8
Layer_1
6
CONTINUOUS
62
7
10
90.588426869775219
20
76.979178302023456
0
VERTEX
8
Layer_1
6
CONTINUOUS
62
7
10
91.155564917292608
20
76.917613638145241
0
VERTEX
8
Layer_1
6
CONTINUOUS
62
7
10
91.702119875243511
20
76.816656653442436
0
VERTEX
8
Layer_1
6
CONTINUOUS
62
7
10
92.228797476319301
20
76.677657992992138
0
VERTEX
8
Layer_1
6
CONTINUOUS
62
7
10
92.73630345321132
20
76.501968301871457
0
VERTEX
8
Layer_1
6
CONTINUOUS
62
7
10
93.225343538610929
20
76.290938225157447
0
VERTEX
8
Layer_1
6
CONTINUOUS
62
7
10
93.696623465209484
20
76.045918407927232
0
VERTEX
8
Layer_1
6
CONTINUOUS
62
7
10
94.150848965698358
20
75.768259495257908
0
VERTEX
8
Layer_1
6
CONTINUOUS
62
7
10
94.588725772768896
20
75.459312132226572
0
VERTEX
8
Layer_1
6
CONTINUOUS
62
7
10
95.010959619112455
20
75.12042696391029
0
VERTEX
8
Layer_1
6
CONTINUOUS
62
7
10
95.418256237420408
20
74.752954635386175
0
VERTEX
8
Layer_1
6
CONTINUOUS
62
7
10
95.811321360384085
20
74.358245791731321
0
VERTEX
8
Layer_1
6
CONTINUOUS
62
7
10
96.190860720694872
20
73.93765107802281
0
VERTEX
8
Layer_1
6
CONTINUOUS
62
7
10
96.557580051044084
20
73.492521139337782
0
VERTEX
8
Layer_1
6
CONTINUOUS
62
7
10
96.912185084123138
20
73.02420662075329
0
VERTEX
8
Layer_1
6
CONTINUOUS
62
7
10
97.255381552623334
20
72.53405816734643
0
VERTEX
8
Layer_1
6
CONTINUOUS
62
7
10
97.587875189236058
20
72.023426424194312
0
VERTEX
8
Layer_1
6
CONTINUOUS
62
7
10
97.91037172665267
20
71.493662036374005
0
VERTEX
8
Layer_1
6
CONTINUOUS
62
7
10
98.223576897564541
20
70.946115648962632
0
VERTEX
8
Layer_1
6
CONTINUOUS
62
7
10
98.528196434663002
20
70.382137907037247
0
VERTEX
8
Layer_1
6
CONTINUOUS
62
7
10
99.114501538185138
20
69.210290939952941
0
VERTEX
8
Layer_1
6
CONTINUOUS
62
7
10
99.674932898749972
20
67.988926295737826
0
VERTEX
8
Layer_1
6
CONTINUOUS
62
7
10
100.21513637788834
20
66.728849135008659
0
VERTEX
8
Layer_1
6
CONTINUOUS
62
7
10
100.74075783713113
20
65.440864618382165
0
VERTEX
8
Layer_1
6
CONTINUOUS
62
7
10
101.77083814205332
20
62.824394159904323
0
SEQEND
0
LINE
8
Layer_1
6
CONTINUOUS
62
7
10
90
20
97
11
15
21
97
0
POLYLINE
8
Layer_1
6
CONTINUOUS
62
7
66
1
10
0
20
0
70
129
40
0
41
0
0
VERTEX
8
Layer_1
6
CONTINUOUS
62
7
10
17
20
96
0
VERTEX
8
Layer_1
6
CONTINUOUS
62
7
10
20
20
96
0
VERTEX
8
Layer_1
6
CONTINUOUS
62
7
10
20
20
93
0
VERTEX
8
Layer_1
6
CONTINUOUS
62
7
10
17
20
93
0
VERTEX
8
Layer_1
6
CONTINUOUS
62
7
10
17
20
96
0
SEQEND
0
LINE
8
Layer_1
6
CONTINUOUS
62
7
10
90
20
97
11
165
21
97
0
POLYLINE
8
Layer_1
6
CONTINUOUS
62
7
66
1
10
0
20
0
70
129
40
0
41
0
0
VERTEX
8
Layer_1
6
CONTINUOUS
62
7
10
163
20
96
0
VERTEX
8
Layer_1
6
CONTINUOUS
62
7
10
160
20
96
0
VERTEX
8
Layer_1
6
CONTINUOUS
62
7
10
160
20
93
0
VERTEX
8
Layer_1
6
CONTINUOUS
62
7
10
163
20
93
0
VERTEX
8
Layer_1
6
CONTINUOUS
62
7
10
163
20
96
0
SEQEND
0
POLYLINE
8
Layer_1
6
CONTINUOUS
62
7
66
1
10
0
20
0
70
128
40
0
41
0
0
VERTEX
8
Layer_1
6
CONTINUOUS
62
7
10
34.999999999999972
20
92
0
VERTEX
8
Layer_1
6
CONTINUOUS
62
7
10
15
20
92
0
VERTEX
8
Layer_1
6
CONTINUOUS
62
7
10
15
20
97
0
VERTEX
8
Layer_1
6
CONTINUOUS
62
7
10
165
20
97
0
VERTEX
8
Layer_1
6
CONTINUOUS
62
7
10
165
20
92
0
VERTEX
8
Layer_1
6
CONTINUOUS
62
7
10
145
20
92
0
SEQEND
0
CIRCLE
8
Layer_1
6
CONTINUOUS
62
7
10
81
20
43.804878048780495
40
1.3799999999999955
0
ARC
8
Layer_1
6
CONTINUOUS
62
7
10
81
20
43.804878048780495
40
2.999999999999968
50
340.52877936495258
51
199.47122062990229
0
CIRCLE
8
Layer_1
6
CONTINUOUS
62
7
10
23
20
43.804878048780495
40
1.3799999999999955
0
ARC
8
Layer_1
6
CONTINUOUS
62
7
10
23
20
43.804878048780495
40
2.999999999999968
50
340.52877936495258
51
199.47122062990229
0
POLYLINE
8
Layer_1
6
CONTINUOUS
62
7
66
1
10
0
20
0
70
128
40
0
41
0
0
VERTEX
8
Layer_1
6
CONTINUOUS
62
7
10
137.23124999999999
20
42.804878048780495
0
VERTEX
8
Layer_1
6
CONTINUOUS
62
7
10
83.828427124746156
20
42.804878048780495
0
SEQEND
0
POLYLINE
8
Layer_1
6
CONTINUOUS
62
7
66
1
10
0
20
0
70
128
40
0
41
0
0
VERTEX
8
Layer_1
6
CONTINUOUS
62
7
10
81.950999474237506
20
42.804878048780495
0
VERTEX
8
Layer_1
6
CONTINUOUS
62
7
10
80.049000525762494
20
42.804878048780438
0
SEQEND
0
POLYLINE
8
Layer_1
6
CONTINUOUS
62
7
66
1
10
0
20
0
70
128
40
0
41
0
0
VERTEX
8
Layer_1
6
CONTINUOUS
62
7
10
78.171572875253787
20
42.804878048780495
0
VERTEX
8
Layer_1
6
CONTINUOUS
62
7
10
25.828427124746156
20
42.804878048780495
0
SEQEND
0
POLYLINE
8
Layer_1
6
CONTINUOUS
62
7
66
1
10
0
20
0
70
128
40
0
41
0
0
VERTEX
8
Layer_1
6
CONTINUOUS
62
7
10
23.950999474237506
20
42.804878048780495
0
VERTEX
8
Layer_1
6
CONTINUOUS
62
7
10
22.049000525762494
20
42.804878048780438
0
SEQEND
0
POLYLINE
8
Layer_1
6
CONTINUOUS
62
7
66
1
10
0
20
0
70
128
40
0
41
0
0
VERTEX
8
Layer_1
6
CONTINUOUS
62
7
10
20.171572875253787
20
42.804878048780495
0
VERTEX
8
Layer_1
6
CONTINUOUS
62
7
10
15
20
42.804878048780495
0
VERTEX
8
Layer_1
6
CONTINUOUS
62
7
10
15
20
39.804878048780495
0
VERTEX
8
Layer_1
6
CONTINUOUS
62
7
10
138
20
39.804878048780495
0
SEQEND
0
POLYLINE
8
Layer_1
6
CONTINUOUS
62
7
66
1
10
0
20
0
70
128
40
0
41
0
0
VERTEX
8
Layer_1
6
CONTINUOUS
62
7
10
138
20
39.804878048780495
0
VERTEX
8
Layer_1
6
CONTINUOUS
62
7
10
168
20
63.804878048780495
0
VERTEX
8
Layer_1
6
CONTINUOUS
62
7
10
166.2439024390244
20
66
0
VERTEX
8
Layer_1
6
CONTINUOUS
62
7
10
137.25
20
42.804878048780495
0
SEQEND
0
POLYLINE
8
Layer_1
6
CONTINUOUS
62
7
66
1
10
0
20
0
70
128
40
0
41
0
0
VERTEX
8
Layer_1
6
CONTINUOUS
62
7
10
84
20
42.804878048780495
0
VERTEX
8
Layer_1
6
CONTINUOUS
62
7
10
137
20
42.804878048780495
0
SEQEND
0
CIRCLE
8
Layer_1
6
CONTINUOUS
62
7
10
81
20
51.804878048780495
40
1.3799999999999955
0
ARC
8
Layer_1
6
CONTINUOUS
62
7
10
81
20
51.804878048780495
40
2.999999999999968
50
340.52877936495258
51
199.47122062990229
0
CIRCLE
8
Layer_1
6
CONTINUOUS
62
7
10
23
20
51.804878048780495
40
1.3799999999999955
0
ARC
8
Layer_1
6
CONTINUOUS
62
7
10
23
20
51.804878048780495
40
3.0000000000000218
50
340.52877936495292
51
199.47122062990229
0
POLYLINE
8
Layer_1
6
CONTINUOUS
62
7
66
1
10
0
20
0
70
128
40
0
41
0
0
VERTEX
8
Layer_1
6
CONTINUOUS
62
7
10
137.23124999999999
20
50.804878048780495
0
VERTEX
8
Layer_1
6
CONTINUOUS
62
7
10
83.828427124746156
20
50.804878048780495
0
SEQEND
0
POLYLINE
8
Layer_1
6
CONTINUOUS
62
7
66
1
10
0
20
0
70
128
40
0
41
0
0
VERTEX
8
Layer_1
6
CONTINUOUS
62
7
10
81.950999474237506
20
50.804878048780495
0
VERTEX
8
Layer_1
6
CONTINUOUS
62
7
10
80.049000525762494
20
50.804878048780438
0
SEQEND
0
POLYLINE
8
Layer_1
6
CONTINUOUS
62
7
66
1
10
0
20
0
70
128
40
0
41
0
0
VERTEX
8
Layer_1
6
CONTINUOUS
62
7
10
78.171572875253787
20
50.804878048780495
0
VERTEX
8
Layer_1
6
CONTINUOUS
62
7
10
25.828427124746213
20
50.804878048780495
0
SEQEND
0
POLYLINE
8
Layer_1
6
CONTINUOUS
62
7
66
1
10
0
20
0
70
128
40
0
41
0
0
VERTEX
8
Layer_1
6
CONTINUOUS
62
7
10
23.950999474237506
20
50.804878048780495
0
VERTEX
8
Layer_1
6
CONTINUOUS
62
7
10
22.049000525762494
20
50.804878048780438
0
SEQEND
0
POLYLINE
8
Layer_1
6
CONTINUOUS
62
7
66
1
10
0
20
0
70
128
40
0
41
0
0
VERTEX
8
Layer_1
6
CONTINUOUS
62
7
10
20.171572875253787
20
50.804878048780495
0
VERTEX
8
Layer_1
6
CONTINUOUS
62
7
10
15
20
50.804878048780495
0
VERTEX
8
Layer_1
6
CONTINUOUS
62
7
10
15
20
47.804878048780495
0
VERTEX
8
Layer_1
6
CONTINUOUS
62
7
10
138
20
47.804878048780495
0
SEQEND
0
POLYLINE
8
Layer_1
6
CONTINUOUS
62
7
66
1
10
0
20
0
70
128
40
0
41
0
0
VERTEX
8
Layer_1
6
CONTINUOUS
62
7
10
138
20
47.804878048780495
0
VERTEX
8
Layer_1
6
CONTINUOUS
62
7
10
168
20
71.804878048780495
0
VERTEX
8
Layer_1
6
CONTINUOUS
62
7
10
166.2439024390244
20
74
0
VERTEX
8
Layer_1
6
CONTINUOUS
62
7
10
137.25
20
50.804878048780495
0
SEQEND
0
POLYLINE
8
Layer_1
6
CONTINUOUS
62
7
66
1
10
0
20
0
70
128
40
0
41
0
0
VERTEX
8
Layer_1
6
CONTINUOUS
62
7
10
84
20
50.804878048780495
0
VERTEX
8
Layer_1
6
CONTINUOUS
62
7
10
137
20
50.804878048780495
0
SEQEND
0
POLYLINE
8
Layer_1
6
CONTINUOUS
62
7
66
1
10
0
20
0
70
128
40
0
41
0
0
VERTEX
8
Layer_1
6
CONTINUOUS
62
7
10
106
20
64
0
VERTEX
8
Layer_1
6
CONTINUOUS
62
7
10
106
20
92
0
VERTEX
8
Layer_1
6
CONTINUOUS
62
7
10
145
20
92
0
SEQEND
0
LINE
8
Layer_1
6
CONTINUOUS
62
7
10
74
20
69
11
74
21
64
0
ARC
8
Layer_1
6
CONTINUOUS
62
7
10
76
20
63
40
2.2360679774997898
50
153.43494882730749
51
355.51559043444416
0
ARC
8
Layer_1
6
CONTINUOUS
62
7
10
104
20
63
40
2.2360679774997889
50
184.50426584589846
51
26.56505117783729
0
ENDSEC
0
EOF
