<?xml version="1.0" encoding="UTF-8" standalone="no"?>
<svg
   xmlns:dc="http://purl.org/dc/elements/1.1/"
   xmlns:cc="http://creativecommons.org/ns#"
   xmlns:rdf="http://www.w3.org/1999/02/22-rdf-syntax-ns#"
   xmlns:svg="http://www.w3.org/2000/svg"
   xmlns="http://www.w3.org/2000/svg"
   xmlns:xlink="http://www.w3.org/1999/xlink"
   xmlns:sodipodi="http://sodipodi.sourceforge.net/DTD/sodipodi-0.dtd"
   xmlns:inkscape="http://www.inkscape.org/namespaces/inkscape"
   version="1.1"
   width="169"
   height="169"
   viewBox="0 0 169 169"
   id="svg455"
   sodipodi:docname="siteqr.svg"
   inkscape:version="0.92.2 (5c3e80d, 2017-08-06)">
  <metadata
     id="metadata459">
    <rdf:RDF>
      <cc:Work
         rdf:about="">
        <dc:format>image/svg+xml</dc:format>
        <dc:type
           rdf:resource="http://purl.org/dc/dcmitype/StillImage" />
        <dc:title></dc:title>
      </cc:Work>
    </rdf:RDF>
  </metadata>
  <sodipodi:namedview
     pagecolor="#ffffff"
     bordercolor="#666666"
     borderopacity="1"
     objecttolerance="10"
     gridtolerance="10"
     guidetolerance="10"
     inkscape:pageopacity="0"
     inkscape:pageshadow="2"
     inkscape:window-width="1360"
     inkscape:window-height="744"
     id="namedview457"
     showgrid="false"
     inkscape:zoom="1.0172414"
     inkscape:cx="-85.567798"
     inkscape:cy="84.500002"
     inkscape:window-x="1920"
     inkscape:window-y="491"
     inkscape:window-maximized="1"
     inkscape:current-layer="svg455"
     fit-margin-top="0"
     fit-margin-left="0"
     fit-margin-right="0"
     fit-margin-bottom="0" />
  <desc
     id="desc2" />
  <defs
     id="defs7">
    <rect
       id="p"
       width="8"
       height="8"
       x="0"
       y="0" />
  </defs>
  <use
     height="100%"
     width="100%"
     style="fill:#000000;stroke:#000000;stroke-opacity:1"
     id="use9"
     xlink:href="#p"
     y="32"
     x="32"
     transform="translate(-31.5,-31.5)" />
  <use
     height="100%"
     width="100%"
     style="fill:#000000;stroke:#000000;stroke-opacity:1"
     id="use11"
     xlink:href="#p"
     y="40"
     x="32"
     transform="translate(-31.5,-31.5)" />
  <use
     height="100%"
     width="100%"
     style="fill:#000000;stroke:#000000;stroke-opacity:1"
     id="use13"
     xlink:href="#p"
     y="48"
     x="32"
     transform="translate(-31.5,-31.5)" />
  <use
     height="100%"
     width="100%"
     style="fill:#000000;stroke:#000000;stroke-opacity:1"
     id="use15"
     xlink:href="#p"
     y="56"
     x="32"
     transform="translate(-31.5,-31.5)" />
  <use
     height="100%"
     width="100%"
     style="fill:#000000;stroke:#000000;stroke-opacity:1"
     id="use17"
     xlink:href="#p"
     y="64"
     x="32"
     transform="translate(-31.5,-31.5)" />
  <use
     height="100%"
     width="100%"
     style="fill:#000000;stroke:#000000;stroke-opacity:1"
     id="use19"
     xlink:href="#p"
     y="72"
     x="32"
     transform="translate(-31.5,-31.5)" />
  <use
     height="100%"
     width="100%"
     style="fill:#000000;stroke:#000000;stroke-opacity:1"
     id="use21"
     xlink:href="#p"
     y="80"
     x="32"
     transform="translate(-31.5,-31.5)" />
  <use
     height="100%"
     width="100%"
     style="fill:#000000;stroke:#000000;stroke-opacity:1"
     id="use23"
     xlink:href="#p"
     y="96"
     x="32"
     transform="translate(-31.5,-31.5)" />
  <use
     height="100%"
     width="100%"
     style="fill:#000000;stroke:#000000;stroke-opacity:1"
     id="use25"
     xlink:href="#p"
     y="104"
     x="32"
     transform="translate(-31.5,-31.5)" />
  <use
     height="100%"
     width="100%"
     style="fill:#000000;stroke:#000000;stroke-opacity:1"
     id="use27"
     xlink:href="#p"
     y="120"
     x="32"
     transform="translate(-31.5,-31.5)" />
  <use
     height="100%"
     width="100%"
     style="fill:#000000;stroke:#000000;stroke-opacity:1"
     id="use29"
     xlink:href="#p"
     y="128"
     x="32"
     transform="translate(-31.5,-31.5)" />
  <use
     height="100%"
     width="100%"
     style="fill:#000000;stroke:#000000;stroke-opacity:1"
     id="use31"
     xlink:href="#p"
     y="144"
     x="32"
     transform="translate(-31.5,-31.5)" />
  <use
     height="100%"
     width="100%"
     style="fill:#000000;stroke:#000000;stroke-opacity:1"
     id="use33"
     xlink:href="#p"
     y="152"
     x="32"
     transform="translate(-31.5,-31.5)" />
  <use
     height="100%"
     width="100%"
     style="fill:#000000;stroke:#000000;stroke-opacity:1"
     id="use35"
     xlink:href="#p"
     y="160"
     x="32"
     transform="translate(-31.5,-31.5)" />
  <use
     height="100%"
     width="100%"
     style="fill:#000000;stroke:#000000;stroke-opacity:1"
     id="use37"
     xlink:href="#p"
     y="168"
     x="32"
     transform="translate(-31.5,-31.5)" />
  <use
     height="100%"
     width="100%"
     style="fill:#000000;stroke:#000000;stroke-opacity:1"
     id="use39"
     xlink:href="#p"
     y="176"
     x="32"
     transform="translate(-31.5,-31.5)" />
  <use
     height="100%"
     width="100%"
     style="fill:#000000;stroke:#000000;stroke-opacity:1"
     id="use41"
     xlink:href="#p"
     y="184"
     x="32"
     transform="translate(-31.5,-31.5)" />
  <use
     height="100%"
     width="100%"
     style="fill:#000000;stroke:#000000;stroke-opacity:1"
     id="use43"
     xlink:href="#p"
     y="192"
     x="32"
     transform="translate(-31.5,-31.5)" />
  <use
     height="100%"
     width="100%"
     style="fill:#000000;stroke:#000000;stroke-opacity:1"
     id="use45"
     xlink:href="#p"
     y="32"
     x="40"
     transform="translate(-31.5,-31.5)" />
  <use
     height="100%"
     width="100%"
     style="fill:#000000;stroke:#000000;stroke-opacity:1"
     id="use47"
     xlink:href="#p"
     y="80"
     x="40"
     transform="translate(-31.5,-31.5)" />
  <use
     height="100%"
     width="100%"
     style="fill:#000000;stroke:#000000;stroke-opacity:1"
     id="use49"
     xlink:href="#p"
     y="96"
     x="40"
     transform="translate(-31.5,-31.5)" />
  <use
     height="100%"
     width="100%"
     style="fill:#000000;stroke:#000000;stroke-opacity:1"
     id="use51"
     xlink:href="#p"
     y="112"
     x="40"
     transform="translate(-31.5,-31.5)" />
  <use
     height="100%"
     width="100%"
     style="fill:#000000;stroke:#000000;stroke-opacity:1"
     id="use53"
     xlink:href="#p"
     y="144"
     x="40"
     transform="translate(-31.5,-31.5)" />
  <use
     height="100%"
     width="100%"
     style="fill:#000000;stroke:#000000;stroke-opacity:1"
     id="use55"
     xlink:href="#p"
     y="192"
     x="40"
     transform="translate(-31.5,-31.5)" />
  <use
     height="100%"
     width="100%"
     style="fill:#000000;stroke:#000000;stroke-opacity:1"
     id="use57"
     xlink:href="#p"
     y="32"
     x="48"
     transform="translate(-31.5,-31.5)" />
  <use
     height="100%"
     width="100%"
     style="fill:#000000;stroke:#000000;stroke-opacity:1"
     id="use59"
     xlink:href="#p"
     y="48"
     x="48"
     transform="translate(-31.5,-31.5)" />
  <use
     height="100%"
     width="100%"
     style="fill:#000000;stroke:#000000;stroke-opacity:1"
     id="use61"
     xlink:href="#p"
     y="56"
     x="48"
     transform="translate(-31.5,-31.5)" />
  <use
     height="100%"
     width="100%"
     style="fill:#000000;stroke:#000000;stroke-opacity:1"
     id="use63"
     xlink:href="#p"
     y="64"
     x="48"
     transform="translate(-31.5,-31.5)" />
  <use
     height="100%"
     width="100%"
     style="fill:#000000;stroke:#000000;stroke-opacity:1"
     id="use65"
     xlink:href="#p"
     y="80"
     x="48"
     transform="translate(-31.5,-31.5)" />
  <use
     height="100%"
     width="100%"
     style="fill:#000000;stroke:#000000;stroke-opacity:1"
     id="use67"
     xlink:href="#p"
     y="144"
     x="48"
     transform="translate(-31.5,-31.5)" />
  <use
     height="100%"
     width="100%"
     style="fill:#000000;stroke:#000000;stroke-opacity:1"
     id="use69"
     xlink:href="#p"
     y="160"
     x="48"
     transform="translate(-31.5,-31.5)" />
  <use
     height="100%"
     width="100%"
     style="fill:#000000;stroke:#000000;stroke-opacity:1"
     id="use71"
     xlink:href="#p"
     y="168"
     x="48"
     transform="translate(-31.5,-31.5)" />
  <use
     height="100%"
     width="100%"
     style="fill:#000000;stroke:#000000;stroke-opacity:1"
     id="use73"
     xlink:href="#p"
     y="176"
     x="48"
     transform="translate(-31.5,-31.5)" />
  <use
     height="100%"
     width="100%"
     style="fill:#000000;stroke:#000000;stroke-opacity:1"
     id="use75"
     xlink:href="#p"
     y="192"
     x="48"
     transform="translate(-31.5,-31.5)" />
  <use
     height="100%"
     width="100%"
     style="fill:#000000;stroke:#000000;stroke-opacity:1"
     id="use77"
     xlink:href="#p"
     y="32"
     x="56"
     transform="translate(-31.5,-31.5)" />
  <use
     height="100%"
     width="100%"
     style="fill:#000000;stroke:#000000;stroke-opacity:1"
     id="use79"
     xlink:href="#p"
     y="48"
     x="56"
     transform="translate(-31.5,-31.5)" />
  <use
     height="100%"
     width="100%"
     style="fill:#000000;stroke:#000000;stroke-opacity:1"
     id="use81"
     xlink:href="#p"
     y="56"
     x="56"
     transform="translate(-31.5,-31.5)" />
  <use
     height="100%"
     width="100%"
     style="fill:#000000;stroke:#000000;stroke-opacity:1"
     id="use83"
     xlink:href="#p"
     y="64"
     x="56"
     transform="translate(-31.5,-31.5)" />
  <use
     height="100%"
     width="100%"
     style="fill:#000000;stroke:#000000;stroke-opacity:1"
     id="use85"
     xlink:href="#p"
     y="80"
     x="56"
     transform="translate(-31.5,-31.5)" />
  <use
     height="100%"
     width="100%"
     style="fill:#000000;stroke:#000000;stroke-opacity:1"
     id="use87"
     xlink:href="#p"
     y="104"
     x="56"
     transform="translate(-31.5,-31.5)" />
  <use
     height="100%"
     width="100%"
     style="fill:#000000;stroke:#000000;stroke-opacity:1"
     id="use89"
     xlink:href="#p"
     y="144"
     x="56"
     transform="translate(-31.5,-31.5)" />
  <use
     height="100%"
     width="100%"
     style="fill:#000000;stroke:#000000;stroke-opacity:1"
     id="use91"
     xlink:href="#p"
     y="160"
     x="56"
     transform="translate(-31.5,-31.5)" />
  <use
     height="100%"
     width="100%"
     style="fill:#000000;stroke:#000000;stroke-opacity:1"
     id="use93"
     xlink:href="#p"
     y="168"
     x="56"
     transform="translate(-31.5,-31.5)" />
  <use
     height="100%"
     width="100%"
     style="fill:#000000;stroke:#000000;stroke-opacity:1"
     id="use95"
     xlink:href="#p"
     y="176"
     x="56"
     transform="translate(-31.5,-31.5)" />
  <use
     height="100%"
     width="100%"
     style="fill:#000000;stroke:#000000;stroke-opacity:1"
     id="use97"
     xlink:href="#p"
     y="192"
     x="56"
     transform="translate(-31.5,-31.5)" />
  <use
     height="100%"
     width="100%"
     style="fill:#000000;stroke:#000000;stroke-opacity:1"
     id="use99"
     xlink:href="#p"
     y="32"
     x="64"
     transform="translate(-31.5,-31.5)" />
  <use
     height="100%"
     width="100%"
     style="fill:#000000;stroke:#000000;stroke-opacity:1"
     id="use101"
     xlink:href="#p"
     y="48"
     x="64"
     transform="translate(-31.5,-31.5)" />
  <use
     height="100%"
     width="100%"
     style="fill:#000000;stroke:#000000;stroke-opacity:1"
     id="use103"
     xlink:href="#p"
     y="56"
     x="64"
     transform="translate(-31.5,-31.5)" />
  <use
     height="100%"
     width="100%"
     style="fill:#000000;stroke:#000000;stroke-opacity:1"
     id="use105"
     xlink:href="#p"
     y="64"
     x="64"
     transform="translate(-31.5,-31.5)" />
  <use
     height="100%"
     width="100%"
     style="fill:#000000;stroke:#000000;stroke-opacity:1"
     id="use107"
     xlink:href="#p"
     y="80"
     x="64"
     transform="translate(-31.5,-31.5)" />
  <use
     height="100%"
     width="100%"
     style="fill:#000000;stroke:#000000;stroke-opacity:1"
     id="use109"
     xlink:href="#p"
     y="96"
     x="64"
     transform="translate(-31.5,-31.5)" />
  <use
     height="100%"
     width="100%"
     style="fill:#000000;stroke:#000000;stroke-opacity:1"
     id="use111"
     xlink:href="#p"
     y="104"
     x="64"
     transform="translate(-31.5,-31.5)" />
  <use
     height="100%"
     width="100%"
     style="fill:#000000;stroke:#000000;stroke-opacity:1"
     id="use113"
     xlink:href="#p"
     y="120"
     x="64"
     transform="translate(-31.5,-31.5)" />
  <use
     height="100%"
     width="100%"
     style="fill:#000000;stroke:#000000;stroke-opacity:1"
     id="use115"
     xlink:href="#p"
     y="128"
     x="64"
     transform="translate(-31.5,-31.5)" />
  <use
     height="100%"
     width="100%"
     style="fill:#000000;stroke:#000000;stroke-opacity:1"
     id="use117"
     xlink:href="#p"
     y="144"
     x="64"
     transform="translate(-31.5,-31.5)" />
  <use
     height="100%"
     width="100%"
     style="fill:#000000;stroke:#000000;stroke-opacity:1"
     id="use119"
     xlink:href="#p"
     y="160"
     x="64"
     transform="translate(-31.5,-31.5)" />
  <use
     height="100%"
     width="100%"
     style="fill:#000000;stroke:#000000;stroke-opacity:1"
     id="use121"
     xlink:href="#p"
     y="168"
     x="64"
     transform="translate(-31.5,-31.5)" />
  <use
     height="100%"
     width="100%"
     style="fill:#000000;stroke:#000000;stroke-opacity:1"
     id="use123"
     xlink:href="#p"
     y="176"
     x="64"
     transform="translate(-31.5,-31.5)" />
  <use
     height="100%"
     width="100%"
     style="fill:#000000;stroke:#000000;stroke-opacity:1"
     id="use125"
     xlink:href="#p"
     y="192"
     x="64"
     transform="translate(-31.5,-31.5)" />
  <use
     height="100%"
     width="100%"
     style="fill:#000000;stroke:#000000;stroke-opacity:1"
     id="use127"
     xlink:href="#p"
     y="32"
     x="72"
     transform="translate(-31.5,-31.5)" />
  <use
     height="100%"
     width="100%"
     style="fill:#000000;stroke:#000000;stroke-opacity:1"
     id="use129"
     xlink:href="#p"
     y="80"
     x="72"
     transform="translate(-31.5,-31.5)" />
  <use
     height="100%"
     width="100%"
     style="fill:#000000;stroke:#000000;stroke-opacity:1"
     id="use131"
     xlink:href="#p"
     y="96"
     x="72"
     transform="translate(-31.5,-31.5)" />
  <use
     height="100%"
     width="100%"
     style="fill:#000000;stroke:#000000;stroke-opacity:1"
     id="use133"
     xlink:href="#p"
     y="112"
     x="72"
     transform="translate(-31.5,-31.5)" />
  <use
     height="100%"
     width="100%"
     style="fill:#000000;stroke:#000000;stroke-opacity:1"
     id="use135"
     xlink:href="#p"
     y="128"
     x="72"
     transform="translate(-31.5,-31.5)" />
  <use
     height="100%"
     width="100%"
     style="fill:#000000;stroke:#000000;stroke-opacity:1"
     id="use137"
     xlink:href="#p"
     y="144"
     x="72"
     transform="translate(-31.5,-31.5)" />
  <use
     height="100%"
     width="100%"
     style="fill:#000000;stroke:#000000;stroke-opacity:1"
     id="use139"
     xlink:href="#p"
     y="192"
     x="72"
     transform="translate(-31.5,-31.5)" />
  <use
     height="100%"
     width="100%"
     style="fill:#000000;stroke:#000000;stroke-opacity:1"
     id="use141"
     xlink:href="#p"
     y="32"
     x="80"
     transform="translate(-31.5,-31.5)" />
  <use
     height="100%"
     width="100%"
     style="fill:#000000;stroke:#000000;stroke-opacity:1"
     id="use143"
     xlink:href="#p"
     y="40"
     x="80"
     transform="translate(-31.5,-31.5)" />
  <use
     height="100%"
     width="100%"
     style="fill:#000000;stroke:#000000;stroke-opacity:1"
     id="use145"
     xlink:href="#p"
     y="48"
     x="80"
     transform="translate(-31.5,-31.5)" />
  <use
     height="100%"
     width="100%"
     style="fill:#000000;stroke:#000000;stroke-opacity:1"
     id="use147"
     xlink:href="#p"
     y="56"
     x="80"
     transform="translate(-31.5,-31.5)" />
  <use
     height="100%"
     width="100%"
     style="fill:#000000;stroke:#000000;stroke-opacity:1"
     id="use149"
     xlink:href="#p"
     y="64"
     x="80"
     transform="translate(-31.5,-31.5)" />
  <use
     height="100%"
     width="100%"
     style="fill:#000000;stroke:#000000;stroke-opacity:1"
     id="use151"
     xlink:href="#p"
     y="72"
     x="80"
     transform="translate(-31.5,-31.5)" />
  <use
     height="100%"
     width="100%"
     style="fill:#000000;stroke:#000000;stroke-opacity:1"
     id="use153"
     xlink:href="#p"
     y="80"
     x="80"
     transform="translate(-31.5,-31.5)" />
  <use
     height="100%"
     width="100%"
     style="fill:#000000;stroke:#000000;stroke-opacity:1"
     id="use155"
     xlink:href="#p"
     y="96"
     x="80"
     transform="translate(-31.5,-31.5)" />
  <use
     height="100%"
     width="100%"
     style="fill:#000000;stroke:#000000;stroke-opacity:1"
     id="use157"
     xlink:href="#p"
     y="112"
     x="80"
     transform="translate(-31.5,-31.5)" />
  <use
     height="100%"
     width="100%"
     style="fill:#000000;stroke:#000000;stroke-opacity:1"
     id="use159"
     xlink:href="#p"
     y="128"
     x="80"
     transform="translate(-31.5,-31.5)" />
  <use
     height="100%"
     width="100%"
     style="fill:#000000;stroke:#000000;stroke-opacity:1"
     id="use161"
     xlink:href="#p"
     y="144"
     x="80"
     transform="translate(-31.5,-31.5)" />
  <use
     height="100%"
     width="100%"
     style="fill:#000000;stroke:#000000;stroke-opacity:1"
     id="use163"
     xlink:href="#p"
     y="152"
     x="80"
     transform="translate(-31.5,-31.5)" />
  <use
     height="100%"
     width="100%"
     style="fill:#000000;stroke:#000000;stroke-opacity:1"
     id="use165"
     xlink:href="#p"
     y="160"
     x="80"
     transform="translate(-31.5,-31.5)" />
  <use
     height="100%"
     width="100%"
     style="fill:#000000;stroke:#000000;stroke-opacity:1"
     id="use167"
     xlink:href="#p"
     y="168"
     x="80"
     transform="translate(-31.5,-31.5)" />
  <use
     height="100%"
     width="100%"
     style="fill:#000000;stroke:#000000;stroke-opacity:1"
     id="use169"
     xlink:href="#p"
     y="176"
     x="80"
     transform="translate(-31.5,-31.5)" />
  <use
     height="100%"
     width="100%"
     style="fill:#000000;stroke:#000000;stroke-opacity:1"
     id="use171"
     xlink:href="#p"
     y="184"
     x="80"
     transform="translate(-31.5,-31.5)" />
  <use
     height="100%"
     width="100%"
     style="fill:#000000;stroke:#000000;stroke-opacity:1"
     id="use173"
     xlink:href="#p"
     y="192"
     x="80"
     transform="translate(-31.5,-31.5)" />
  <use
     height="100%"
     width="100%"
     style="fill:#000000;stroke:#000000;stroke-opacity:1"
     id="use175"
     xlink:href="#p"
     y="104"
     x="88"
     transform="translate(-31.5,-31.5)" />
  <use
     height="100%"
     width="100%"
     style="fill:#000000;stroke:#000000;stroke-opacity:1"
     id="use177"
     xlink:href="#p"
     y="112"
     x="88"
     transform="translate(-31.5,-31.5)" />
  <use
     height="100%"
     width="100%"
     style="fill:#000000;stroke:#000000;stroke-opacity:1"
     id="use179"
     xlink:href="#p"
     y="128"
     x="88"
     transform="translate(-31.5,-31.5)" />
  <use
     height="100%"
     width="100%"
     style="fill:#000000;stroke:#000000;stroke-opacity:1"
     id="use181"
     xlink:href="#p"
     y="32"
     x="96"
     transform="translate(-31.5,-31.5)" />
  <use
     height="100%"
     width="100%"
     style="fill:#000000;stroke:#000000;stroke-opacity:1"
     id="use183"
     xlink:href="#p"
     y="40"
     x="96"
     transform="translate(-31.5,-31.5)" />
  <use
     height="100%"
     width="100%"
     style="fill:#000000;stroke:#000000;stroke-opacity:1"
     id="use185"
     xlink:href="#p"
     y="48"
     x="96"
     transform="translate(-31.5,-31.5)" />
  <use
     height="100%"
     width="100%"
     style="fill:#000000;stroke:#000000;stroke-opacity:1"
     id="use187"
     xlink:href="#p"
     y="56"
     x="96"
     transform="translate(-31.5,-31.5)" />
  <use
     height="100%"
     width="100%"
     style="fill:#000000;stroke:#000000;stroke-opacity:1"
     id="use189"
     xlink:href="#p"
     y="72"
     x="96"
     transform="translate(-31.5,-31.5)" />
  <use
     height="100%"
     width="100%"
     style="fill:#000000;stroke:#000000;stroke-opacity:1"
     id="use191"
     xlink:href="#p"
     y="80"
     x="96"
     transform="translate(-31.5,-31.5)" />
  <use
     height="100%"
     width="100%"
     style="fill:#000000;stroke:#000000;stroke-opacity:1"
     id="use193"
     xlink:href="#p"
     y="104"
     x="96"
     transform="translate(-31.5,-31.5)" />
  <use
     height="100%"
     width="100%"
     style="fill:#000000;stroke:#000000;stroke-opacity:1"
     id="use195"
     xlink:href="#p"
     y="112"
     x="96"
     transform="translate(-31.5,-31.5)" />
  <use
     height="100%"
     width="100%"
     style="fill:#000000;stroke:#000000;stroke-opacity:1"
     id="use197"
     xlink:href="#p"
     y="120"
     x="96"
     transform="translate(-31.5,-31.5)" />
  <use
     height="100%"
     width="100%"
     style="fill:#000000;stroke:#000000;stroke-opacity:1"
     id="use199"
     xlink:href="#p"
     y="128"
     x="96"
     transform="translate(-31.5,-31.5)" />
  <use
     height="100%"
     width="100%"
     style="fill:#000000;stroke:#000000;stroke-opacity:1"
     id="use201"
     xlink:href="#p"
     y="136"
     x="96"
     transform="translate(-31.5,-31.5)" />
  <use
     height="100%"
     width="100%"
     style="fill:#000000;stroke:#000000;stroke-opacity:1"
     id="use203"
     xlink:href="#p"
     y="152"
     x="96"
     transform="translate(-31.5,-31.5)" />
  <use
     height="100%"
     width="100%"
     style="fill:#000000;stroke:#000000;stroke-opacity:1"
     id="use205"
     xlink:href="#p"
     y="160"
     x="96"
     transform="translate(-31.5,-31.5)" />
  <use
     height="100%"
     width="100%"
     style="fill:#000000;stroke:#000000;stroke-opacity:1"
     id="use207"
     xlink:href="#p"
     y="184"
     x="96"
     transform="translate(-31.5,-31.5)" />
  <use
     height="100%"
     width="100%"
     style="fill:#000000;stroke:#000000;stroke-opacity:1"
     id="use209"
     xlink:href="#p"
     y="192"
     x="96"
     transform="translate(-31.5,-31.5)" />
  <use
     height="100%"
     width="100%"
     style="fill:#000000;stroke:#000000;stroke-opacity:1"
     id="use211"
     xlink:href="#p"
     y="40"
     x="104"
     transform="translate(-31.5,-31.5)" />
  <use
     height="100%"
     width="100%"
     style="fill:#000000;stroke:#000000;stroke-opacity:1"
     id="use213"
     xlink:href="#p"
     y="48"
     x="104"
     transform="translate(-31.5,-31.5)" />
  <use
     height="100%"
     width="100%"
     style="fill:#000000;stroke:#000000;stroke-opacity:1"
     id="use215"
     xlink:href="#p"
     y="64"
     x="104"
     transform="translate(-31.5,-31.5)" />
  <use
     height="100%"
     width="100%"
     style="fill:#000000;stroke:#000000;stroke-opacity:1"
     id="use217"
     xlink:href="#p"
     y="112"
     x="104"
     transform="translate(-31.5,-31.5)" />
  <use
     height="100%"
     width="100%"
     style="fill:#000000;stroke:#000000;stroke-opacity:1"
     id="use219"
     xlink:href="#p"
     y="120"
     x="104"
     transform="translate(-31.5,-31.5)" />
  <use
     height="100%"
     width="100%"
     style="fill:#000000;stroke:#000000;stroke-opacity:1"
     id="use221"
     xlink:href="#p"
     y="144"
     x="104"
     transform="translate(-31.5,-31.5)" />
  <use
     height="100%"
     width="100%"
     style="fill:#000000;stroke:#000000;stroke-opacity:1"
     id="use223"
     xlink:href="#p"
     y="152"
     x="104"
     transform="translate(-31.5,-31.5)" />
  <use
     height="100%"
     width="100%"
     style="fill:#000000;stroke:#000000;stroke-opacity:1"
     id="use225"
     xlink:href="#p"
     y="160"
     x="104"
     transform="translate(-31.5,-31.5)" />
  <use
     height="100%"
     width="100%"
     style="fill:#000000;stroke:#000000;stroke-opacity:1"
     id="use227"
     xlink:href="#p"
     y="168"
     x="104"
     transform="translate(-31.5,-31.5)" />
  <use
     height="100%"
     width="100%"
     style="fill:#000000;stroke:#000000;stroke-opacity:1"
     id="use229"
     xlink:href="#p"
     y="176"
     x="104"
     transform="translate(-31.5,-31.5)" />
  <use
     height="100%"
     width="100%"
     style="fill:#000000;stroke:#000000;stroke-opacity:1"
     id="use231"
     xlink:href="#p"
     y="184"
     x="104"
     transform="translate(-31.5,-31.5)" />
  <use
     height="100%"
     width="100%"
     style="fill:#000000;stroke:#000000;stroke-opacity:1"
     id="use233"
     xlink:href="#p"
     y="48"
     x="112"
     transform="translate(-31.5,-31.5)" />
  <use
     height="100%"
     width="100%"
     style="fill:#000000;stroke:#000000;stroke-opacity:1"
     id="use235"
     xlink:href="#p"
     y="56"
     x="112"
     transform="translate(-31.5,-31.5)" />
  <use
     height="100%"
     width="100%"
     style="fill:#000000;stroke:#000000;stroke-opacity:1"
     id="use237"
     xlink:href="#p"
     y="64"
     x="112"
     transform="translate(-31.5,-31.5)" />
  <use
     height="100%"
     width="100%"
     style="fill:#000000;stroke:#000000;stroke-opacity:1"
     id="use239"
     xlink:href="#p"
     y="72"
     x="112"
     transform="translate(-31.5,-31.5)" />
  <use
     height="100%"
     width="100%"
     style="fill:#000000;stroke:#000000;stroke-opacity:1"
     id="use241"
     xlink:href="#p"
     y="80"
     x="112"
     transform="translate(-31.5,-31.5)" />
  <use
     height="100%"
     width="100%"
     style="fill:#000000;stroke:#000000;stroke-opacity:1"
     id="use243"
     xlink:href="#p"
     y="104"
     x="112"
     transform="translate(-31.5,-31.5)" />
  <use
     height="100%"
     width="100%"
     style="fill:#000000;stroke:#000000;stroke-opacity:1"
     id="use245"
     xlink:href="#p"
     y="112"
     x="112"
     transform="translate(-31.5,-31.5)" />
  <use
     height="100%"
     width="100%"
     style="fill:#000000;stroke:#000000;stroke-opacity:1"
     id="use247"
     xlink:href="#p"
     y="120"
     x="112"
     transform="translate(-31.5,-31.5)" />
  <use
     height="100%"
     width="100%"
     style="fill:#000000;stroke:#000000;stroke-opacity:1"
     id="use249"
     xlink:href="#p"
     y="128"
     x="112"
     transform="translate(-31.5,-31.5)" />
  <use
     height="100%"
     width="100%"
     style="fill:#000000;stroke:#000000;stroke-opacity:1"
     id="use251"
     xlink:href="#p"
     y="168"
     x="112"
     transform="translate(-31.5,-31.5)" />
  <use
     height="100%"
     width="100%"
     style="fill:#000000;stroke:#000000;stroke-opacity:1"
     id="use253"
     xlink:href="#p"
     y="184"
     x="112"
     transform="translate(-31.5,-31.5)" />
  <use
     height="100%"
     width="100%"
     style="fill:#000000;stroke:#000000;stroke-opacity:1"
     id="use255"
     xlink:href="#p"
     y="40"
     x="120"
     transform="translate(-31.5,-31.5)" />
  <use
     height="100%"
     width="100%"
     style="fill:#000000;stroke:#000000;stroke-opacity:1"
     id="use257"
     xlink:href="#p"
     y="48"
     x="120"
     transform="translate(-31.5,-31.5)" />
  <use
     height="100%"
     width="100%"
     style="fill:#000000;stroke:#000000;stroke-opacity:1"
     id="use259"
     xlink:href="#p"
     y="128"
     x="120"
     transform="translate(-31.5,-31.5)" />
  <use
     height="100%"
     width="100%"
     style="fill:#000000;stroke:#000000;stroke-opacity:1"
     id="use261"
     xlink:href="#p"
     y="136"
     x="120"
     transform="translate(-31.5,-31.5)" />
  <use
     height="100%"
     width="100%"
     style="fill:#000000;stroke:#000000;stroke-opacity:1"
     id="use263"
     xlink:href="#p"
     y="152"
     x="120"
     transform="translate(-31.5,-31.5)" />
  <use
     height="100%"
     width="100%"
     style="fill:#000000;stroke:#000000;stroke-opacity:1"
     id="use265"
     xlink:href="#p"
     y="160"
     x="120"
     transform="translate(-31.5,-31.5)" />
  <use
     height="100%"
     width="100%"
     style="fill:#000000;stroke:#000000;stroke-opacity:1"
     id="use267"
     xlink:href="#p"
     y="176"
     x="120"
     transform="translate(-31.5,-31.5)" />
  <use
     height="100%"
     width="100%"
     style="fill:#000000;stroke:#000000;stroke-opacity:1"
     id="use269"
     xlink:href="#p"
     y="192"
     x="120"
     transform="translate(-31.5,-31.5)" />
  <use
     height="100%"
     width="100%"
     style="fill:#000000;stroke:#000000;stroke-opacity:1"
     id="use271"
     xlink:href="#p"
     y="32"
     x="128"
     transform="translate(-31.5,-31.5)" />
  <use
     height="100%"
     width="100%"
     style="fill:#000000;stroke:#000000;stroke-opacity:1"
     id="use273"
     xlink:href="#p"
     y="48"
     x="128"
     transform="translate(-31.5,-31.5)" />
  <use
     height="100%"
     width="100%"
     style="fill:#000000;stroke:#000000;stroke-opacity:1"
     id="use275"
     xlink:href="#p"
     y="56"
     x="128"
     transform="translate(-31.5,-31.5)" />
  <use
     height="100%"
     width="100%"
     style="fill:#000000;stroke:#000000;stroke-opacity:1"
     id="use277"
     xlink:href="#p"
     y="64"
     x="128"
     transform="translate(-31.5,-31.5)" />
  <use
     height="100%"
     width="100%"
     style="fill:#000000;stroke:#000000;stroke-opacity:1"
     id="use279"
     xlink:href="#p"
     y="72"
     x="128"
     transform="translate(-31.5,-31.5)" />
  <use
     height="100%"
     width="100%"
     style="fill:#000000;stroke:#000000;stroke-opacity:1"
     id="use281"
     xlink:href="#p"
     y="80"
     x="128"
     transform="translate(-31.5,-31.5)" />
  <use
     height="100%"
     width="100%"
     style="fill:#000000;stroke:#000000;stroke-opacity:1"
     id="use283"
     xlink:href="#p"
     y="88"
     x="128"
     transform="translate(-31.5,-31.5)" />
  <use
     height="100%"
     width="100%"
     style="fill:#000000;stroke:#000000;stroke-opacity:1"
     id="use285"
     xlink:href="#p"
     y="128"
     x="128"
     transform="translate(-31.5,-31.5)" />
  <use
     height="100%"
     width="100%"
     style="fill:#000000;stroke:#000000;stroke-opacity:1"
     id="use287"
     xlink:href="#p"
     y="152"
     x="128"
     transform="translate(-31.5,-31.5)" />
  <use
     height="100%"
     width="100%"
     style="fill:#000000;stroke:#000000;stroke-opacity:1"
     id="use289"
     xlink:href="#p"
     y="184"
     x="128"
     transform="translate(-31.5,-31.5)" />
  <use
     height="100%"
     width="100%"
     style="fill:#000000;stroke:#000000;stroke-opacity:1"
     id="use291"
     xlink:href="#p"
     y="192"
     x="128"
     transform="translate(-31.5,-31.5)" />
  <use
     height="100%"
     width="100%"
     style="fill:#000000;stroke:#000000;stroke-opacity:1"
     id="use293"
     xlink:href="#p"
     y="104"
     x="136"
     transform="translate(-31.5,-31.5)" />
  <use
     height="100%"
     width="100%"
     style="fill:#000000;stroke:#000000;stroke-opacity:1"
     id="use295"
     xlink:href="#p"
     y="112"
     x="136"
     transform="translate(-31.5,-31.5)" />
  <use
     height="100%"
     width="100%"
     style="fill:#000000;stroke:#000000;stroke-opacity:1"
     id="use297"
     xlink:href="#p"
     y="136"
     x="136"
     transform="translate(-31.5,-31.5)" />
  <use
     height="100%"
     width="100%"
     style="fill:#000000;stroke:#000000;stroke-opacity:1"
     id="use299"
     xlink:href="#p"
     y="144"
     x="136"
     transform="translate(-31.5,-31.5)" />
  <use
     height="100%"
     width="100%"
     style="fill:#000000;stroke:#000000;stroke-opacity:1"
     id="use301"
     xlink:href="#p"
     y="168"
     x="136"
     transform="translate(-31.5,-31.5)" />
  <use
     height="100%"
     width="100%"
     style="fill:#000000;stroke:#000000;stroke-opacity:1"
     id="use303"
     xlink:href="#p"
     y="176"
     x="136"
     transform="translate(-31.5,-31.5)" />
  <use
     height="100%"
     width="100%"
     style="fill:#000000;stroke:#000000;stroke-opacity:1"
     id="use305"
     xlink:href="#p"
     y="32"
     x="144"
     transform="translate(-31.5,-31.5)" />
  <use
     height="100%"
     width="100%"
     style="fill:#000000;stroke:#000000;stroke-opacity:1"
     id="use307"
     xlink:href="#p"
     y="40"
     x="144"
     transform="translate(-31.5,-31.5)" />
  <use
     height="100%"
     width="100%"
     style="fill:#000000;stroke:#000000;stroke-opacity:1"
     id="use309"
     xlink:href="#p"
     y="48"
     x="144"
     transform="translate(-31.5,-31.5)" />
  <use
     height="100%"
     width="100%"
     style="fill:#000000;stroke:#000000;stroke-opacity:1"
     id="use311"
     xlink:href="#p"
     y="56"
     x="144"
     transform="translate(-31.5,-31.5)" />
  <use
     height="100%"
     width="100%"
     style="fill:#000000;stroke:#000000;stroke-opacity:1"
     id="use313"
     xlink:href="#p"
     y="64"
     x="144"
     transform="translate(-31.5,-31.5)" />
  <use
     height="100%"
     width="100%"
     style="fill:#000000;stroke:#000000;stroke-opacity:1"
     id="use315"
     xlink:href="#p"
     y="72"
     x="144"
     transform="translate(-31.5,-31.5)" />
  <use
     height="100%"
     width="100%"
     style="fill:#000000;stroke:#000000;stroke-opacity:1"
     id="use317"
     xlink:href="#p"
     y="80"
     x="144"
     transform="translate(-31.5,-31.5)" />
  <use
     height="100%"
     width="100%"
     style="fill:#000000;stroke:#000000;stroke-opacity:1"
     id="use319"
     xlink:href="#p"
     y="104"
     x="144"
     transform="translate(-31.5,-31.5)" />
  <use
     height="100%"
     width="100%"
     style="fill:#000000;stroke:#000000;stroke-opacity:1"
     id="use321"
     xlink:href="#p"
     y="32"
     x="152"
     transform="translate(-31.5,-31.5)" />
  <use
     height="100%"
     width="100%"
     style="fill:#000000;stroke:#000000;stroke-opacity:1"
     id="use323"
     xlink:href="#p"
     y="80"
     x="152"
     transform="translate(-31.5,-31.5)" />
  <use
     height="100%"
     width="100%"
     style="fill:#000000;stroke:#000000;stroke-opacity:1"
     id="use325"
     xlink:href="#p"
     y="96"
     x="152"
     transform="translate(-31.5,-31.5)" />
  <use
     height="100%"
     width="100%"
     style="fill:#000000;stroke:#000000;stroke-opacity:1"
     id="use327"
     xlink:href="#p"
     y="104"
     x="152"
     transform="translate(-31.5,-31.5)" />
  <use
     height="100%"
     width="100%"
     style="fill:#000000;stroke:#000000;stroke-opacity:1"
     id="use329"
     xlink:href="#p"
     y="112"
     x="152"
     transform="translate(-31.5,-31.5)" />
  <use
     height="100%"
     width="100%"
     style="fill:#000000;stroke:#000000;stroke-opacity:1"
     id="use331"
     xlink:href="#p"
     y="120"
     x="152"
     transform="translate(-31.5,-31.5)" />
  <use
     height="100%"
     width="100%"
     style="fill:#000000;stroke:#000000;stroke-opacity:1"
     id="use333"
     xlink:href="#p"
     y="152"
     x="152"
     transform="translate(-31.5,-31.5)" />
  <use
     height="100%"
     width="100%"
     style="fill:#000000;stroke:#000000;stroke-opacity:1"
     id="use335"
     xlink:href="#p"
     y="184"
     x="152"
     transform="translate(-31.5,-31.5)" />
  <use
     height="100%"
     width="100%"
     style="fill:#000000;stroke:#000000;stroke-opacity:1"
     id="use337"
     xlink:href="#p"
     y="192"
     x="152"
     transform="translate(-31.5,-31.5)" />
  <use
     height="100%"
     width="100%"
     style="fill:#000000;stroke:#000000;stroke-opacity:1"
     id="use339"
     xlink:href="#p"
     y="32"
     x="160"
     transform="translate(-31.5,-31.5)" />
  <use
     height="100%"
     width="100%"
     style="fill:#000000;stroke:#000000;stroke-opacity:1"
     id="use341"
     xlink:href="#p"
     y="48"
     x="160"
     transform="translate(-31.5,-31.5)" />
  <use
     height="100%"
     width="100%"
     style="fill:#000000;stroke:#000000;stroke-opacity:1"
     id="use343"
     xlink:href="#p"
     y="56"
     x="160"
     transform="translate(-31.5,-31.5)" />
  <use
     height="100%"
     width="100%"
     style="fill:#000000;stroke:#000000;stroke-opacity:1"
     id="use345"
     xlink:href="#p"
     y="64"
     x="160"
     transform="translate(-31.5,-31.5)" />
  <use
     height="100%"
     width="100%"
     style="fill:#000000;stroke:#000000;stroke-opacity:1"
     id="use347"
     xlink:href="#p"
     y="80"
     x="160"
     transform="translate(-31.5,-31.5)" />
  <use
     height="100%"
     width="100%"
     style="fill:#000000;stroke:#000000;stroke-opacity:1"
     id="use349"
     xlink:href="#p"
     y="104"
     x="160"
     transform="translate(-31.5,-31.5)" />
  <use
     height="100%"
     width="100%"
     style="fill:#000000;stroke:#000000;stroke-opacity:1"
     id="use351"
     xlink:href="#p"
     y="112"
     x="160"
     transform="translate(-31.5,-31.5)" />
  <use
     height="100%"
     width="100%"
     style="fill:#000000;stroke:#000000;stroke-opacity:1"
     id="use353"
     xlink:href="#p"
     y="120"
     x="160"
     transform="translate(-31.5,-31.5)" />
  <use
     height="100%"
     width="100%"
     style="fill:#000000;stroke:#000000;stroke-opacity:1"
     id="use355"
     xlink:href="#p"
     y="128"
     x="160"
     transform="translate(-31.5,-31.5)" />
  <use
     height="100%"
     width="100%"
     style="fill:#000000;stroke:#000000;stroke-opacity:1"
     id="use357"
     xlink:href="#p"
     y="136"
     x="160"
     transform="translate(-31.5,-31.5)" />
  <use
     height="100%"
     width="100%"
     style="fill:#000000;stroke:#000000;stroke-opacity:1"
     id="use359"
     xlink:href="#p"
     y="144"
     x="160"
     transform="translate(-31.5,-31.5)" />
  <use
     height="100%"
     width="100%"
     style="fill:#000000;stroke:#000000;stroke-opacity:1"
     id="use361"
     xlink:href="#p"
     y="160"
     x="160"
     transform="translate(-31.5,-31.5)" />
  <use
     height="100%"
     width="100%"
     style="fill:#000000;stroke:#000000;stroke-opacity:1"
     id="use363"
     xlink:href="#p"
     y="168"
     x="160"
     transform="translate(-31.5,-31.5)" />
  <use
     height="100%"
     width="100%"
     style="fill:#000000;stroke:#000000;stroke-opacity:1"
     id="use365"
     xlink:href="#p"
     y="176"
     x="160"
     transform="translate(-31.5,-31.5)" />
  <use
     height="100%"
     width="100%"
     style="fill:#000000;stroke:#000000;stroke-opacity:1"
     id="use367"
     xlink:href="#p"
     y="184"
     x="160"
     transform="translate(-31.5,-31.5)" />
  <use
     height="100%"
     width="100%"
     style="fill:#000000;stroke:#000000;stroke-opacity:1"
     id="use369"
     xlink:href="#p"
     y="32"
     x="168"
     transform="translate(-31.5,-31.5)" />
  <use
     height="100%"
     width="100%"
     style="fill:#000000;stroke:#000000;stroke-opacity:1"
     id="use371"
     xlink:href="#p"
     y="48"
     x="168"
     transform="translate(-31.5,-31.5)" />
  <use
     height="100%"
     width="100%"
     style="fill:#000000;stroke:#000000;stroke-opacity:1"
     id="use373"
     xlink:href="#p"
     y="56"
     x="168"
     transform="translate(-31.5,-31.5)" />
  <use
     height="100%"
     width="100%"
     style="fill:#000000;stroke:#000000;stroke-opacity:1"
     id="use375"
     xlink:href="#p"
     y="64"
     x="168"
     transform="translate(-31.5,-31.5)" />
  <use
     height="100%"
     width="100%"
     style="fill:#000000;stroke:#000000;stroke-opacity:1"
     id="use377"
     xlink:href="#p"
     y="80"
     x="168"
     transform="translate(-31.5,-31.5)" />
  <use
     height="100%"
     width="100%"
     style="fill:#000000;stroke:#000000;stroke-opacity:1"
     id="use379"
     xlink:href="#p"
     y="96"
     x="168"
     transform="translate(-31.5,-31.5)" />
  <use
     height="100%"
     width="100%"
     style="fill:#000000;stroke:#000000;stroke-opacity:1"
     id="use381"
     xlink:href="#p"
     y="128"
     x="168"
     transform="translate(-31.5,-31.5)" />
  <use
     height="100%"
     width="100%"
     style="fill:#000000;stroke:#000000;stroke-opacity:1"
     id="use383"
     xlink:href="#p"
     y="136"
     x="168"
     transform="translate(-31.5,-31.5)" />
  <use
     height="100%"
     width="100%"
     style="fill:#000000;stroke:#000000;stroke-opacity:1"
     id="use385"
     xlink:href="#p"
     y="144"
     x="168"
     transform="translate(-31.5,-31.5)" />
  <use
     height="100%"
     width="100%"
     style="fill:#000000;stroke:#000000;stroke-opacity:1"
     id="use387"
     xlink:href="#p"
     y="152"
     x="168"
     transform="translate(-31.5,-31.5)" />
  <use
     height="100%"
     width="100%"
     style="fill:#000000;stroke:#000000;stroke-opacity:1"
     id="use389"
     xlink:href="#p"
     y="168"
     x="168"
     transform="translate(-31.5,-31.5)" />
  <use
     height="100%"
     width="100%"
     style="fill:#000000;stroke:#000000;stroke-opacity:1"
     id="use391"
     xlink:href="#p"
     y="176"
     x="168"
     transform="translate(-31.5,-31.5)" />
  <use
     height="100%"
     width="100%"
     style="fill:#000000;stroke:#000000;stroke-opacity:1"
     id="use393"
     xlink:href="#p"
     y="32"
     x="176"
     transform="translate(-31.5,-31.5)" />
  <use
     height="100%"
     width="100%"
     style="fill:#000000;stroke:#000000;stroke-opacity:1"
     id="use395"
     xlink:href="#p"
     y="48"
     x="176"
     transform="translate(-31.5,-31.5)" />
  <use
     height="100%"
     width="100%"
     style="fill:#000000;stroke:#000000;stroke-opacity:1"
     id="use397"
     xlink:href="#p"
     y="56"
     x="176"
     transform="translate(-31.5,-31.5)" />
  <use
     height="100%"
     width="100%"
     style="fill:#000000;stroke:#000000;stroke-opacity:1"
     id="use399"
     xlink:href="#p"
     y="64"
     x="176"
     transform="translate(-31.5,-31.5)" />
  <use
     height="100%"
     width="100%"
     style="fill:#000000;stroke:#000000;stroke-opacity:1"
     id="use401"
     xlink:href="#p"
     y="80"
     x="176"
     transform="translate(-31.5,-31.5)" />
  <use
     height="100%"
     width="100%"
     style="fill:#000000;stroke:#000000;stroke-opacity:1"
     id="use403"
     xlink:href="#p"
     y="96"
     x="176"
     transform="translate(-31.5,-31.5)" />
  <use
     height="100%"
     width="100%"
     style="fill:#000000;stroke:#000000;stroke-opacity:1"
     id="use405"
     xlink:href="#p"
     y="136"
     x="176"
     transform="translate(-31.5,-31.5)" />
  <use
     height="100%"
     width="100%"
     style="fill:#000000;stroke:#000000;stroke-opacity:1"
     id="use407"
     xlink:href="#p"
     y="176"
     x="176"
     transform="translate(-31.5,-31.5)" />
  <use
     height="100%"
     width="100%"
     style="fill:#000000;stroke:#000000;stroke-opacity:1"
     id="use409"
     xlink:href="#p"
     y="32"
     x="184"
     transform="translate(-31.5,-31.5)" />
  <use
     height="100%"
     width="100%"
     style="fill:#000000;stroke:#000000;stroke-opacity:1"
     id="use411"
     xlink:href="#p"
     y="80"
     x="184"
     transform="translate(-31.5,-31.5)" />
  <use
     height="100%"
     width="100%"
     style="fill:#000000;stroke:#000000;stroke-opacity:1"
     id="use413"
     xlink:href="#p"
     y="96"
     x="184"
     transform="translate(-31.5,-31.5)" />
  <use
     height="100%"
     width="100%"
     style="fill:#000000;stroke:#000000;stroke-opacity:1"
     id="use415"
     xlink:href="#p"
     y="104"
     x="184"
     transform="translate(-31.5,-31.5)" />
  <use
     height="100%"
     width="100%"
     style="fill:#000000;stroke:#000000;stroke-opacity:1"
     id="use417"
     xlink:href="#p"
     y="112"
     x="184"
     transform="translate(-31.5,-31.5)" />
  <use
     height="100%"
     width="100%"
     style="fill:#000000;stroke:#000000;stroke-opacity:1"
     id="use419"
     xlink:href="#p"
     y="120"
     x="184"
     transform="translate(-31.5,-31.5)" />
  <use
     height="100%"
     width="100%"
     style="fill:#000000;stroke:#000000;stroke-opacity:1"
     id="use421"
     xlink:href="#p"
     y="136"
     x="184"
     transform="translate(-31.5,-31.5)" />
  <use
     height="100%"
     width="100%"
     style="fill:#000000;stroke:#000000;stroke-opacity:1"
     id="use423"
     xlink:href="#p"
     y="144"
     x="184"
     transform="translate(-31.5,-31.5)" />
  <use
     height="100%"
     width="100%"
     style="fill:#000000;stroke:#000000;stroke-opacity:1"
     id="use425"
     xlink:href="#p"
     y="168"
     x="184"
     transform="translate(-31.5,-31.5)" />
  <use
     height="100%"
     width="100%"
     style="fill:#000000;stroke:#000000;stroke-opacity:1"
     id="use427"
     xlink:href="#p"
     y="32"
     x="192"
     transform="translate(-31.5,-31.5)" />
  <use
     height="100%"
     width="100%"
     style="fill:#000000;stroke:#000000;stroke-opacity:1"
     id="use429"
     xlink:href="#p"
     y="40"
     x="192"
     transform="translate(-31.5,-31.5)" />
  <use
     height="100%"
     width="100%"
     style="fill:#000000;stroke:#000000;stroke-opacity:1"
     id="use431"
     xlink:href="#p"
     y="48"
     x="192"
     transform="translate(-31.5,-31.5)" />
  <use
     height="100%"
     width="100%"
     style="fill:#000000;stroke:#000000;stroke-opacity:1"
     id="use433"
     xlink:href="#p"
     y="56"
     x="192"
     transform="translate(-31.5,-31.5)" />
  <use
     height="100%"
     width="100%"
     style="fill:#000000;stroke:#000000;stroke-opacity:1"
     id="use435"
     xlink:href="#p"
     y="64"
     x="192"
     transform="translate(-31.5,-31.5)" />
  <use
     height="100%"
     width="100%"
     style="fill:#000000;stroke:#000000;stroke-opacity:1"
     id="use437"
     xlink:href="#p"
     y="72"
     x="192"
     transform="translate(-31.5,-31.5)" />
  <use
     height="100%"
     width="100%"
     style="fill:#000000;stroke:#000000;stroke-opacity:1"
     id="use439"
     xlink:href="#p"
     y="80"
     x="192"
     transform="translate(-31.5,-31.5)" />
  <use
     height="100%"
     width="100%"
     style="fill:#000000;stroke:#000000;stroke-opacity:1"
     id="use441"
     xlink:href="#p"
     y="96"
     x="192"
     transform="translate(-31.5,-31.5)" />
  <use
     height="100%"
     width="100%"
     style="fill:#000000;stroke:#000000;stroke-opacity:1"
     id="use443"
     xlink:href="#p"
     y="120"
     x="192"
     transform="translate(-31.5,-31.5)" />
  <use
     height="100%"
     width="100%"
     style="fill:#000000;stroke:#000000;stroke-opacity:1"
     id="use445"
     xlink:href="#p"
     y="128"
     x="192"
     transform="translate(-31.5,-31.5)" />
  <use
     height="100%"
     width="100%"
     style="fill:#000000;stroke:#000000;stroke-opacity:1"
     id="use447"
     xlink:href="#p"
     y="152"
     x="192"
     transform="translate(-31.5,-31.5)" />
  <use
     height="100%"
     width="100%"
     style="fill:#000000;stroke:#000000;stroke-opacity:1"
     id="use449"
     xlink:href="#p"
     y="168"
     x="192"
     transform="translate(-31.5,-31.5)" />
  <use
     height="100%"
     width="100%"
     style="fill:#000000;stroke:#000000;stroke-opacity:1"
     id="use451"
     xlink:href="#p"
     y="192"
     x="192"
     transform="translate(-31.5,-31.5)" />
</svg>
